<svg xmlns="http://www.w3.org/2000/svg" width="70.56mm" height="40.62mm" viewBox="0 0 200 115.14"><defs><style>.a{fill:#fff;}</style></defs><title>partner</title><path class="a" d="M196.84,70.13A11.92,11.92,0,0,0,199,65.49s.61-3.44-3.93-3.76c0,0-2.52.08-3.53,1.92,0,0-4.17,6.6-22.5,14.11,0,0-5.71,2-8.61-1.17A55.74,55.74,0,0,0,167.55,68c7-10.43-9.28-4.41-12.31,1.77-1.39,2.79-2,5.32-1.67,7.44A31.66,31.66,0,0,1,146,81.65C135.63,86,130.39,79,131.56,71.92c2-12.39,8.72-24.51,22.83-35.69,0,0,4.73-3.65,4.42-5a2.77,2.77,0,0,0-.54-2.06c-.91-1-2.17-.86-3.79.34A17.38,17.38,0,0,0,152,32.37s-1.69,2.42-2.52,3.5c0,0-29.1,32.3-22.52,45.88s26.05.78,26.05.78a28.09,28.09,0,0,0,2.57-1.71,10.57,10.57,0,0,0,3.86,2c6.71,2,15.4-4.33,26.42-9.27l3.19-1.77s4.36-3.3,4.86,4.89a46,46,0,0,1,.86,6.62s.63,4.58-3.16,4.76c0,0-7.15-2-7.78,2.7,0,0-.85,6.1,6,3.36a32.13,32.13,0,0,1,4.61-1.25S201.75,91,199.6,85Zm-37.4,3.48c-1.45-3.38,4.11-6.53,4.78-6.82a1.93,1.93,0,0,1,1.07-.23c.32.17.09.61.09.61A29.55,29.55,0,0,1,159.43,73.61Z"/><path class="a" d="M49.92,6.82c4.23,1.05,4.38-2.75,4.38-2.75C53.87.24,50.84,0,50.84,0a3.41,3.41,0,0,0-3.56,2.35C46.83,5.48,49.92,6.82,49.92,6.82Z"/><path class="a" d="M37.69,65.81S14.9,71.62,2.21,93.21c0,0-5.83,13.15,1.47,20.17,0,0,6.66,7.15,18.33-7.36,0,0,10.51-11.85,20.77-38.8a118.32,118.32,0,0,1,24.15-6.46s5.54-.49,9.58.77a6.69,6.69,0,0,1,2.35,1.78c-.84.47-1.71,1-2.62,1.53,0,0-9.16,6.12-13.74,12.53-2.86,4-4.19,9,0,10.7,0,0,14.1,6.7,22.36-17A32.62,32.62,0,0,0,86,65.86a6.14,6.14,0,0,0,.05-2,16.34,16.34,0,0,1,4.38-1.33s6.74-1.83,7.7,12.64c0,0,.4,11.86,10.68,3.22,0,0,4.64-5,5.49-2.43,0,0,.62,4.74,2.59,6.86,0,0,2.72,2.75,5,2.15a3.51,3.51,0,0,0,2.46-3.47s.38-2-2.52-4.17c0,0-1.1-.91-.93-3.73,0-1,.22-2,.25-3.84,0,0-1.23-9-6.11-4.78,0,0-2.71,3.38-6.88,7.92,0,0-3.44,3.8-4.18-1.72,0,0-.87-11.64-8.65-12.88,0,0-3.74-.58-10.76,2.27-2.17-2.43-7.18-4.45-18.6-2.86a122.79,122.79,0,0,0-21.72,5.54,264.73,264.73,0,0,0,9.16-31.75s1.84-7.8-4.14-6.91c0,0-2.54.53-1.89,4.17.39,2.38.55,1.76.4,3.64,0,0,1.23,12.67-5.68,31.65Q39.91,64.86,37.69,65.81ZM25.74,94.64S14.81,111.15,7.61,109c0,0-23.67-7.44,28.84-39.18,0,0,1.49-.71,4.06-1.76A130.86,130.86,0,0,1,25.74,94.64Zm53-21.82A21.22,21.22,0,0,1,73.43,80c-1.83,1.71-5,3.21-5.13.75,0,0-1-6.09,12-13.81A10.89,10.89,0,0,1,78.73,72.82Z"/></svg>