<?xml version="1.0" encoding="utf-8"?>
<!-- Generator: Adobe Illustrator 21.1.0, SVG Export Plug-In . SVG Version: 6.00 Build 0)  -->
<svg version="1.1" id="Layer_1" xmlns="http://www.w3.org/2000/svg" xmlns:xlink="http://www.w3.org/1999/xlink" x="0px" y="0px"
	 viewBox="0 0 244.9 104" style="enable-background:new 0 0 244.9 104;" xml:space="preserve">
<style type="text/css">
	.st0{fill:#FFFFFF;}
	.st1{fill:#EEC42D;}
</style>
<g>
	<g>
		<path class="st0" d="M18.1,55.8L18.1,55.8c0-0.2,0-0.4-0.1-0.5l-0.4-0.2c0,0-0.1,0.1-0.2,0.1c0,0-0.2,0-0.2,0.1
			c-0.1,0-0.2,0-0.2,0.1c-0.3,0.1-0.6,0.2-0.9,0.3c-0.2,0.1-0.3,0.1-0.5,0.2l0,0c-0.1,0.1-0.1,0.1-0.2,0.2l0.2,0.3
			c-0.2,0.1-0.4,0.1-0.6,0.2l-0.2,0.1c-0.1,0-0.3,0.1-0.4,0.1c-0.2-0.6-0.3-1.2-0.4-1.8c-0.1-0.4-0.1-0.8-0.2-1.2
			c-0.2-0.6-0.3-1.3-0.5-1.9c-0.1-0.3-0.2-0.5-0.2-0.7l-0.2-0.7c-0.1-0.3-0.2-0.5-0.2-0.8c-0.1-0.2-0.1-0.5-0.1-0.7
			c0-0.4-0.1-0.8-0.3-1.1l-0.1-0.5c-0.1-0.4-0.1-0.7-0.2-1.1c-0.1-0.6-0.3-1.1-0.4-1.7l-0.1-0.3c0-0.1-0.1-0.2-0.1-0.3l-0.5-0.1
			h-0.3c-0.2,0-0.5-0.1-0.7-0.1s-0.4-0.1-0.7,0l-1-0.1L7.9,44c0,0.1,0,0.1,0,0.2c0,0.2,0,0.3,0.1,0.5c0.1,0.2,0,0.3-0.1,0.6
			c0,0.1-0.1,0.2-0.1,0.3l-0.1,0.2L8,46.1l0,0v0.1c0,0.1,0.1,0.1,0.1,0.2v0.1c0,0.1-0.1,0.4-0.2,0.6c0,0.1-0.1,0.2-0.1,0.3l0,0
			l-0.5-0.2L7,47.7l-0.1,0.2v0.2c0,0.1,0,0.3,0,0.4c-0.1,0.1-0.2,0.3-0.1,0.5c0,0,0,0.1,0,0.2c0,0.1,0,0.2-0.1,0.2
			c0,0.3-0.1,0.6-0.1,0.8s0,0.3,0,0.5v0.1c0,0.1,0.1,0.2,0.1,0.3h0.4l0,0c0,0.2-0.1,0.4-0.1,0.5v0.2c-0.1,0.3-0.1,0.6-0.2,1H6.6v0.1
			l-0.1-0.1C6.1,52.9,6,53.2,6,53.5h0.2l-0.1,0.2v-0.1c0,0,0,0-0.1,0.1v0.2c-0.1,0.2-0.1,0.5-0.1,0.7c0,0.1,0,0.2,0,0.2L5.7,55
			l-0.1,0.2c0,0.2,0,0.4-0.1,0.7S5.4,56.6,5.3,57c0,0.1,0,0.2,0,0.3c0,0.2-0.1,0.4-0.1,0.6c0,0.3-0.1,0.5-0.1,0.8
			c0,0.1,0,0.2-0.1,0.4c-0.3,0.1-0.6,0.2-0.9,0.3l-0.8,0.3c0,0.1-0.2,0.2-0.4,0.2c-0.3,0.1-0.7,0.2-1,0.3c-0.4,0.1-0.7,0.2-1.1,0.3
			c-0.2,0.1-0.4,0.1-0.5,0.2H0.2L0,61.1c0.2,0.5,0.3,0.9,0.5,1.4l0.3,0.8l0.4,0.2l1.1-0.3c0.5-0.1,0.9-0.3,1.4-0.4
			c0.4-0.1,0.8-0.3,1.1-0.4c0,0.2,0,0.3-0.1,0.5c-0.1,0.3-0.1,0.6-0.2,0.9c-0.1,0.3-0.1,0.7-0.2,1c-0.1,0.5-0.1,1.1-0.2,1.6v0.1
			c0,0.1,0,0.3,0,0.4c0,0.2,0,0.3,0,0.5C4,67.6,4,67.8,4,68c-0.1,0.3-0.1,0.5-0.1,0.8c-0.1,0.4-0.1,0.9-0.1,1.3l-0.1,0.6L3.8,71
			c0.6,0.4,1.4,0.5,2,0.6l0.4,0.1h0.2c0.5-0.2,0.6-0.3,0.5-0.9c0-0.2-0.1-0.4-0.1-0.7C6.9,69.6,6.9,69,7,68.5l0.1-1.1
			c0.1-0.4,0.1-0.9,0.2-1.3s0.1-0.9,0.2-1.3s0.1-0.9,0.2-1.3c0.1-0.5,0.1-1,0.2-1.5L8,61.2c0.1,0,0.2-0.1,0.4-0.1
			c0.4-0.1,0.7-0.3,1.1-0.4c0.3-0.1,0.6-0.2,1-0.3c0.3-0.1,0.5-0.2,0.8-0.3c0.2-0.1,0.4-0.1,0.6-0.2l0.6-0.2c0.1,0.3,0.2,0.7,0.3,1
			l0.1,0.2c0.2,0.6,0.4,1.3,0.9,1.8v0.1l0,0l0,0h0.1l-0.2,0.1l0.1,0.1c0,0.1,0.1,0.1,0.1,0.2l0.1,0.3c0.1,0.4,0.3,0.9,0.4,1.3
			c0.1,0.3,0.2,0.4,0.4,0.5l-0.1,0.1l-0.1,0.2v0.1c0,0.1,0,0.3,0.1,0.4c0.1,0.2,0.1,0.5,0,0.7l0.1,0.3l0.3,0.3l0.2,0.1l0.4,0.1
			c0.3,0.1,0.5,0.1,0.8,0.1c0.5,0.1,0.9,0.1,1.4-0.1l0.2-0.3c0-0.1,0-0.2-0.1-0.2c0-0.1-0.1-0.3-0.1-0.4c0-0.3,0-0.6,0-1v-0.3v-0.1
			c-0.1-0.3-0.3-0.7-0.4-1c-0.4-0.9-0.8-1.7-1.1-2.6l0,0L16,61.6c-0.1-0.2-0.1-0.4-0.2-0.6c-0.1-0.2-0.2-0.4-0.2-0.6
			c-0.1-0.2-0.2-0.4-0.2-0.6c-0.1-0.3-0.2-0.6-0.3-0.9h0.1c0.1,0,0.1-0.1,0.2-0.1c0.2-0.1,0.4-0.1,0.6-0.2c0.2-0.1,0.4-0.1,0.7-0.2
			l0.2-0.1c0.2-0.2,0.4-0.4,0.7-0.4c0.2,0,0.5-0.1,0.7-0.1l0.2-0.2c0.1-0.2,0.1-0.4,0.1-0.7C18.4,56.6,18.3,56.2,18.1,55.8
			L18.1,55.8z M8.7,56.1c0-0.2,0.1-0.3,0.1-0.5l0.2-2c0.2-0.4,0.2-0.8,0.2-1.1v-0.1c0-0.1,0-0.1,0-0.2c0-0.2,0.1-0.4,0.1-0.6
			c0.1-0.3,0.1-0.6,0.2-1c0.1-0.4,0.1-0.8,0.1-1.1l0.1,0.1L9.6,50c0,0.1,0.1,0.1,0.1,0.2c0,0.1,0.1,0.2,0.1,0.2
			c0,0.3,0.1,0.6,0.2,0.8c0,0.1,0.1,0.2,0.1,0.3s0.1,0.3,0.2,0.4c0.1,0.2,0.2,0.4,0.2,0.7c0,0.1,0,0.2,0.1,0.3V53l0,0v0.1v0.2
			c0,0.1,0.1,0.2,0.1,0.3s0,0.3,0.1,0.4c0,0.1,0,0.2,0,0.3s0,0.3,0.1,0.5l0.2,0.1v0.3l0.1,0.1c0,0.1,0,0.1,0,0.2
			c0,0.2,0.1,0.4,0.1,0.6c0,0.2,0.1,0.3,0.1,0.5v0.1c-0.1,0.1-0.1,0.2-0.1,0.4c-0.1,0-0.1,0.1-0.2,0.1H11h-0.2
			c-0.2,0.1-0.5,0.2-0.8,0.3s-0.7,0.2-1,0.4c-0.1,0-0.2,0.1-0.4,0.1c0,0-0.1,0-0.1,0.1c0-0.1,0-0.2,0-0.2c0-0.3,0.1-0.6,0.1-0.9
			C8.6,56.6,8.7,56.3,8.7,56.1z M9.6,49.5C9.6,49.5,9.7,49.5,9.6,49.5L9.6,49.5l0.1-0.1L9.6,49.5z"/>
		<path class="st0" d="M35.9,44.1c-0.2-0.1-0.5-0.3-0.7-0.4c-0.1-0.1-0.3-0.1-0.5-0.2c-0.1,0-0.2-0.1-0.3-0.1
			c-0.3-0.2-0.8-0.2-1.3,0.2L33,44.1v0.7c0,0.3,0,0.6,0,0.9c0,0.4-0.1,0.8-0.2,1.2c-0.1,0.4-0.1,0.8-0.2,1.2v0.2
			c-0.1,0.9-0.2,1.8-0.4,2.6c-0.1,0.3-0.1,0.7-0.2,1c0,0.2,0,0.4-0.1,0.5l-0.4,2.4c-0.1,0.5-0.2,1-0.2,1.5c-0.1,0.4-0.1,0.8-0.1,1.2
			c0,0.3-0.1,0.7-0.1,1c-0.1,1.1-0.3,2.1-0.4,3.2c-0.1,0.5-0.2,1-0.2,1.5c0-0.1-0.1-0.3-0.1-0.4c-0.1-0.4-0.2-0.8-0.3-1.1
			c-0.1-0.3-0.2-0.6-0.2-0.9c-0.1-0.3-0.2-0.7-0.3-1c-0.1-0.6-0.3-1.2-0.4-1.7s-0.2-0.9-0.3-1.4c-0.1-0.2-0.1-0.5-0.2-0.7
			c-0.1-0.3-0.1-0.5-0.2-0.8c-0.1-0.5-0.3-1.1-0.5-1.6c-0.1-0.3-0.2-0.6-0.3-0.9c-0.1-0.3-0.2-0.5-0.2-0.8c-0.1-0.3-0.2-0.7-0.3-1
			c0-0.1-0.1-0.3-0.1-0.4c-0.1-0.4-0.1-0.8-0.3-1.2c0-0.3-0.1-0.6-0.1-0.8c0-0.1-0.1-0.2-0.1-0.3c-0.1-0.4-0.3-0.7-0.8-1
			c-0.3-0.1-0.5-0.3-0.8-0.4c-0.4-0.3-0.9-0.4-1.5-0.2L23,46.9c0,0.1-0.1,0.2-0.1,0.5v0.1c0,0.3,0,0.5,0,0.7l-0.1,0.3
			c0,0.2,0,0.4-0.1,0.6c0,0.4-0.1,0.9-0.2,1.2c-0.2,0.7-0.2,1.4-0.3,2.1v0.4c-0.1,0.8-0.1,1.7-0.3,2.5c-0.1,0.4-0.1,0.8-0.1,1.3V57
			c0,0.2,0,0.4,0,0.6c0,0.2,0,0.3,0,0.5s0,0.3-0.1,0.5c0,0.2,0,0.4-0.1,0.6l-0.1,0.7c0,0.4-0.1,0.8-0.1,1.2c0,0.1,0,0.3-0.1,0.4
			l-0.1,0.3c-0.1,0.4-0.1,0.9-0.1,1.3c0,0.3,0,0.6-0.1,0.9v0.3c-0.1,1-0.3,1.9-0.4,2.9c-0.1,0.4-0.2,1.3,0.4,2c0,0,0,0.1,0.1,0.1
			l0.1,0.1l0.4,0.3l0.9,0.2l0.9-0.5l0.2-0.6c0-0.1,0.1-0.3,0.1-0.4v-1.5c0.2-0.5,0.2-1,0.2-1.4c0-0.1,0-0.2,0-0.4
			c0-0.1,0-0.2,0.1-0.4c0-0.2,0.1-0.5-0.1-0.7c0,0,0-0.1,0-0.2v-0.1c0-0.1,0-0.3,0.1-0.4c0-0.2,0.1-0.3,0.1-0.5c0-0.1,0-0.3,0-0.4
			c0-0.2,0-0.3,0-0.4c0.1-0.2,0.1-0.5,0-0.5c0-0.1,0-0.1,0-0.2l0.1-0.3c0-0.1,0-0.2,0.1-0.4c0-0.1,0-0.2,0-0.3v-0.1l0.4-2.7
			l-0.5-0.6c0.2,0.1,0.2,0.3,0.2,0.3v-0.1c0-0.1,0-0.1,0.1-0.2c0.1-0.3,0.3-0.8,0.1-1.4c0.1-0.3,0.2-0.7,0.3-1.1
			c0.1,0.5,0.3,1,0.4,1.4c0.1,0.5,0.3,1.1,0.4,1.6c0.1,0.6,0.3,1.2,0.4,1.8c0.2,1,0.5,1.9,0.7,2.9c0.1,0.2,0.1,0.5,0.2,0.7
			c0.1,0.4,0.2,0.8,0.3,1.2c0.1,0.3,0.1,0.6,0.2,0.9l0.1,0.4c0.1,0.4,0.2,0.7,0.3,1.1c0.1,0.3,0.2,0.7,0.3,1l0.7,2.3l0.5,0.5
			c0.1,0,0.2,0.1,0.3,0.2c0.2,0.2,0.6,0.4,1.1,0.4l0,0c0.3,0.1,0.7,0.3,0.9,0.3l0.7-0.5c0-0.1,0-0.1,0.1-0.2c0-0.1,0-0.2,0.1-0.2
			c0.4-0.7,0.6-1.5,0.8-2.3c0-0.1,0-0.2,0-0.3c0.1-0.5,0.2-1,0.1-1.6c0-0.1,0-0.2,0-0.3l0.1-0.3c0.1-0.1,0.1-0.2,0.2-0.4
			c0.1-0.3,0.1-0.7,0.2-1c0-0.2,0.1-0.4,0.1-0.6l0.1-0.4c0-0.2,0.1-0.4,0.1-0.6c0.1-0.3,0.1-0.7,0.1-1s0-0.5,0.1-0.7
			c0.1-0.3,0.1-0.5,0.1-0.7s0-0.3,0-0.5c0.1-0.4,0.1-0.8,0.2-1.1V58l-0.1-0.5l-0.1-0.1c0-0.1,0.1-0.3,0.1-0.4
			c0.1-0.3,0.1-0.5,0.2-0.6c0.3-0.5,0.3-0.8,0.1-1.2h-0.1v-0.1l0.4-0.5l0.4-2.4L35.6,52l0.2-1l-0.3-0.4h0.3c0.1-0.3,0.1-0.6,0.1-0.8
			l0.2-0.1c0-0.1,0.2-0.5-0.1-0.9c-0.1-0.1-0.1-0.1-0.2-0.2v-0.1c0-0.4,0-0.7,0.1-1.1v-0.1c0.4-0.3,0.5-0.7,0.6-0.9v-0.1
			c0-0.1,0.1-0.2,0.1-0.4c0.1-0.3,0.2-0.5,0.2-0.7v-0.1l-0.3-0.7L35.9,44.1z M35.4,48.6L35.4,48.6L35.4,48.6L35.4,48.6z M35.5,48.4
			v-0.2C35.6,48.3,35.6,48.4,35.5,48.4C35.6,48.5,35.5,48.5,35.5,48.4z"/>
		<path class="st0" d="M55.3,55.2c0-0.5-0.1-1.1-0.2-1.6v-0.3c0-0.2-0.1-0.5-0.2-0.7l-0.1-0.4c-0.2-0.5-0.4-1.1-0.6-1.6
			c-0.3-0.7-0.6-1.4-1-2c-0.7-1-1.7-1.6-2.6-2.2c-0.5-0.3-1-0.5-1.5-0.8c-0.4-0.2-0.7-0.3-1.1-0.5c-2.1-1.1-3.9-0.4-5.1,0.3
			c-0.2,0.1-0.3,0.2-0.4,0.3l-1,1c-0.5-0.2-1-0.4-1.5-0.5c-0.6-0.2-1.1-0.1-1.6,0.4l-0.2,0.5v0.1c0,0.1,0,0.3,0.1,0.4l0.2,1.4
			c0.1,0.9,0.3,1.8,0.4,2.7c0,0.3,0.1,0.6,0.1,0.9c0,0.5,0.1,1.1,0.2,1.6c0.1,0.5,0.2,1.1,0.2,1.7c0.1,0.7,0.1,1.4,0.4,2.2
			c0.2,0.7,0.3,1.5,0.4,2.2c0,0.3,0.1,0.5,0.1,0.8l0.1,0.6c0.2,1.6,0.5,3.2,0.4,4.7c0,0.2,0,0.4,0,0.6c-0.1,1.1,0,2,1.7,2.2
			c0.1,0,0.3,0,0.5,0c0.5,0,1.1-0.1,1.5-0.1c1.7-0.3,4.8-1.2,5.7-2.7c0-0.1,0.1-0.1,0.1-0.2l1.5-1.3l0.2-0.4l0,0
			c0.1-0.1,0.2-0.2,0.3-0.2c0.1-0.1,0.2-0.2,0.3-0.3l0.2-0.2c0.1-0.1,0.3-0.2,0.4-0.4c0.1-0.2,0.2-0.5,0.4-0.7
			c0.1-0.2,0.2-0.5,0.4-0.7c0.1-0.1,0.2-0.2,0.2-0.4c0.2-0.3,0.4-0.6,0.5-1c0.1-0.2,0.1-0.5,0.2-0.7c0.1-0.3,0.2-0.6,0.3-1
			c0.2-0.6,0.2-1.2,0.3-1.8v-0.2C55.3,56.3,55.3,55.7,55.3,55.2z M46.3,66.2c-0.1,0.1-0.2,0.1-0.2,0.2c-0.3-0.4-0.7-0.7-1-0.9
			c-0.1-0.1-0.2-0.2-0.3-0.2l-0.2-2.8l-0.1-0.4c-0.2-0.3-0.3-0.7-0.3-1.2c0-0.4,0-0.6-0.2-0.9c0.2-0.4,0.2-1-0.3-1.6
			c0-0.1,0-0.3,0-0.4c0-0.2,0-0.4,0-0.5l-0.1-0.8l-0.3-0.1v-0.4l0.1-0.1l-0.7-6.5l0.1-0.1c0.5-0.6,1-1.3,1.8-1.6
			c0.2-0.1,0.3-0.1,0.5-0.2c0.1-0.1,0.2-0.1,0.3-0.1c0.7-0.2,1.2-0.2,1.7,0.2c0.2,0.2,0.5,0.3,0.7,0.3c0.1,0,0.2,0.1,0.3,0.1
			c1.3,0.7,2.2,1.8,2.6,3.4c0.1,0.3,0.2,0.6,0.3,0.9c0.1,0.2,0.2,0.5,0.3,0.8c0.3,1.2,0.3,2.4,0.3,3.4c-0.1,1.1-0.2,2.1-0.5,3
			c-0.2,0.6-0.4,1.2-0.8,1.8c-0.1,0.2-0.3,0.4-0.4,0.6c-0.1,0.1-0.2,0.3-0.3,0.4l-0.1,0.2c-0.4,0.6-0.9,1.2-1.3,1.7
			C47.7,64.9,47.1,65.6,46.3,66.2z"/>
	</g>
	<g>
		<path class="st1" d="M65.2,63.9c0.1,0.4,0.1,0.9,0.3,1.3c0.1,0.4,0.2,0.8,0.2,1.2c0,0.2,0.1,0.5,0.1,0.7c0.1,0.4,0.3,0.7,0.7,0.9
			c0.5,0.3,1.1,0.2,1.5,0.2c0.3,0,0.5-0.1,0.6-0.2c0,0,0.1,0,0.1-0.1l0.3-0.2c0.3-0.4,0.3-0.9,0.1-1.3c0-0.1-0.1-0.2,0-0.4
			c0.1-0.2,0.1-0.5,0.1-0.7s0-0.3,0-0.5l0.3-0.6v-0.4h-0.2c0-0.1,0.1-0.2,0.1-0.4c0-0.3,0-0.7,0-1v-0.5c0-0.3,0.1-0.6,0.1-0.9
			l0.1-0.3c0.1-0.4,0.2-0.8,0.1-1.2c0-0.4,0-0.7,0-1.1c0-0.2,0-0.4,0-0.5s0-0.3,0-0.5c-0.1-0.3,0-0.6,0.1-1l0,0l0.1-0.1l0.1-0.7
			c0-0.1,0-0.1,0-0.1c0.1-0.2,0.1-0.4,0.1-0.5v-0.5c0-0.4,0.1-0.8,0.1-1.2l0,0l0.1,0.4c0.2,1,0.5,2.1,0.6,3.3c0,0.5,0.1,0.9,0.1,1.3
			c0.1,0.7,0.2,1.4,0.3,2c0.1,0.3,0.1,0.6,0.2,0.8l0.2,0.8c0.1,0.3,0.1,0.6,0.2,0.8s0.1,0.4,0.1,0.7c0,0.4,0,0.8,0.2,1.3v0.4
			c0,0.4,0.1,0.8,0.1,1.2c0.1,0.6,0.2,1.2,0.2,1.8v0.3c0,0.1,0.1,0.3,0.1,0.4l0.5,0.5l0.3,0.1c0.2,0,0.4,0.1,0.6,0.2
			s0.5,0.2,0.8,0.1l0.9,0.2l0.9-0.7c0-0.1,0-0.1,0-0.2c0-0.2,0-0.4,0-0.6c0,0,0-0.1,0.1-0.3l0.2-0.4l-0.3-0.4c0-0.1,0.1-0.3,0-0.5
			c0,0,0,0,0-0.1c0.1-0.2,0.2-0.4,0.3-0.6L77,66l0.5,0.2l0.3-0.4l0.1-0.4v-0.2c0-0.1,0-0.2,0-0.3c0.1-0.1,0.2-0.4,0.2-0.7
			c0,0,0,0,0-0.1s0.1-0.2,0.1-0.3c0.1-0.3,0.1-0.6,0.2-0.9c0-0.2,0-0.4,0.1-0.6c0-0.3-0.1-0.5-0.2-0.6H78c0-0.1,0-0.2,0.1-0.3
			l0.1-0.2c0.1-0.3,0.1-0.5,0.2-0.8l0.1,0.1c0.5-0.2,0.8-0.6,0.8-1.2h-0.1c0,0.1-0.1,0.2-0.1,0.2v-0.2l0,0v-0.1l0,0V59l0,0
			c0,0.1,0.1,0.2,0.1,0.3c0.3-0.4,0.3-0.8,0.3-1l0,0l0.3-0.6c0-0.2,0-0.4,0.1-0.6c0.1-0.4,0.2-0.8,0.3-1.2l0.1-0.4
			c0-0.2,0.1-0.5,0.1-0.7c0-0.3,0.1-0.5,0.2-0.8s0.1-0.5,0.2-0.8s0.1-0.6,0.2-0.9c0.1-0.4,0.1-0.8,0.2-1.2l0.1-0.8
			c0-0.2,0.1-0.4,0.1-0.6c0.1-0.3,0.2-0.6,0.2-1c0.1-0.4,0.2-0.7,0.3-1.1c0.1-0.6,0.2-1.2,0.4-1.8c0-0.1,0-0.3,0.1-0.5
			c0-0.2,0-0.3,0.1-0.5s0.1-0.5,0.2-0.7c0.1-0.3,0.1-0.6,0.2-0.9c0.1-0.5,0.2-0.9,0.2-1.4l0.1-0.6l-0.3-0.7
			c-0.7-0.5-1.4-0.7-2.1-0.9l-0.4-0.1h-0.5c-0.6,0.3-0.9,0.5-0.8,1.3c0,0.2,0,0.4,0,0.6c-0.1,0.6-0.2,1.1-0.3,1.7l-0.2,1.1
			c-0.1,0.5-0.2,0.9-0.3,1.4c-0.1,0.5-0.2,1-0.3,1.4c-0.1,0.4-0.2,0.9-0.3,1.3c-0.1,0.5-0.2,1.1-0.3,1.6l-0.3,1.5
			c-0.1,0.5-0.2,1.1-0.3,1.6c-0.1,0.4-0.1,0.8-0.2,1.1s-0.1,0.6-0.2,1c-0.1,0.3-0.1,0.6-0.2,0.8l-0.5,2.4c-0.2,0.5-0.3,0.9-0.3,1.3
			v0.1v0.1c0,0.1-0.1,0.3-0.1,0.4c0-0.1-0.1-0.2-0.1-0.3c-0.1-0.2-0.1-0.4-0.1-0.5c0-0.2,0-0.4-0.1-0.6l-0.1-0.4c0,0,0-0.1,0-0.2
			c0-0.2,0-0.4-0.1-0.6v-0.1c0-0.2,0.1-0.4,0-0.7l-0.5,0.1v-0.1l0,0h0.1c0-0.1,0-0.2,0-0.4s0-0.4-0.1-0.6l-0.1-0.6
			c0.1-0.4,0.1-0.8,0-1c-0.1-0.1-0.1-0.3-0.1-0.5S74,53.4,74,53.2s-0.1-0.4-0.1-0.6l-0.2-0.8c-0.1-0.4-0.2-0.7-0.3-1.1v-0.2
			c-0.2-0.7-0.3-1.5-0.8-2.2l0,0l-0.1-0.1v-0.1l-0.1-0.3c-0.1-0.5-0.2-0.9-0.2-1.4c0-0.3-0.1-0.5-0.2-0.6l0.1-0.4c0-0.1,0-0.4,0-0.6
			c0-0.2,0-0.3,0.1-0.5l-0.1-0.7l-0.3-0.4l-0.4-0.3L71,42.8c-0.3-0.1-0.5-0.2-0.8-0.2c-0.5-0.1-1-0.2-1.6,0l-0.5,0.7v0.3
			c0,0.1,0,0.2,0,0.3c0,0.3,0,0.7-0.1,1v0.3c0,0.3,0,0.6-0.1,0.9v0.2c0,0.2,0,0.4-0.1,0.6c-0.1,0.3-0.1,0.6-0.1,0.9
			c0,0.1,0,0.2,0,0.3c0,0.3-0.1,0.6-0.1,0.9c-0.1,0.6-0.2,1.2-0.2,1.9c0,0.4-0.1,0.8-0.1,1.2l-0.2,2.2c0,0.3-0.1,0.6-0.1,0.9
			c0,0.2,0,0.4,0,0.6c0,0.2,0,0.4,0,0.6c0,0.2,0,0.4-0.1,0.6v0.1c0-0.2,0-0.4,0-0.5c0-0.2,0-0.4,0-0.6c0-0.2-0.1-0.3-0.1-0.5
			c-0.1-0.3-0.1-0.6-0.1-0.8c0-0.3,0-0.5-0.1-0.8c0-0.3-0.1-0.6,0-0.9l-0.1-0.4c-0.2-0.4-0.2-0.5-0.2-0.6l-0.1-0.6
			c0,0,0-0.1-0.1-0.1c0-0.2-0.1-0.5-0.1-0.7c0-0.4-0.1-0.7-0.2-1.1c0-0.2,0-0.4,0-0.6c0-0.4,0-0.8-0.2-1.3v-0.1
			c0.1-1.1,0-1.5-0.4-2.6c-0.1-0.3-0.3-0.5-0.5-0.7c-0.2-0.1-0.5-0.2-0.8-0.3c-0.2-0.1-0.6-0.2-1.1,0l-0.4,0.8v0.1
			c0,0.1,0,0.3,0.1,0.5c0.2,0.6,0.3,1.2,0.3,2c0,0.3,0,0.6,0.1,0.9v0.3c0,0.3,0,0.5,0.1,0.8c0,0.2,0.1,0.3,0.1,0.5s0.1,0.3,0.1,0.5
			l0.2,1c0.1,0.4,0.1,0.8,0.2,1.1c0,0.2,0.1,0.5,0.1,0.7c0.1,0.4,0.1,0.7,0.2,1.1c0.1,0.6,0.1,1.1,0.1,1.7v0.5c0,0.2,0,0.3,0,0.5
			c0,0.3,0,0.6,0.1,0.9c0.1,0.7,0.2,1.4,0.3,2.1l0.1,0.9c0,0.3,0.1,0.6,0.1,0.9c0.1,0.6,0.2,1.3,0.4,1.9L65.2,63.9z"/>
		<path class="st1" d="M110.6,40.6l-0.3-0.2c-0.3-0.2-0.5-0.3-0.8-0.4c-0.2-0.1-0.3-0.1-0.5-0.2c-0.1,0-0.2-0.1-0.3-0.1
			c-0.3-0.2-0.8-0.3-1.3,0.2l-0.2,0.5v0.7c0,0.3,0,0.6,0,0.9c0,0.4-0.1,0.8-0.2,1.3c-0.1,0.4-0.1,0.8-0.2,1.2v0.2
			c-0.1,1-0.2,1.9-0.4,2.8c-0.1,0.4-0.1,0.7-0.2,1.1c0,0.2-0.1,0.4-0.1,0.6l-0.4,2.6c-0.1,0.5-0.2,1-0.2,1.5
			c-0.1,0.4-0.1,0.8-0.1,1.3c0,0.4-0.1,0.7-0.1,1.1c-0.1,1.1-0.3,2.3-0.4,3.4c-0.1,0.6-0.2,1.1-0.3,1.7v0.1
			c-0.1-0.2-0.1-0.4-0.2-0.7c-0.1-0.4-0.2-0.8-0.3-1.2c-0.1-0.3-0.2-0.6-0.3-0.9c-0.1-0.4-0.2-0.7-0.3-1.1c-0.1-0.6-0.3-1.2-0.4-1.8
			c-0.1-0.5-0.2-1-0.3-1.5c-0.1-0.2-0.1-0.5-0.2-0.7c-0.1-0.3-0.2-0.5-0.2-0.8c-0.1-0.6-0.3-1.1-0.5-1.6c-0.1-0.3-0.2-0.7-0.3-1
			c-0.1-0.3-0.2-0.6-0.2-0.8c-0.1-0.4-0.2-0.7-0.3-1.1c0-0.2-0.1-0.3-0.1-0.5c-0.1-0.4-0.1-0.8-0.3-1.3c0-0.3-0.1-0.6-0.1-0.9
			c0-0.1-0.1-0.2-0.1-0.4c-0.1-0.4-0.3-0.7-0.8-1c-0.3-0.2-0.5-0.3-0.8-0.5c-0.4-0.3-1-0.4-1.6-0.3l-0.5,0.5c0,0.1-0.1,0.2-0.1,0.5
			V44c0,0.3,0,0.6-0.1,0.8l-0.1,0.1c0,0.2-0.1,0.4-0.1,0.6c0,0.5-0.1,0.9-0.2,1.3C96,47.6,96,48.3,95.9,49v0.4
			c-0.1,0.9-0.2,1.8-0.3,2.6c-0.1,0.4-0.1,0.9-0.2,1.3v0.4c0,0.2,0,0.4,0,0.6c0,0.2,0,0.4,0,0.5s0,0.4-0.1,0.5c0,0.2,0,0.4-0.1,0.6
			l-0.1,0.9c0,0.4-0.1,0.8-0.1,1.2c0,0.1,0,0.3-0.1,0.4l-0.1,0.3c-0.1,0.5-0.1,0.9-0.1,1.3c0,0.3,0,0.7-0.1,1l-0.1,0.4
			c-0.1,1-0.3,2-0.5,3c-0.1,0.4-0.2,1.4,0.4,2.1c0,0,0,0.1,0.1,0.1l0.1,0.1L95,67l1,0.2l0.9-0.5l0.2-0.7c0-0.1,0.1-0.3,0.1-0.4v-1.7
			c0.1-0.4,0.2-0.9,0.2-1.4c0-0.1,0-0.3,0-0.4c0-0.1,0-0.2,0.1-0.4c0-0.2,0.1-0.5-0.1-0.8c0,0,0-0.1,0-0.2v-0.1c0-0.2,0-0.3,0.1-0.5
			c0-0.2,0.1-0.4,0.1-0.5s0-0.3,0-0.4c0-0.2,0-0.3,0-0.4c0.1-0.2,0.1-0.5,0-0.5c0-0.1,0-0.1,0-0.2l0.1-0.3c0-0.1,0-0.3,0.1-0.4
			c0-0.1,0-0.2,0-0.3V57l0.4-2.9l-0.3-0.2c0.1,0.1,0.2,0.3,0.2,0.3v-0.1c0-0.1,0.1-0.1,0.1-0.2c0.1-0.3,0.3-0.9,0.1-1.5
			c0.2-0.4,0.3-0.9,0.3-1.3c0.2,0.6,0.3,1.1,0.4,1.7c0.1,0.6,0.3,1.1,0.4,1.7c0.1,0.6,0.3,1.2,0.4,1.9c0.3,1,0.5,2.1,0.8,3.1
			c0.1,0.2,0.1,0.5,0.2,0.7c0.1,0.4,0.2,0.8,0.3,1.2c0.1,0.3,0.1,0.6,0.2,0.9l0.1,0.4c0.1,0.4,0.2,0.8,0.3,1.2
			c0.1,0.3,0.2,0.7,0.3,1l0.8,2.4l0.5,0.5c0.1,0,0.2,0.1,0.3,0.2c0.3,0.2,0.6,0.5,1.1,0.5h0.1c0.3,0.2,0.7,0.3,1,0.3l0.7-0.5
			c0-0.1,0-0.1,0.1-0.2c0-0.1,0-0.2,0.1-0.2c0.5-0.8,0.6-1.6,0.8-2.5c0-0.1,0-0.2,0-0.3c0.1-0.5,0.2-1.1,0.1-1.7c0-0.1,0-0.3,0-0.3
			l0.1-0.4c0.1-0.1,0.1-0.2,0.2-0.4c0.1-0.3,0.2-0.7,0.2-1c0-0.2,0.1-0.4,0.1-0.6c0-0.1,0-0.3,0.1-0.4c0-0.2,0.1-0.4,0.1-0.6
			c0.1-0.4,0.1-0.7,0.1-1s0-0.5,0.1-0.8s0.1-0.5,0.1-0.8c0-0.2,0-0.4,0.1-0.5c0.1-0.4,0.1-0.8,0.2-1.2V55c0-0.3-0.1-0.4-0.1-0.5
			l-0.1-0.1c0-0.2,0.1-0.3,0.1-0.5c0.1-0.3,0.1-0.5,0.2-0.7c0.4-0.5,0.2-1,0.1-1.2h-0.1c0,0,0-0.1,0-0.2l0.4-0.5l0.4-2.6l-0.1-0.3
			l0.2-1l-0.3-0.5h0.4c0.1-0.4,0.1-0.6,0.1-0.8l0.2-0.1c0-0.1,0.2-0.5-0.1-0.9c-0.1-0.1-0.1-0.1-0.2-0.2v-0.1c0-0.4,0-0.8,0.1-1.2
			v-0.1c0.4-0.3,0.5-0.7,0.6-1c0-0.1,0-0.1,0-0.2c0-0.1,0.1-0.2,0.1-0.4c0.1-0.3,0.2-0.5,0.2-0.7v-0.1L110.6,40.6z M109.8,45.2
			L109.8,45.2C109.8,45.1,109.8,45.1,109.8,45.2L109.8,45.2z M109.8,45v-0.2C109.9,44.9,109.9,45,109.8,45
			C109.9,45,109.9,45,109.8,45z"/>
		<path class="st1" d="M85.6,42.5c0,0.4,0,0.8,0,1.2c0,1.1,0,2.3,0.2,3.5c0,0.3,0.1,0.6,0.1,0.9c0,0.2,0,0.3,0,0.5l0.1,0.9
			c0,0.6,0.1,1.2,0.1,1.8c0,0.3,0,0.6,0,1c0,0.3,0,0.6,0,0.9c0,0.8,0.1,1.6,0.2,2.5c0.1,0.8,0.1,1.6,0.2,2.3l0.1,0.8
			c0,0.1,0,0.1,0,0.1l0.1,0.5c0,0.4,0.1,0.8,0.1,1.2c0,0.5,0.1,0.9,0.1,1.4c0,0.6,0.1,1.1,0.1,1.7c0,0.3,0.1,0.6,0.1,0.9
			c0.1,0.7,0.2,1.4,0.1,2.1c0,0.2,0.1,0.4,0.2,0.6l1,0.4c-0.1,0.1-0.3,0-0.4-0.1c0.5,0.5,0.9,0.6,1.2,0.5l0.7,0.3l0.9-0.3l0.2-0.2
			l0.1-0.4v-0.3c0-0.2,0-0.3,0-0.5L91,66.3c-0.1-0.6-0.2-1.1-0.1-1.6c0-0.4,0-0.7-0.1-1c-0.1-0.2-0.1-0.5-0.1-0.8
			c0-0.2,0-0.4-0.1-0.7c0-0.3-0.1-0.6-0.1-0.9c0-0.2,0-0.5,0-0.7c0-0.5-0.1-1.1-0.2-1.6l-0.1-0.5c0-0.1,0-0.2,0-0.2v-0.1l-0.3-4.8
			c0.1-0.5,0.1-1-0.1-1.4v-0.5l0,0c0-0.1,0.1-0.2,0.1-0.4c0-0.3,0-0.6,0-0.9V50c0-0.5-0.1-1.1-0.1-1.6c0-0.1,0-0.2-0.1-0.4v-0.1
			h-0.2c0-0.1-0.1-0.3-0.2-0.5l0.1-0.2c0-0.1,0-0.3,0-0.4c0-0.4,0-0.8-0.3-1.3L89,45.3l-0.1-0.1c0-0.1,0-0.2,0-0.3
			c0-0.2,0-0.5,0.1-0.6l-0.1-0.7l0,0c0.1-1.1-0.3-1.9-1.3-2.3c-0.1,0-0.2-0.1-0.3-0.1L87,41c-0.6-0.2-1,0-1.2,0.2l-0.2,0.7
			c0,0.1,0,0.2,0,0.3C85.6,42.3,85.6,42.3,85.6,42.5z"/>
		<path class="st1" d="M107.9,70.4c-0.2,0-0.3,0-0.5,0c-0.1,0-0.2,0-0.3,0c-0.2,0-0.4,0-0.7,0c-0.1,0-0.3,0-0.4,0
			c-0.2,0-0.5,0-0.7-0.1c-0.2,0-0.5,0-0.7,0s-0.3,0-0.5,0s-0.3,0-0.5,0c-0.5,0-0.9,0-1.4,0c-0.4,0.1-0.7,0.1-1.1,0.1h-0.3
			c-1.5,0-3,0-4.6,0c-0.6,0-1.2,0-1.7,0h-1.1c-0.3,0-0.5,0-0.8,0c-0.2,0-0.3,0-0.5,0s-0.5,0-0.7,0s-0.4,0-0.6,0s-0.4,0-0.6,0
			s-0.4,0-0.6,0c-0.3,0-0.5,0-0.8,0s-0.6,0-1,0c-0.3,0-0.5,0-0.8,0c-0.4,0-0.9,0-1.3,0h-0.9h-0.2c-0.8,0-1.5,0-2.3,0
			c-0.5,0-0.9,0-1.4,0l-3.2,0.1c-0.2,0-0.4,0-0.5,0s-0.2,0-0.3,0c-0.1,0-0.2,0-0.2,0c-0.6,0-1.2,0-1.8,0c-0.5,0-1,0-1.5,0l-1.9,0.1
			c-0.2,0-0.5,0-0.7,0c-0.4,0-0.8,0.1-1.1,0.1c-0.1,0-0.2,0-0.3,0c-0.3,0-0.6,0-1,0.1c-0.1,0-0.1,0-0.1,0c-0.4-0.1-0.8-0.1-1.1,0H67
			c-0.3,0-0.5,0-0.7-0.1s-0.3-0.1-0.5-0.1L65.1,71l-0.2,0.3V72c0.3,0.4,0.6,0.6,1.1,0.7h0.1c0.2,0,0.5,0.1,0.8,0c0.3,0,0.5,0,0.8,0
			c0.2,0,0.3,0,0.5,0c0.1,0,0.2,0,0.4,0h0.2c0.1,0,0.2,0,0.3,0c0.2,0,0.4,0,0.6,0c0.4,0,0.9,0,1.4-0.1c0.5,0.3,0.9,0.3,1.3,0.3
			s0.7,0,1.1-0.1c0.2,0,0.5,0,0.7,0h1.6c0.2,0,0.5,0,0.7,0c0.1,0,0.3,0,0.4-0.1c0.1,0,0.2,0,0.2,0c1.1,0,2.3,0,3.4,0
			c0.3,0,0.6,0,0.8,0c0.3,0,0.6,0,0.9,0c0.4,0,0.8,0,1.2,0h0.7c0.1,0,0.2,0,0.3,0c0.2,0,0.5,0,0.8,0c0.2,0,0.3,0,0.5,0
			c0.1,0,0.2,0,0.3,0h0.1h2.2h0.6c0.1,0,0.2,0,0.3,0c0.1,0,0.3,0,0.4,0H90c0.1,0,0.2,0,0.3,0c0.2,0,0.4,0,0.7,0h0.4
			c0.3,0,0.5,0,0.8,0c0.2,0,0.4,0,0.5,0s0.2,0,0.3,0c0.5,0,1.1,0.1,1.6,0.2c0.2,0,0.3,0,0.5-0.1c0.2,0,0.4,0,0.6,0
			c0.1,0,0.2,0,0.2,0c0.1,0,0.2,0,0.4,0h0.1c0.1,0,0.2,0.1,0.3,0.1h0.1c0.2,0.1,0.6,0.2,1,0c0,0,0,0,0.1,0s0.3,0,0.4,0h0.2
			c0.2,0,0.4,0,0.4,0l0.2-0.4l0.4,0.3c-0.1,0-0.2,0-0.3,0c0.2,0.1,0.4,0.1,0.5,0.1c0,0,0.1,0,0,0h0.1l0.1,0.3h0.3l0.3-0.2l0,0h0.1
			l0,0c0.2,0.1,0.7,0.3,1.2,0.1c0,0,0,0,0.1,0c0.5,0.2,0.8,0,1-0.1h0.1c0.2,0,0.3-0.1,0.5-0.2V73l0.6,0.1c0.3,0,0.5,0.1,0.8,0.1
			c0.2,0,0.4,0,0.6,0s0.5,0,0.7,0h0.1c0.3,0,0.7,0.1,1.2,0c0.1,0,0.2,0,0.2,0c0.2,0.1,0.4,0.2,0.5,0.2h0.1l0.8-0.7
			c0-0.6-0.2-1.2-0.5-1.6C108.6,70.7,108.3,70.4,107.9,70.4z M99.6,72.7L99.6,72.7l-0.1-0.4h0.1l0.2,0.3
			C99.8,72.6,99.7,72.6,99.6,72.7z M103.1,72.5L103.1,72.5L103.1,72.5L103.1,72.5z M103.6,72.6c-0.2,0.1-0.4,0-0.5-0.1l0.6-0.4
			L103.6,72.6z"/>
	</g>
	<g>
		<path class="st0" d="M151.7,69.9c-0.2-0.1-0.4-1.4-0.4-1.6c0-0.3,0.1-0.6-0.1-0.9v-0.1c0.1-0.7-0.1-1.4-0.1-2.1c0-0.1,0-0.2,0-0.3
			c0.1-0.2,0.2-0.5,0.2-0.7c0-0.4,0.2-0.7,0.3-1.1c0.1-0.3,0.2-0.7,0.2-1.1c0-0.5,0-1,0.1-1.5c0-0.2,0-0.4-0.2-0.5
			c-0.1-0.1-0.2-0.1-0.3-0.2c-0.2,0-0.4-0.1-0.6-0.1c-0.2,0-0.3,0.1-0.3,0.3c0,0.1,0,0.3,0,0.4c-0.1,0.6-0.2,1.2-0.2,1.8h-0.1
			c-0.5-0.3-1.1-0.5-1.7-0.6c-0.3,0-0.5,0-0.8,0s-0.6,0.2-0.9,0.2c-0.2,0.1-0.4,0.2-0.5,0.4c-0.2,0.5-0.5,1-0.7,1.5
			c-0.1,0.3-0.2,0.5-0.3,0.8s0,0.6-0.3,0.8l0,0c-0.1,0.5-0.2,1-0.2,1.5c0,0.2,0,0.4,0.1,0.6c0.1,0.4,0.1,0.7,0.1,1.1
			c0,0,0,0.1-0.1,0.1l0,0c0,0.4,0.1,0.9,0.1,1.3c0,0.1,0,0.1,0,0.2c0.1,0.2,0.2,0.4,0.2,0.6c0.1,0.3,0.2,0.6,0.5,0.9
			c0.2,0.1,0.5,0.3,0.8,0.2c0.4,0,0.7-0.1,0.9-0.4c0.1-0.1,0.2-0.2,0.3-0.4c0.1-0.1,0.2-0.2,0.3-0.3c0.3-0.2,0.4-0.5,0.6-0.8
			c0.3-0.5,0.5-1,0.8-1.5c0.1-0.2,0.2-0.4,0.3-0.6l0.1-0.1h0.1c0.2,0.1,0.1,0.5,0.2,0.7c0.1,0.3,0.1,0.7,0.2,1
			c0.1,0.3,0.2,0.5,0.2,0.8c0,0.1,0.1,0.2,0.1,0.3c0.1,0.2,0.2,0.3,0.2,0.5c0.3,0.8,0.7,0.4,1-0.1c0.1-0.2,0.3-0.4,0.2-0.6
			C152,70,151.8,70,151.7,69.9z M151.4,62c0-0.1,0-0.1,0-0.2C151.5,61.9,151.5,61.9,151.4,62z M151.4,62c0,0.3,0,0.6,0,0.9
			c-0.1-0.1-0.1-0.1-0.1-0.1C151.3,62.5,151.3,62.2,151.4,62z M151.1,63.6L151.1,63.6L151.1,63.6L151.1,63.6z M146.4,64.9
			L146.4,64.9L146.4,64.9L146.4,64.9z M146.2,65.7c0-0.1,0-0.1,0-0.2C146.3,65.6,146.2,65.7,146.2,65.7z M146.2,65.7
			c0,0.1,0,0.1,0,0.2C146.1,65.8,146.1,65.8,146.2,65.7z M146,66.3L146,66.3C146,66.4,146,66.3,146,66.3L146,66.3z M147.3,70.6
			L147.3,70.6L147.3,70.6L147.3,70.6z M149.9,64.2c-0.1,0.3-0.2,0.6-0.3,0.9c-0.2,0.4-0.3,0.9-0.5,1.3c-0.2,0.5-0.5,0.9-0.8,1.3
			c-0.5,0.7-1,1.4-1.5,2.1c-0.1,0.2-0.3,0.3-0.4,0.5c-0.2,0-0.2-0.1-0.3-0.2c-0.1-0.3-0.1-0.5-0.1-0.8c0,0,0-0.1,0.1-0.2l0,0
			c0-0.1-0.1-0.2,0-0.2c0.1-0.3,0-0.6,0-0.9c0-0.6,0.1-1.1,0.2-1.7c0.1-0.5,0.2-1,0.4-1.5c0-0.1,0.1-0.2,0.1-0.3
			c0.2-0.3,0.3-0.6,0.4-0.9c0.2-0.4,0.4-0.9,0.6-1.2c0.4-0.2,0.8-0.3,1.3-0.2c0,0.1,0,0.1,0,0.2c0.1,0,0.1,0,0.2,0.1
			c0,0,0,0.1,0.1,0.2c0.1,0.2,0.2,0.4,0.5,0.4c0.1,0,0.2,0.1,0.2,0.2C150.1,63.5,150,63.8,149.9,64.2z M151.1,67L151.1,67
			c0-0.1,0-0.2,0-0.3C151.2,66.9,151.1,66.9,151.1,67z"/>
		<path class="st0" d="M127.1,69c-0.2-0.1-0.4-1.4-0.4-1.6c0-0.3,0.1-0.6-0.1-0.9v-0.1c0.1-0.7-0.1-1.4-0.1-2.1c0-0.1,0-0.2,0-0.3
			c0.1-0.2,0.2-0.5,0.2-0.7c0-0.4,0.2-0.7,0.3-1.1c0.1-0.3,0.2-0.7,0.2-1.1c0-0.5,0-1,0.1-1.5c0-0.2,0-0.4-0.2-0.5
			c-0.1-0.1-0.2-0.1-0.3-0.2c-0.2,0-0.4-0.1-0.6-0.1s-0.3,0.1-0.3,0.3c0,0.1,0,0.3,0,0.4c-0.1,0.6-0.2,1.2-0.2,1.8h-0.1
			c-0.5-0.3-1.1-0.5-1.7-0.6c-0.3,0-0.5,0-0.8,0s-0.6,0.2-0.9,0.2c-0.2,0.1-0.4,0.2-0.5,0.4c-0.2,0.5-0.5,1-0.7,1.5
			c-0.1,0.3-0.2,0.5-0.3,0.8c-0.1,0.3,0,0.6-0.3,0.8l0,0c-0.1,0.5-0.2,1-0.2,1.5c0,0.2,0,0.4,0.1,0.6c0.1,0.4,0.1,0.7,0.1,1.1
			c0,0,0,0.1-0.1,0.1l0,0c0,0.4,0.1,0.9,0.1,1.3c0,0.1,0,0.1,0,0.2c0.1,0.2,0.2,0.4,0.2,0.6c0.1,0.3,0.2,0.6,0.5,0.9
			c0.2,0.1,0.5,0.3,0.8,0.2c0.4,0,0.7-0.1,0.9-0.4c0.1-0.1,0.2-0.2,0.3-0.4c0.1-0.1,0.2-0.2,0.3-0.3c0.3-0.2,0.4-0.5,0.6-0.8
			c0.3-0.5,0.5-1,0.8-1.5c0.1-0.2,0.2-0.4,0.3-0.6l0.1-0.1h0.1c0.2,0.1,0.1,0.5,0.2,0.7c0.1,0.3,0.1,0.7,0.2,1s0.2,0.5,0.2,0.8
			c0,0.1,0.1,0.2,0.1,0.3c0.1,0.2,0.2,0.3,0.2,0.5c0.3,0.8,0.7,0.4,1-0.1c0.1-0.2,0.3-0.4,0.2-0.6C127.4,69.2,127.2,69.2,127.1,69z
			 M126.8,61.2c0-0.1,0-0.1,0-0.2C126.9,61.1,126.9,61.1,126.8,61.2z M126.8,61.2c0,0.3,0,0.6,0,0.9c-0.1-0.1-0.1-0.1-0.1-0.1
			C126.7,61.7,126.7,61.4,126.8,61.2z M126.5,62.8L126.5,62.8L126.5,62.8L126.5,62.8z M121.8,64.1L121.8,64.1L121.8,64.1L121.8,64.1
			z M121.6,64.9c0-0.1,0-0.1,0-0.2C121.7,64.8,121.6,64.9,121.6,64.9z M121.6,64.9c0,0.1,0,0.1,0,0.2C121.5,65,121.5,65,121.6,64.9z
			 M121.4,65.5L121.4,65.5L121.4,65.5L121.4,65.5z M122.7,69.8L122.7,69.8L122.7,69.8L122.7,69.8z M125.3,63.3
			c-0.1,0.3-0.2,0.6-0.3,0.9c-0.2,0.4-0.3,0.9-0.5,1.3c-0.2,0.5-0.5,0.9-0.8,1.3c-0.5,0.7-1,1.4-1.5,2.1c-0.1,0.2-0.3,0.3-0.4,0.5
			c-0.2,0-0.2-0.1-0.3-0.2c-0.1-0.3-0.1-0.5-0.1-0.8c0,0,0-0.1,0.1-0.2l0,0c0-0.1-0.1-0.2,0-0.2c0.1-0.3,0-0.6,0-0.9
			c0-0.6,0.1-1.1,0.2-1.7c0.1-0.5,0.2-1,0.4-1.5c0-0.1,0.1-0.2,0.1-0.3c0.2-0.3,0.3-0.6,0.4-0.9c0.2-0.4,0.4-0.9,0.6-1.2
			c0.4-0.2,0.8-0.3,1.3-0.2c0,0.1,0,0.1,0,0.2c0.1,0,0.1,0,0.2,0.1c0,0,0,0.1,0.1,0.2c0.1,0.2,0.2,0.4,0.5,0.4
			c0.1,0,0.2,0.1,0.2,0.2C125.5,62.7,125.4,63,125.3,63.3z M126.5,66.2L126.5,66.2c0-0.1,0-0.2,0-0.3
			C126.6,66,126.5,66.1,126.5,66.2z"/>
		<path class="st0" d="M234.3,69.7c-0.2-0.1-0.4-1.4-0.4-1.6c0-0.3,0.1-0.6-0.1-0.9v-0.1c0.1-0.7-0.1-1.4-0.1-2.1c0-0.1,0-0.2,0-0.3
			c0.1-0.2,0.2-0.5,0.2-0.7c0-0.4,0.2-0.7,0.3-1.1c0.1-0.3,0.2-0.7,0.2-1.1c0-0.5,0-1,0.1-1.5c0-0.2,0-0.4-0.2-0.5
			c-0.1-0.1-0.2-0.1-0.3-0.2c-0.2,0-0.4-0.1-0.6-0.1c-0.2,0-0.3,0.1-0.3,0.3c0,0.1,0,0.3,0,0.4c-0.1,0.6-0.2,1.2-0.2,1.8h-0.1
			c-0.5-0.3-1.1-0.5-1.7-0.6c-0.3,0-0.5,0-0.8,0s-0.6,0.2-0.9,0.2c-0.2,0.1-0.4,0.2-0.5,0.4c-0.2,0.5-0.5,1-0.7,1.5
			c-0.1,0.3-0.2,0.5-0.3,0.8s0,0.6-0.3,0.8l0,0c-0.1,0.5-0.2,1-0.2,1.5c0,0.2,0,0.4,0.1,0.6c0.1,0.4,0.1,0.7,0.1,1.1
			c0,0,0,0.1-0.1,0.1l0,0c0,0.4,0.1,0.9,0.1,1.3c0,0.1,0,0.1,0,0.2c0.1,0.2,0.2,0.4,0.2,0.6c0.1,0.3,0.2,0.6,0.5,0.9
			c0.2,0.1,0.5,0.3,0.8,0.2c0.4,0,0.7-0.1,0.9-0.4c0.1-0.1,0.2-0.2,0.3-0.4c0.1-0.1,0.2-0.2,0.3-0.3c0.3-0.2,0.4-0.5,0.6-0.8
			c0.3-0.5,0.5-1,0.8-1.5c0.1-0.2,0.2-0.4,0.3-0.6l0.1-0.1h0.1c0.2,0.1,0.1,0.5,0.2,0.7c0.1,0.3,0.1,0.7,0.2,1
			c0.1,0.3,0.2,0.5,0.2,0.8c0,0.1,0.1,0.2,0.1,0.3c0.1,0.2,0.2,0.3,0.2,0.5c0.3,0.8,0.7,0.4,1-0.1c0.1-0.2,0.3-0.4,0.2-0.6
			C234.6,69.9,234.5,69.8,234.3,69.7z M234,61.8c0-0.1,0-0.1,0-0.2C234.1,61.7,234.1,61.8,234,61.8z M234,61.8c0,0.3,0,0.6,0,0.9
			c-0.1-0.1-0.1-0.1-0.1-0.1C233.9,62.3,233.9,62.1,234,61.8z M233.7,63.5L233.7,63.5L233.7,63.5L233.7,63.5z M229,64.7L229,64.7
			L229,64.7L229,64.7z M228.8,65.5c0-0.1,0-0.1,0-0.2C228.9,65.4,228.8,65.5,228.8,65.5z M228.8,65.6c0,0.1,0,0.1,0,0.2
			C228.7,65.7,228.7,65.6,228.8,65.6z M228.6,66.1C228.6,66.1,228.6,66.2,228.6,66.1C228.6,66.2,228.6,66.2,228.6,66.1L228.6,66.1z
			 M230,70.5L230,70.5L230,70.5L230,70.5z M232.5,64c-0.1,0.3-0.2,0.6-0.3,0.9c-0.2,0.4-0.3,0.9-0.5,1.3c-0.2,0.5-0.5,0.9-0.8,1.3
			c-0.5,0.7-1,1.4-1.5,2.1c-0.1,0.2-0.3,0.3-0.4,0.5c-0.2,0-0.2-0.1-0.3-0.2c-0.1-0.3-0.1-0.5-0.1-0.8c0,0,0-0.1,0.1-0.2l0,0
			c0-0.1-0.1-0.2,0-0.2c0.1-0.3,0-0.6,0-0.9c0-0.6,0.1-1.1,0.2-1.7c0.1-0.5,0.2-1,0.4-1.5c0-0.1,0.1-0.2,0.1-0.3
			c0.2-0.3,0.3-0.6,0.4-0.9c0.2-0.4,0.4-0.9,0.6-1.2c0.4-0.2,0.8-0.3,1.3-0.2c0,0.1,0,0.1,0,0.2c0.1,0,0.1,0,0.2,0.1
			c0,0,0,0.1,0.1,0.2c0.1,0.2,0.2,0.4,0.5,0.4c0.1,0,0.2,0.1,0.2,0.2C232.7,63.3,232.6,63.7,232.5,64z M233.7,66.9L233.7,66.9
			c0-0.1,0-0.2,0-0.3C233.8,66.7,233.7,66.8,233.7,66.9z"/>
		<path class="st0" d="M174.3,67.7c0.1-0.3,0.2-0.7,0.2-1.1c0-0.1,0-0.2,0-0.2c-0.2-0.1-0.4-0.2-0.6-0.3c-0.2-0.1-0.4-0.1-0.6,0.1
			c0,0.2,0,0.5,0,0.7c0,0.4-0.1,0.7-0.3,1c-0.3,0.5-0.6,0.9-0.9,1.4c-0.2,0.4-0.6,0.6-0.9,0.9c-0.1,0.1-0.2,0.1-0.4,0.2
			c-0.1,0-0.2,0-0.3,0c-0.1-0.2-0.2-0.3-0.3-0.4c-0.2-0.5-0.4-0.9-0.5-1.4c-0.1-0.3-0.3-0.7-0.2-1c0-0.1,0-0.2,0-0.2
			c0-0.1,0-0.3,0-0.4c0-0.9-0.1-1.7-0.1-2.6c0-1.2,0-2.5,0.1-3.7c0.1-0.9,0.2-1.8,0.4-2.7c0.2-0.7,0.1-1.5,0.3-2.2
			c0.2-1.1,0.4-2.1,0.6-3.2c0-0.1,0-0.2,0-0.3c-0.3-0.2-0.7-0.4-1.1-0.5c-0.1,0-0.2,0-0.4,0.1c0,0.2-0.1,0.5-0.1,0.8
			c-0.1,0.5-0.2,0.9-0.3,1.4s-0.1,1.1-0.2,1.6c-0.1,0.6-0.1,1.3-0.3,1.9c0,0.1,0,0.2,0,0.2c0,0.9-0.3,1.9-0.4,2.8
			c-0.1,0.8-0.1,1.5,0,2.3c0,0.6,0.1,1.1,0.1,1.7c0.1,0.5,0.1,1.1,0.1,1.6c0,0.6,0.1,1.2,0.2,1.8c0.1,0.4,0.2,0.7,0.3,1.1
			s0.3,0.8,0.5,1.1c0.3,0.4,0.6,0.7,1.1,0.7c0.3,0,0.5,0.1,0.8,0.1c0.2,0,0.4,0,0.6-0.1c0.5-0.2,0.9-0.5,1.3-0.8
			c0.1,0,0.1-0.1,0.1-0.2c0.4-0.7,0.9-1.4,1.3-2.1C174.3,67.8,174.3,67.8,174.3,67.7z"/>
		<path class="st0" d="M212.9,68.1c-0.2-0.1-0.4-0.1-0.6,0.1c0,0.2,0,0.5,0,0.7c0,0.4-0.1,0.7-0.3,1c-0.3,0.5-0.6,0.9-0.9,1.4
			c-0.2,0.4-0.6,0.6-0.9,0.9c-0.1,0.1-0.2,0.1-0.4,0.2c-0.1,0-0.2,0-0.3,0c-0.1-0.2-0.2-0.3-0.3-0.4c-0.2-0.5-0.4-0.9-0.5-1.4
			c-0.1-0.3-0.3-0.7-0.2-1c0-0.1,0-0.2,0-0.2c0-0.1,0-0.3,0-0.4c0-0.9-0.1-1.7-0.1-2.6c0-1.2,0-2.5,0.1-3.7c0.1-0.9,0.2-1.8,0.4-2.7
			c0.2-0.7,0.1-1.5,0.3-2.2c0.2-1.1,0.4-2.1,0.6-3.2c0-0.1,0-0.2,0-0.3c-0.3-0.2-0.7-0.4-1.1-0.5c-0.1,0-0.2,0-0.4,0.1
			c0,0.2-0.1,0.5-0.1,0.8c-0.1,0.5-0.2,0.9-0.3,1.4s-0.1,1.1-0.2,1.6c-0.1,0.6-0.1,1.3-0.3,1.9c0,0.1,0,0.2,0,0.2
			c0,0.9-0.3,1.9-0.4,2.8c0,0.7-0.1,1.3,0,2c0,0.1-0.1,0.2-0.1,0.3c-0.1,0.3-1.3,1.8-1.7,1.3c-0.2-0.3-0.5-0.5-0.7-0.8
			s-0.5-0.5-0.8-0.7c0-0.1-0.1-0.2-0.2-0.3c-0.1,0.1-0.1,0.1-0.2,0.1c0-0.1,0-0.1,0-0.2c-0.4-0.4-0.9-0.6-1.4-0.8
			c-0.2-0.1-0.3,0-0.5,0.1c-0.2,0.3-0.5,0.5-0.7,0.8c-0.1,0.2-0.3,0.4-0.3,0.7c-0.1,0.4-0.2,0.7-0.3,1.1c0,0.1-0.1,0.2-0.1,0.4
			c-0.1,0.4-0.2,0.8-0.2,1.3c0,0.1,0,0.3-0.1,0.4c0,0.2-0.1,0.5-0.1,0.7s0,0.4,0,0.5c0,0.6,0.1,1.1,0.3,1.6c0.2,0.6,0.5,1.2,0.9,1.7
			c0.2,0.3,0.4,0.5,0.8,0.6c0.4,0.2,0.8,0.2,1.2,0.3c0,0,0.2-0.2,0.3-0.3c0.1,0,0.1-0.1,0.1-0.1l0.1-0.1c0.1-0.2,0.1-0.3,0.2-0.4
			c0.1-0.2,0.2-0.3,0.3-0.5c0.2-0.4,0.5-0.7,0.7-1.1c0.1-0.1,0.1-0.2,0.2-0.4c0.1-0.1,0.1-0.2,0.2-0.3c0.2-0.5,0.3-1,0.5-1.6
			c0-0.1,0-0.2,0-0.3c0-0.2,0-0.4,0-0.5s0-0.2,0.1-0.3c0.2-0.3-0.1-0.7,0.1-0.9c0.1-0.2,0.5-0.2,0.7-0.2c0,0,0,0,0.1,0
			c0.4-0.1,0.6-0.3,0.9-0.6c0,0.2,0,0.3,0,0.5c0.1,0.5,0.1,1.1,0.1,1.6c0,0.6,0.1,1.2,0.2,1.8c0.1,0.4,0.2,0.7,0.3,1.1
			s0.3,0.8,0.5,1.1c0.3,0.4,0.6,0.7,1.1,0.7c0.3,0,0.5,0.1,0.8,0.1c0.2,0,0.4,0,0.6-0.1c0.5-0.2,0.9-0.5,1.3-0.8
			c0.1,0,0.1-0.1,0.1-0.2c0.4-0.7,0.9-1.4,1.3-2.1c0-0.1,0.1-0.1,0.1-0.2c0.1-0.3,0.2-0.7,0.2-1.1c0-0.1,0-0.2,0-0.2
			C213.3,68.3,213.1,68.2,212.9,68.1z M203,65.5c0.1-0.3,0.2-0.3,0.4-0.2c0.1,0.1,0.3,0.3,0.4,0.4c0.1,0.1,0.2,0.3,0.3,0.5
			c0.1,0.1,0.1,0.2,0,0.3c-0.3,0.1-0.6,0.2-0.9,0.1c-0.1-0.3-0.3-0.7-0.3-1C203,65.6,203,65.6,203,65.5z M200.6,70.4
			c-0.1-0.1-0.1-0.3,0-0.4C200.6,70.2,200.6,70.3,200.6,70.4z M200.7,71.2L200.7,71.2C200.7,71.1,200.7,71.1,200.7,71.2
			C200.7,71.1,200.7,71.2,200.7,71.2L200.7,71.2z M204.3,68.1c0.1,0.2,0,0.4,0,0.6c-0.1,0.2-0.1,0.4-0.1,0.5
			c-0.1,0.3-0.1,0.5-0.2,0.7c-0.2,0.4-0.4,0.7-0.5,1.1c-0.2,0.5-0.6,0.9-0.9,1.4c-0.2,0.3-0.5,0.5-0.7,0.8c-0.1,0-0.1-0.1-0.1-0.1
			c-0.1-0.1-0.2-0.3-0.2-0.4c-0.1-0.1-0.2-0.2-0.2-0.4c0-0.1-0.1-0.1-0.1-0.2s0-0.2-0.1-0.2c0-0.2,0-0.2,0-0.5
			c-0.1-0.3-0.2-0.7-0.2-1c0-0.2,0-0.4-0.1-0.6c0-0.1,0-0.2,0-0.2c0.1-0.3,0-0.7,0-1c-0.1,0-0.1,0-0.1,0.1c0,0.3,0,0.5,0,0.8
			c-0.1-0.1-0.1-0.2-0.1-0.2c0-0.3,0.1-0.6,0.1-0.9c0,0,0,0,0.1-0.1c0.1,0,0.1,0,0.2,0c0.1-1,0.3-2,0.8-2.9c0.1,0,0.1,0.1,0.1,0.1
			c0.1,0.2,0.2,0.5,0.3,0.7c0.2,0.3,0.4,0.6,0.7,0.7c0.4,0.2,0.8,0.3,1.3,0.4c0.1,0,0.1,0,0.2,0c0.1,0,0.2,0.1,0.2,0.3
			c0,0.1,0,0.1,0,0.2C204.3,67.9,204.3,68,204.3,68.1z"/>
		<path class="st0" d="M162,63c0-0.4-0.1-0.8-0.2-1.1v-0.1c-0.1-0.4-0.5-0.7-0.9-0.7l0,0l0,0c-0.2,0-0.5,0-0.7,0l-0.2,0.2v0.1
			c0,0,0,0,0,0.1c-0.1,0.2-0.1,0.4-0.2,0.6c0,0.1,0,0.1,0,0.2c0,0.1,0,0.1-0.1,0.2c0,0.1,0,0.1-0.1,0.2v0.1c0,0.1,0,0.1,0,0.2
			c0-0.1,0-0.2-0.1-0.3l-0.1-0.3c-0.1-0.6-0.4-1.2-0.7-1.7c-0.2-0.4-0.6-0.7-1.1-0.8c-0.5-0.2-1-0.2-1.4,0c-0.1,0-0.1,0.1-0.2,0.1
			h-0.1c-0.2,0.1-0.4,0.2-0.5,0.4l-0.1,0.1c-0.5,0.4-0.7,0.9-1,1.4c-0.2,0.5-0.4,0.9-0.4,1.3c0,0.1,0,0.1,0,0.2c0,0.1,0,0.2,0,0.3
			c-0.1,0.3-0.1,0.5-0.1,0.8c0,0.1,0,0.2,0,0.3c0,0.2,0,0.3,0,0.5c0,0.1,0,0.3,0,0.4s0,0.1,0,0.2l0.1,0.9c0,0.1,0,0.2,0,0.3
			c0,0.1,0,0.2,0,0.2c0,0.2,0,0.3,0,0.5c0,0.1,0,0.2,0,0.3c0,0.1,0,0.3,0,0.5v0.1c0,0.3,0,0.6,0.1,0.9c0,0.1,0,0.1,0,0.2v0.1
			c0,0.4,0.1,0.7,0.2,1.1c0,0.1,0.1,0.2,0.1,0.3v0.1v0.1v0.1l0.2,0.4h0.1c0.1,0,0.2,0.1,0.3,0.1s0.3,0.1,0.4,0.1l0,0
			c0.1,0,0.2,0,0.3-0.1l0.2-0.4c-0.2-0.4-0.3-0.8-0.4-1.1c-0.1-0.2-0.1-0.5-0.1-0.7l-0.1-0.4c-0.1-0.3-0.1-0.6-0.1-0.9
			s0-0.6-0.1-0.8c0-0.2,0-0.3,0-0.5c0-0.1,0-0.2,0-0.3v-0.1c0-0.1,0-0.2,0-0.3c-0.1-0.5-0.1-1.1-0.1-1.7c0-0.5,0-1,0.1-1.5
			c0.1-0.6,0.3-1.1,0.6-1.5c0.1-0.2,0.2-0.3,0.3-0.5v-0.1c0.2-0.2,0.4-0.4,0.8-0.6c0.1,0,0.2-0.1,0.3,0.1c0,0.1,0.1,0.1,0.1,0.2
			l0.2,0.2c0.1,0.1,0.2,0.2,0.3,0.3l0,0c0,0.1,0,0.2,0,0.3l0.2,0.5l0.1,0.1v0.1h0.2l-0.2,0.1h0.2l-0.1,0.1v0.1l0.1,0.2
			c0,0.2,0.1,0.4,0.1,0.6c0,0.1,0,0.1,0,0.1l0,0l-0.1,0.3v0.1c0,0,0,0.1,0.1,0.2c0,0.1,0,0.2,0.1,0.2c0,0.2,0,0.4,0,0.6v0.2
			c-0.1,0.2-0.2,0.4-0.2,0.6V66v0.2c0,0.1-0.1,0.3-0.1,0.4c0,0.2-0.1,0.4,0,0.7l0.2,0.2l0.7,0.2c0.1,0,0.1,0.1,0.3,0
			c0.1,0,0.1,0,0.2-0.1l0.2-0.2l0.1-0.4c0-0.3,0.1-0.6,0.1-0.8c0-0.2,0.1-0.4,0.2-0.7c0-0.1,0.1-0.2,0.1-0.3c0-0.3,0.1-0.5,0.3-0.8
			v-0.1c0.1-0.1,0.1-0.3,0.2-0.4c0.1-0.2,0.2-0.5,0.3-0.7l0,0c0,0.2,0,0.3,0,0.5v0.2h-0.1c0,0.1,0,0.1,0,0.2c0,0.2-0.1,0.4,0,0.6
			c-0.1,0.1-0.1,0.3-0.1,0.4c0,0.3,0,0.6-0.1,0.9c0,0.1,0,0.2,0,0.2l0,0c0,0.1,0,0.2,0,0.4h0.1l0.1,0.1h-0.2v0.1h-0.1l-0.1,0.2
			c-0.1,0.3-0.1,0.7-0.3,1.2v0.1c-0.1,0.2-0.1,0.5-0.3,0.7c-0.1,0.1-0.1,0.2-0.1,0.2c-0.1,0.4-0.3,0.7-0.5,1c0,0.1-0.1,0.1-0.1,0.2
			v0.3l0.3,0.3l0.2,0.1c0.1,0,0.1,0,0.2,0c0.2,0.1,0.4,0.1,0.7,0l0.1-0.1l0.5-1.2c0.1-0.2,0.1-0.3,0.2-0.5c0.2-0.5,0.4-1.1,0.5-1.7
			c0-0.1,0-0.2,0.1-0.3c0-0.2,0-0.3,0.1-0.5c0-0.1,0-0.2,0-0.3v-0.1c0.1-0.4,0.1-0.9,0.1-1.3V65c0.1-0.4,0.1-0.8,0.1-1.2v-0.1
			c0-0.1,0-0.3,0-0.4c0-0.1,0-0.1,0-0.2C162,63.2,162,63.1,162,63z"/>
		<path class="st0" d="M143.3,63.1c-0.4,0.3-0.8,0.1-1.2,0c-0.2,0-0.3,0.1-0.5,0.1c-0.1,0.2-0.3,0.1-0.4,0.1c-0.1,0-0.3,0-0.4-0.1
			c0,0.1,0,0.1,0,0.2c-0.2,0-0.5,0-0.7,0.1c0-0.1,0-0.1,0-0.1c0-0.3,0-0.7,0-1c0-0.7,0.1-1.5,0.3-2.2c0.1-0.4,0.3-0.7,0.5-1.1
			c0.4,0.3,0.8,0.6,1.3,0.6c0-0.4-0.1-0.7-0.3-0.9c-0.1-0.1-0.3-0.2-0.4-0.3c-0.1-0.1-0.2-0.1-0.3-0.2c-0.2-0.1-0.3-0.2-0.5-0.2
			c-0.3-0.1-0.6-0.2-0.9-0.2c-0.2,0.3-0.4,0.7-0.5,1c-0.2,0.4-0.3,0.9-0.4,1.3c-0.1,0.3,0,0.5-0.1,0.8s-0.1,0.6-0.1,0.9
			c0,0.5,0,1,0,1.5c0,0.2,0,0.3,0,0.4c-0.2,0.3-0.4,0.3-0.7,0.3c-0.1,0-0.2,0-0.2,0c-0.1,0-0.2-0.1-0.3,0c0,0.2,0.1,0.3,0.2,0.4
			c0.2,0.2,0.3,0.4,0.3,0.6c0.2,0,0.4-0.1,0.5-0.1s0.2,0,0.3,0c0,0.1,0,0.2,0,0.3c0,2.8-0.2,5.7,0.6,8.4c0,0.1,0.1,0.3,0.2,0.3
			c0.1,0.1,0.3,0,0.5,0s0.3,0.1,0.4,0.1c0.1-0.1,0.1-0.2,0.1-0.4c-0.3-1.6-0.5-3.2-0.5-4.8c0-1,0.3-2,0.1-3c-0.1-0.4-0.1-0.9,0-1.3
			c0.2-0.2,0.5-0.1,0.7-0.1c0.1-0.1,0.2-0.1,0.3-0.2c0.1,0,0.1,0.1,0.2,0.1c0.3,0,0.5,0,0.8,0c0.2,0,0.5-0.1,0.7-0.1s0.5,0,0.7,0
			c0.1-0.1,0.1-0.1,0.2-0.1c0-0.2,0.2-0.1,0.3-0.3C143.7,63.5,143.7,63.4,143.3,63.1z M140.7,64.1c-0.1,0-0.1,0-0.2,0.1
			c-0.1,0-0.1,0.1-0.2-0.1C140.5,64.1,140.5,64.1,140.7,64.1z M140.2,64.4c0.2-0.1,0.4-0.1,0.5,0C140.6,64.4,140.4,64.4,140.2,64.4z
			 M142.4,63.9L142.4,63.9L142.4,63.9L142.4,63.9z M141.9,63.9c0.1,0,0.1,0,0.2,0l0,0C142,63.9,141.9,63.9,141.9,63.9L141.9,63.9z
			 M142.3,64.2c-0.4,0.1-0.8,0-1.1,0.2c0,0-0.1-0.1-0.1-0.2c0.8-0.1,1.5-0.1,2.2-0.2c0.1,0,0.1,0,0.2,0.1
			C143,64.1,142.6,64.1,142.3,64.2z"/>
		<path class="st0" d="M180.3,69.8c-0.1-0.2-0.3-0.6-0.2-0.8c0-0.1,0.1-0.1,0.2-0.2c0.1-0.1,0-0.2-0.1-0.3c-0.3-0.4-0.3-1.1-0.3-1.6
			c-0.1-0.4-0.1-0.9-0.1-1.3c-0.1-0.9-0.2-1.7-0.3-2.6c-0.1-0.7-0.4-1.5-0.4-2.3c0-0.1,0-0.3,0-0.4c0-1.6-0.3-3.1-0.6-4.7
			c-0.4,0.2-0.8,0.3-1.3,0.5c0.2-0.1,0.5,2.4,0.5,2.6c0,0.5-0.3,1.2-0.8,1.6c-0.4,0.3-2.4-0.1-2.3-0.3c0.1-0.3-0.6-1.6-0.7-1.9
			c-0.2-0.8-0.3-1.6-0.4-2.4c0-0.1,0-0.3-0.1-0.4c-0.1-0.1-0.4-0.1-0.5-0.1c-0.3,0.1-0.5,0.1-0.8,0.2c0,0,0.4,2.3,0.4,2.5
			c0.1,0.3,0.2,0.6,0.2,0.8c0.1,0.3,0.4,0.9,0.6,1.2c0.2,0.5,0.4,1.3,1,1.5c0.2,0.1,0.3,0.1,0.5,0.1c0.1,0,0.2,0,0.2,0
			c0.1,0,0.1,0.2,0.2,0.2c0.1,0,0.2-0.1,0.4-0.1c0.1,0,0.1,0.1,0.1,0.1c0.3,0.2,0.8,0.1,1.1,0s0.6-0.2,0.9-0.3
			c0.2,0.2,0.2,0.4,0.2,0.6c0.1,0.4,0.1,0.9,0.2,1.3c0,0.2,0.1,0.4,0.1,0.6c0,0.2,0,0.3,0,0.5c0,0.4,0,0.8,0.2,1.1
			c0,0.1,0,0.2,0.1,0.3c0.2,1.4,0.5,2.8,0.6,4.2c0.1,0.8,0.1,1.6-0.5,2.1s-1.4,0.3-2.1,0.1c-0.2,0-2.2-0.8-2.1-0.9
			c-0.3,0.3-0.5,0.6-0.8,1l-0.1,0.1c0,0,0,0.1,0.1,0.1c1.3,0.8,2.8,1.3,4.4,1.2c0.8,0,1.6-0.3,2.1-0.9s0.6-1.4,0.5-2.3
			C180.4,70.6,180.4,70.2,180.3,69.8z"/>
		<path class="st0" d="M242.9,78.2c-0.1-2.6-0.1-5.2-0.2-7.8c0-1.4,0-2.7,0-4.1c0-1.3-0.3-2.5-0.5-3.8v-0.1h-0.1
			c-0.4,0.1-0.8,0.1-1.2,0.2c0,0.3,0.2,0.5,0.2,0.8c0,0.1,0,0.2,0,0.3c0,0.2,0.1,0.4,0.2,0.5c0.4,1,0.2,1.9,0.1,2.9
			c0,0.5-0.3,1.5-0.9,1.7c-0.3,0.1-2.4-0.3-2.2-0.5c0.1-0.3-0.4-1.6-0.5-2c-0.2-0.8-0.2-1.6-0.2-2.4c0-0.1,0-0.3-0.1-0.4
			c-0.1-0.1-0.3-0.1-0.5-0.1c-0.3,0-0.5,0.1-0.8,0.1c0,0,0.1,2.3,0.1,2.6c0,0.3,0.1,0.6,0.1,0.9s0.3,0.9,0.4,1.3
			c0.1,0.6,0.2,1.3,0.8,1.6c0.2,0.1,0.3,0.1,0.5,0.1c0.1,0,0.2,0,0.2,0c0.1,0,0.1,0.2,0.2,0.2c0.1,0.1,0.2-0.1,0.4,0l0.1,0.1
			c0.2,0.2,0.7,0.2,1,0.2c0.3-0.1,0.6-0.1,0.9-0.2c0.1,0.2,0.2,0.4,0.2,0.6c0,0.4,0,0.9,0,1.3c0,0.2,0,0.4,0,0.7c0,0.2,0,0.3,0,0.5
			c0,0.4-0.1,0.8,0,1.2c0,0.1,0,0.2,0,0.3c0,1.4,0.2,2.8,0.1,4.2c0,0.8-0.1,1.6-0.7,2.1c-0.7,0.4-1.5,0.1-2.1-0.1
			c-0.2-0.1-2.1-1-2-1.1c-0.3,0.3-0.6,0.6-0.9,0.9l-0.1,0.1c0,0,0,0.1,0.1,0.1c1.2,1,2.7,1.6,4.2,1.7c0.8,0,1.6-0.1,2.2-0.6
			c0.6-0.6,0.7-1.4,0.8-2.2C242.9,79.3,242.9,78.7,242.9,78.2z"/>
		<path class="st0" d="M165.1,69.7c0-0.3,0.1-0.6,0.1-0.9c0,0.1,0,0.3,0,0.4c0-2.4-0.2-5.9-0.3-7.8c0-0.7-0.1-1.1-0.1-1.3
			c-0.3,0-0.9-0.1-1.1,0.1c-0.4,0.3-0.2,0.7-0.1,1.3c0.1,1.1,0.3,2.3,0.3,3.4c0,0.1,0,0.3,0,0.4c0.1,0.3,0,0.6,0.1,0.9
			c0,0.2,0,0.4,0,0.5c0.1,0.3,0,0.6,0,0.8c0,0.1,0,0.2,0,0.2c0,0.4,0,0.8,0,1.2c0,0.3,0,0.6,0,0.8c0,0.2,0,0.4,0,0.6
			c0,0.3,0,0.6,0,0.9c0.3,0.1,0.5,0.4,0.8,0.2c0,0,0.1,0,0.2,0.1c0.1,0,0.1,0,0.2,0c0.1,0,0.2-1,0.2-2.5
			C165.2,69.4,165.2,69.6,165.1,69.7z M165.1,70c0,0.1,0,0.2,0,0.4C165,70.2,165,70.1,165.1,70z"/>
		<path class="st0" d="M165.2,69.3L165.2,69.3L165.2,69.3z"/>
		<path class="st0" d="M163.7,58.4c0.1,0,0.1,0,0.2,0c0.1,0,0.2-0.6,0.2-1.5H164V57c0,0,0-0.1-0.1-0.1c0,0,0,0-0.1,0
			c-0.3,0.1-0.7,0-1-0.1h-0.1c0,0.2,0,0.3,0,0.5c0,0.3,0,0.6,0,0.9c0.3,0.1,0.5,0.4,0.8,0.2C163.6,58.3,163.7,58.4,163.7,58.4z"/>
		<path class="st0" d="M216.1,69.6c0-0.3,0-0.6,0.1-0.9c0,0.1,0,0.3,0,0.4c0-2.4-0.2-5.9-0.3-7.8c0-0.7-0.1-1.1-0.1-1.3
			c-0.3,0-0.9-0.1-1.1,0.1c-0.4,0.3-0.2,0.7-0.1,1.3c0.1,1.1,0.3,2.3,0.3,3.4c0,0.1,0,0.3,0,0.4c0.1,0.3,0,0.6,0.1,0.9
			c0,0.2,0,0.4,0,0.5c0.1,0.3,0,0.6,0,0.8c0,0.1,0,0.2,0,0.2c0,0.4,0,0.8,0,1.2c0,0.3,0,0.6,0,0.8c0,0.2,0,0.4,0,0.6
			c0,0.3,0,0.6,0,0.9c0.3,0.1,0.5,0.4,0.8,0.2c0,0,0.1,0,0.2,0.1c0.1,0,0.1,0,0.2,0c0.1,0,0.2-1,0.2-2.5
			C216.2,69.3,216.2,69.5,216.1,69.6z M216.1,69.9c0,0.1,0,0.2,0,0.4C216,70.1,216,70,216.1,69.9z"/>
		<path class="st0" d="M216.2,69.1C216.2,69.2,216.2,69.2,216.2,69.1C216.2,69.2,216.2,69.2,216.2,69.1z"/>
		<path class="st0" d="M215.3,58.2c0,0,0.1,0,0.2,0c0.1,0,0.1,0,0.2,0c0.1,0,0.1-0.6,0.2-1.4h-0.1v0.1c0,0,0-0.1-0.1-0.1
			c0,0,0,0-0.1,0c-0.3,0.1-0.6,0-0.9-0.1h-0.1c0,0.1,0,0.3,0,0.4c0,0.3,0,0.5,0,0.8C214.9,58.1,215,58.4,215.3,58.2z"/>
		<path class="st0" d="M224.4,53.6c0,0.6-0.1,1.1-0.1,1.7c0,0.2,0,0.4-0.1,0.6c-0.2,0.7-0.3,1.4-0.2,2.1c0,0.3,0,0.6,0,0.9
			c0,0.4-0.1,0.8-0.2,1.2c-0.1,0.8-0.1,1.6-0.2,2.4c0,0.4-0.1,0.7-0.4,1.1c-0.6-0.1-1.1-0.2-1.7-0.4c-1.3-0.4-3.1,0.5-3.4,2
			c-0.2,0.9-0.6,1.7-0.4,2.6c-0.1,1.3,0.4,2.3,1.1,3.3c0.2,0.2,0.3,0.4,0.5,0.5c0.4,0.3,1.2,0.9,1.7,0.8c0.1,0,0.2-0.1,0.3-0.1
			c0.2-0.1,0.5-0.3,0.7-0.4s0.4-0.2,0.6-0.4c0.1-0.1,0.1-0.3,0.3-0.5c0.4-0.5,0.4,0.2,0.5,0.3c0.1,0.1,0.6-0.1,0.6-0.3
			c0-0.1,0-0.2-0.1-0.3c0-0.1,0-0.2,0.1-0.3c0.1-0.4-0.1-0.8,0.1-1.2c0.1-0.3,0.3-0.6,0.2-1c0-0.1-0.1-0.3-0.1-0.4
			c0-0.2,0.2-0.4,0.3-0.6c0.1-0.1,0.1-0.3,0.1-0.5c0.3-1.6,0.4-3.2,0.7-4.8c0.1-0.3,0.1-0.7,0.1-1c0-0.2-0.1-0.3-0.1-0.5
			c0-0.3,0-0.5,0.1-0.8c0.1-0.7,0.3-1.3,0.4-2c0.1-0.9-0.1-1.8,0.1-2.6c0.1-0.3,0.2-0.6,0.2-0.9c0-0.5,0-0.8,0.2-1.2
			c0-0.1,0.1-0.2,0.2-0.2c-0.6-0.1-1.2-0.2-1.8-0.4C224.5,52.7,224.4,53.2,224.4,53.6z M223.2,65.6c-0.1,0.4-0.1,0.7-0.2,1.1
			c-0.1,0.3-0.1,0.6-0.2,0.9c-0.3,1-0.6,2-0.9,3.1c-0.3,0.2-0.6,0.7-1.2,0.8c-0.2-0.3-0.4-0.5-0.6-0.7c-0.2-0.2-0.4-0.3-0.4-0.7
			c0-0.1,0-0.1,0-0.2s-0.1-0.2-0.1-0.2c-0.1-0.2-0.2-0.4-0.2-0.6s0-0.3,0-0.5c0-0.1-0.3-0.6-0.3-0.7c-0.1-0.3,0-0.7,0-1v-0.1
			c0,0,0.1,0,0.1-0.1v-0.1c0-0.2,0-0.4,0-0.6c0-0.1,0-0.2,0-0.4c0.1-0.2,0.5-0.4,0.6-0.6c0.2-0.2,0.4-0.5,0.8-0.5
			c0.6,0,1-0.3,1.6-0.4c0.3,0,0.7,0.2,1,0.4C223.3,64.9,223.2,65.2,223.2,65.6z"/>
		<path class="st0" d="M197.4,65.5c-0.1-0.6-0.4-1.2-0.6-1.1c0-0.1-0.1-0.2-0.2-0.2c-0.2-0.2-0.5-0.3-0.7-0.4c0,0-0.1,0-0.1-0.1
			c0,0-0.1-0.1-0.1-0.2c-0.1-0.3-0.7-0.6-1.1-0.5c-0.2,0-0.9,0.1-1.1,0.2l-0.1,0.1c0,0-0.1,0.1-0.2,0.1c-0.2,0-0.4,0.1-0.5,0.1h-0.1
			h-0.1c-0.1,0-0.1,0-0.1,0.1c-0.1,0.1-0.2,0.2-0.3,0.2c-0.4,0.1-0.3-1.7-0.3-2c-0.1-1.3-0.1-2.6,0.1-3.9c0.1-0.9,0.3-1.7,0.2-2.6
			c-0.1-0.4-0.2-0.7-0.2-1c0-0.2,0.1-0.5,0.1-0.7c0-0.3,0.2-1.2,0-1.4s-1-0.1-1.2-0.1c-0.1,0.5-0.1,1-0.1,1.5c0,0.3-0.2,0.6-0.1,1
			c0.1,0.7,0.2,1.4,0,2c-0.2,0.9-0.1,1.8-0.2,2.7c0,0.2-0.1,0.4,0,0.6c0.2,0.7,0,1.5,0,2.2c0,0.8-0.1,1.5-0.1,2.3
			c0,0.5,0,1.4,0.2,1.9c0,0.1,0.1,0.2,0,0.3c0,0.1-0.1,0.1-0.2,0.2c-0.2,0.3,0,0.9,0,1.2c0,0.7-0.3,1.2-0.1,1.9
			c-0.2,0-0.3,0.2-0.3,0.3c0,0.1,0.1,0.1,0.1,0.2s0,0.1,0,0.2s0.1,0.3,0.2,0.3c0.1,0.1,0.2,0.1,0.4,0.1c0.1,0,1.2,0.2,1.2-0.1
			c-0.1-0.5,0-1.1,0.1-1.6c-0.2-0.1-0.1-0.4,0-0.6c0-0.1,0-0.3,0-0.4c0-0.2,0-0.5,0-0.7s0-0.5,0-0.7c0-0.4-0.1-1.1,0.1-1.4
			c0.1-0.3,0.5-0.3,0.8-0.4c0.4-0.2,0.8-0.3,1.2-0.4c0.3,0,0.7-0.2,1-0.2c0.6,0.1,1.1,0.5,1.2,1.1c0,0.1,0,0.2,0,0.4
			c0,0.1,0,0.3,0,0.4c0.1,0.8,0.1,1.5,0,2.3c-0.1,0.5-0.3,1-0.3,1.5c0,0.4,0.8,0.5,1,0.4c0.4-0.1,0.1-0.1,0.2-0.4
			c0.1-0.6,0.4-1.1,0.3-1.7c0-0.2-0.2-0.5-0.1-0.7c0,0,0.1-0.1,0.1-0.2s0-0.1,0-0.2c-0.1-0.4,0.2-0.6,0.2-0.9
			C197.5,66.3,197.5,65.9,197.4,65.5z"/>
	</g>
	<g>
		<path class="st0" d="M116,14.1L116,14.1c0-0.2-0.1-0.4-0.1-0.6l-0.4-0.2c-0.1,0-0.1,0.1-0.2,0.1l-0.2,0.1c-0.1,0-0.2,0-0.3,0.1
			c-0.3,0.1-0.6,0.2-0.9,0.3c-0.2,0.1-0.3,0.1-0.5,0.2l-0.1,0.1l-0.2,0.2l0.2,0.4c-0.2,0.1-0.4,0.1-0.6,0.2l-0.2,0.1
			c-0.1,0-0.3,0.1-0.5,0.1c-0.2-0.6-0.3-1.2-0.4-1.9c-0.1-0.4-0.1-0.8-0.2-1.3c-0.2-0.6-0.3-1.3-0.5-1.9c-0.1-0.3-0.2-0.5-0.2-0.8
			l-0.2-0.7c-0.1-0.3-0.2-0.5-0.3-0.8c-0.1-0.2-0.1-0.5-0.2-0.8c-0.1-0.4-0.1-0.8-0.3-1.2l-0.1-0.5c-0.1-0.4-0.1-0.8-0.2-1.1
			c-0.1-0.6-0.3-1.2-0.4-1.7l-0.1-0.3c0-0.1-0.1-0.2-0.1-0.3h-0.3h-0.3c-0.2,0-0.5-0.1-0.7-0.1s-0.4-0.1-0.7,0l-1.1-0.1l-0.3,0.2
			c0,0.1,0,0.1,0,0.2c0,0.2,0,0.3,0.1,0.5s0,0.4-0.1,0.6c0,0.1-0.1,0.2-0.1,0.3l-0.1,0.2l0.3,0.4l0,0v0.1c0,0.1,0.1,0.1,0.1,0.2v0.1
			c-0.1,0.2-0.2,0.4-0.3,0.7c-0.1,0.1-0.1,0.2-0.1,0.4l0,0V5.5l-0.5-0.2l-0.3,0.5L104.3,6v0.2c0,0.2,0,0.3,0,0.4
			c-0.1,0.1-0.2,0.3-0.1,0.6c0,0,0,0.1,0,0.2s0,0.2-0.1,0.2c0,0.3-0.1,0.6-0.1,0.9c0,0.2,0,0.3,0,0.5v0.1c0,0.1,0.1,0.2,0.1,0.3h0.4
			l0,0c0,0.2-0.1,0.4-0.1,0.6v0.2c-0.1,0.3-0.1,0.7-0.2,1H104v0.1l-0.1-0.1c-0.4,0.1-0.5,0.4-0.5,0.8h0.2l-0.1,0.1l0,0
			c0,0,0,0-0.1,0.1v0.2c-0.1,0.2-0.1,0.5-0.1,0.7c0,0.1,0,0.2,0,0.2l-0.2,0.2l-0.1,0.2c0,0.2,0,0.5-0.1,0.7
			c-0.1,0.4-0.1,0.7-0.2,1.1c0,0.1,0,0.2,0,0.4c0,0.2-0.1,0.4-0.1,0.6c0,0.3-0.1,0.6-0.1,0.8c0,0.1,0,0.3-0.1,0.4
			c-0.3,0.1-0.6,0.2-0.9,0.3l-0.8,0.3c-0.2,0.1-0.4,0.2-0.7,0.2c-0.3,0.1-0.7,0.2-1,0.3c-0.4,0.1-0.8,0.2-1.1,0.3
			c-0.2,0.1-0.4,0.1-0.7,0.2L97,19.7c0.2,0.5,0.4,1,0.5,1.5l0.3,0.8l0.4,0.2l1.1-0.4c0.5-0.2,0.9-0.3,1.4-0.5
			c0.4-0.1,0.8-0.3,1.2-0.4c0,0.2,0,0.3-0.1,0.5c-0.1,0.3-0.1,0.6-0.2,0.9c-0.1,0.4-0.1,0.7-0.2,1.1c-0.1,0.6-0.2,1.1-0.2,1.7v0.1
			c0,0.1,0,0.3,0,0.4c0,0.2,0,0.3,0,0.5s-0.1,0.5-0.1,0.7c-0.1,0.3-0.1,0.6-0.1,0.8c-0.1,0.4-0.1,0.9-0.1,1.3l-0.1,0.6l0.1,0.3
			c0.7,0.4,1.4,0.5,2.1,0.6l0.4,0.1h0.2c0.5-0.2,0.6-0.4,0.5-0.9c0-0.2-0.1-0.5-0.1-0.7c0.1-0.6,0.1-1.1,0.2-1.7l0.1-1.1
			c0.1-0.5,0.1-0.9,0.2-1.4s0.1-0.9,0.2-1.4c0.1-0.4,0.1-0.9,0.2-1.3c0.1-0.5,0.1-1.1,0.2-1.6l0.1-0.6c0.1,0,0.2-0.1,0.4-0.1
			c0.4-0.1,0.7-0.3,1.1-0.4c0.3-0.1,0.7-0.2,1-0.4c0.3-0.1,0.6-0.2,0.9-0.3l1.2-0.4c0.1,0.3,0.2,0.7,0.4,1l0.1,0.2
			c0.2,0.7,0.4,1.3,1,1.9v0.1h0.2l-0.1,0.1c0,0,0,0.1,0.1,0.1c0,0.1,0.1,0.1,0.1,0.2l0.1,0.3c0.1,0.4,0.3,0.9,0.4,1.4
			c0.1,0.3,0.2,0.5,0.4,0.6l-0.1,0.2l-0.1,0.2v0.1c0,0.1,0,0.3,0.1,0.4c0.1,0.2,0.1,0.5,0,0.8l0.1,0.3l0.3,0.3l0.2,0.1l0.4,0.1
			c0.3,0.1,0.5,0.1,0.8,0.1c0.5,0.1,1,0.1,1.5-0.1l0.2-0.3c0-0.1,0-0.2-0.1-0.2c0-0.1-0.1-0.3-0.1-0.4c0-0.3,0-0.7,0-1v-0.3v-0.1
			c-0.2-0.4-0.3-0.7-0.5-1.1c-0.4-0.9-0.8-1.8-1.1-2.7l0,0l-0.1-0.3c-0.1-0.2-0.1-0.4-0.2-0.7c-0.1-0.2-0.2-0.4-0.2-0.6
			c-0.1-0.2-0.2-0.4-0.2-0.6c-0.1-0.3-0.2-0.6-0.3-0.9h0.1c0.1,0,0.1-0.1,0.2-0.1l0.6-0.2c0.2-0.1,0.5-0.1,0.7-0.2l0.2-0.1
			c0.2-0.2,0.4-0.4,0.7-0.4c0.2-0.1,0.5-0.1,0.8-0.1l0.2-0.2c0.1-0.2,0.1-0.5,0.1-0.7C116.3,14.9,116.2,14.5,116,14.1L116,14.1z
			 M106.2,14.4c0-0.2,0.1-0.4,0.1-0.5l0.3-2c0.2-0.4,0.2-0.8,0.2-1.2v-0.1c0-0.1,0-0.1,0-0.2c0-0.2,0.1-0.4,0.1-0.6
			c0.1-0.3,0.1-0.7,0.2-1c0.1-0.4,0.1-0.8,0.2-1.3l0,0h0.1l-0.1,0.1l0.1,0.1l-0.1,0.4c0,0.1,0.1,0.1,0.1,0.2c0,0.1,0.1,0.2,0.1,0.2
			c0,0.3,0.1,0.6,0.2,0.8c0,0.1,0.1,0.2,0.1,0.3c0,0.2,0.1,0.3,0.2,0.4c0.1,0.2,0.2,0.5,0.2,0.7c0,0.1,0,0.2,0.1,0.3
			c0,0,0,0.1,0.1,0.1l0,0v0.1v0.2c0,0.1,0.1,0.2,0.1,0.3s0,0.3,0.1,0.4c0,0.1,0,0.2,0,0.3c0,0.2,0,0.3,0.1,0.5l0.2,0.1v0.3l0.2,0.1
			c0,0.1,0,0.1,0,0.2c0,0.2,0.1,0.4,0.1,0.6c0,0.2,0.1,0.3,0.1,0.5v0.1c-0.1,0.1-0.1,0.3-0.1,0.4c-0.1,0.1-0.2,0.1-0.2,0.1l-0.2-0.1
			h-0.2c-0.2,0.1-0.5,0.2-0.8,0.3c-0.4,0.1-0.8,0.2-1.1,0.3c-0.1,0-0.2,0.1-0.4,0.1c-0.1,0-0.1,0-0.2,0.1c0-0.1,0-0.2,0-0.3
			c0-0.3,0.1-0.6,0.1-1C106.1,14.9,106.2,14.6,106.2,14.4z"/>
		<path class="st0" d="M88.4,2.8c-0.2-0.1-0.5-0.3-0.7-0.4c-0.1-0.1-0.3-0.1-0.5-0.2c-0.1,0-0.2-0.1-0.3-0.1
			c-0.2-0.1-0.7-0.3-1.2,0.2l-0.2,0.6v0.6c0,0.3,0,0.6,0,0.8c0,0.4-0.1,0.8-0.2,1.2s-0.1,0.8-0.2,1.1v0.1c-0.1,0.9-0.2,1.8-0.4,2.6
			c-0.1,0.3-0.1,0.7-0.2,1c0,0.2,0,0.3-0.1,0.5L84,13.2c-0.1,0.5-0.2,0.9-0.2,1.4c0,0.4-0.1,0.8-0.1,1.2c0,0.3-0.1,0.7-0.1,1
			c-0.1,1-0.3,2.1-0.4,3.1c-0.1,0.5-0.1,1-0.2,1.5c0-0.1-0.1-0.3-0.1-0.4c-0.1-0.4-0.2-0.7-0.3-1.1c-0.1-0.3-0.2-0.6-0.2-0.9
			c-0.1-0.3-0.2-0.7-0.3-1c-0.1-0.6-0.3-1.1-0.4-1.7c-0.1-0.5-0.2-0.9-0.3-1.4c-0.1-0.2-0.1-0.4-0.2-0.7c-0.1-0.2-0.1-0.5-0.2-0.8
			c-0.1-0.5-0.3-1-0.4-1.5c-0.1-0.3-0.2-0.6-0.3-0.9c-0.1-0.3-0.1-0.5-0.2-0.8s-0.2-0.6-0.3-1c0-0.1-0.1-0.3-0.1-0.4
			c-0.1-0.4-0.1-0.8-0.3-1.2c0-0.3-0.1-0.6-0.1-0.8c0-0.1-0.1-0.2-0.1-0.3c-0.1-0.4-0.3-0.7-0.8-1c-0.3-0.1-0.5-0.3-0.8-0.4
			c-0.4-0.3-0.9-0.4-1.5-0.2l-0.5,0.4c0,0.1-0.1,0.2-0.1,0.5v0.1c0,0.3,0,0.5,0,0.7l-0.1,0.3c0,0.2,0,0.4-0.1,0.6
			c0,0.4-0.1,0.8-0.2,1.2c0,0.9-0.1,1.6-0.1,2.2v0.4c-0.1,0.8-0.1,1.6-0.3,2.4c-0.1,0.4-0.1,0.8-0.1,1.2v0.4c0,0.2,0,0.4,0,0.6
			s0,0.3,0,0.5v0.5c0,0.2,0,0.4-0.1,0.6l-0.1,0.8c0,0.4-0.1,0.8-0.1,1.1c0,0.1,0,0.3-0.1,0.4L74,20.2c-0.1,0.4-0.1,0.8-0.1,1.2
			c0,0.3,0,0.6-0.1,0.9v0.3c-0.1,1-0.3,1.9-0.4,2.9c-0.1,0.4-0.2,1.3,0.5,2.1l0.1,0.1l0.4,0.3l0.9,0.2l0.9-0.5l0.2-0.6
			c0-0.1,0.1-0.3,0.1-0.4v-1.5c0.1-0.4,0.2-0.8,0.2-1.3c0-0.1,0-0.2,0-0.4c0-0.1,0-0.2,0.1-0.4c0-0.2,0.1-0.5-0.1-0.7v-0.1v-0.1
			c0-0.1,0-0.3,0.1-0.4c0-0.2,0.1-0.3,0.1-0.5c0-0.1,0-0.3,0-0.4s0-0.3,0-0.3c0.1-0.2,0.1-0.5,0-0.5c0-0.1,0-0.1,0-0.2l0.1-0.7
			c0-0.1,0-0.2,0-0.2l0.4-2.8l-0.3-0.7c0.2,0.1,0.2,0.3,0.2,0.4v-0.1c0-0.1,0-0.1,0.1-0.2c0.1-0.4,0.3-0.9,0.1-1.4
			c0.1-0.3,0.2-0.6,0.3-1c0.1,0.5,0.2,0.9,0.4,1.4c0.1,0.5,0.3,1,0.4,1.6c0.1,0.6,0.3,1.1,0.4,1.7c0.2,1,0.5,1.9,0.7,2.8
			c0.1,0.2,0.1,0.5,0.2,0.7c0.1,0.4,0.2,0.8,0.3,1.1c0.1,0.3,0.1,0.6,0.2,0.9l0.1,0.4c0.1,0.4,0.2,0.7,0.3,1.1
			c0.1,0.3,0.2,0.6,0.3,1l0.7,2.2l0.5,0.5c0.1,0,0.2,0.1,0.3,0.2c0.2,0.2,0.6,0.4,1.1,0.4l0,0c0.3,0.1,0.7,0.2,0.9,0.2l0.7-0.5
			c0-0.1,0-0.1,0.1-0.2c0-0.1,0-0.1,0.1-0.2c0.4-0.7,0.6-1.5,0.7-2.3c0-0.1,0-0.2,0-0.3c0.1-0.5,0.2-1,0.1-1.6c0-0.1,0-0.2,0-0.2
			l0.1-0.3c0.1-0.1,0.1-0.2,0.2-0.4c0.1-0.3,0.1-0.6,0.2-1c0-0.2,0.1-0.4,0.1-0.6v-0.4c0-0.2,0.1-0.4,0.1-0.6
			c0.1-0.3,0.1-0.6,0.1-0.9s0-0.5,0.1-0.7c0.1-0.3,0.1-0.5,0.1-0.7s0-0.3,0-0.5c0.1-0.4,0.1-0.7,0.2-1.1v-0.4L87.4,16l-0.1-0.1
			c0-0.1,0.1-0.3,0.1-0.4c0-0.3,0.1-0.5,0.2-0.6c0.3-0.4,0.3-0.8,0.1-1.2h-0.1v-0.1l0.4-0.5l0.4-2.4L88,10.4l0.2-0.9l-0.3-0.4h0.3
			c0.1-0.3,0.1-0.6,0.1-0.8l0.2-0.1c0.1-0.3,0.1-0.6-0.1-0.8c-0.1-0.1-0.1-0.1-0.2-0.2V7c0-0.4,0-0.7,0.1-1.1V5.8
			c0.4-0.3,0.5-0.7,0.6-0.9V4.8c0-0.1,0.1-0.2,0.1-0.4c0-0.2,0.1-0.5,0.1-0.7l-0.4-0.8L88.4,2.8z M87.9,7.2L87.9,7.2L87.9,7.2
			L87.9,7.2z M88,7L88,7C88.1,7,88.1,7.1,88,7L88,7z"/>
		<path class="st0" d="M44.1,21.4c-0.5-1.4-1.1-1.7-1.9-2.2c-0.1-0.1-0.3-0.2-0.5-0.3c-0.1,0-0.1-0.1-0.2-0.2l-0.1-0.1
			c-0.6-0.5-1.2-0.7-1.9-0.8c-0.3-0.1-0.5-0.1-0.8-0.2c-0.8-0.3-2.4-1.6-2.2-2.3c0-0.1,0.1-0.1,0.1-0.2c0-0.1,0.1-0.1,0.1-0.2
			c0.2-0.4,0.2-0.9,0.2-1.2c0-0.1,0-0.2,0-0.3c0.1-0.4,0.4-0.7,0.7-1l0.1-0.1c0.2-0.2,0.3-0.4,0.4-0.6c0.1-0.1,0.1-0.2,0.2-0.3
			c0.4-0.6,1.5-1.4,2.2-1.4l0,0c1.1,0,2.3,0.2,3.3,0.7l0.6-0.3l0.1-0.3c0.1-0.5,0.3-0.9,0.3-1.5V8.4c0-0.4-0.1-0.5-0.4-0.8
			c-0.3-0.2-0.7-0.3-1-0.3c-0.1,0-0.2,0-0.3-0.1c-0.8-0.3-1.4-0.3-2-0.3h-0.2c-1,0-2.2,0-3.2,0.5c-0.8,0.4-1.3,1.2-1.8,2
			c-0.2,0.3-0.4,0.5-0.6,0.8c-0.5,0.6-0.9,1.1-1.1,1.9c0,0.2-0.2,0.4-0.3,0.6c-0.1,0.2-0.3,0.4-0.4,0.7c-0.2,0.6-0.2,1.3,0.2,2.1
			c0.1,0.2,0.2,0.4,0.2,0.7c0.2,0.6,0.4,1.4,0.8,1.8l0.1,0.1c0.1,0.1,0.1,0.1,0.2,0.2c0,0.1,0.1,0.3,0.3,0.5
			c0.2,0.1,0.4,0.2,0.6,0.2c0,0,0.1,0.1,0.1,0.2c0.1,0.1,0.1,0.2,0.2,0.3c0.4,0.4,0.8,0.7,1.5,0.8h0.2c0.2,0,0.4,0,0.4,0.1
			c0,0,0,0.1,0.1,0.1c0.1,0.1,0.2,0.2,0.4,0.3s0.3,0.1,0.5,0.1c0.1,0,0.1,0,0.2,0c0,0.1,0.1,0.1,0.1,0.2c0.2,0.3,0.5,0.4,0.7,0.6
			c0.3,0.2,0.6,0.4,0.7,0.7c0.1,0.2,0.1,0.3,0.1,0.5l0.2,1.2c0.1,0.6-0.2,1-0.6,1.6c-0.1,0.2-0.2,0.3-0.3,0.5
			c-0.4,0.7-1,1.2-1.8,1.4c-0.8,0.3-1.7,0.3-2.5,0c-0.3-0.1-0.6-0.4-0.9-0.7c-0.3-0.3-0.7-0.7-1.2-0.9v0.4l0,0l0,0l0,0h-0.1
			l-0.3-0.2c0,0.1-0.3,0.5-0.7,0.9l-0.1,0.1c-0.2,0.3-0.7,0.9-0.1,1.5c0.8,0.8,1.6,1.1,2.5,1.4l0.4,0.1c0.8,0.3,1.8,0.6,2.7,0.6
			c0.2,0,0.5,0,0.7-0.1l0.3-0.1c0.5-0.1,1.2-0.2,1.5-0.5c0,0,0.1-0.1,0.2-0.2c0,0,0.1,0,0.2,0c0.2,0,0.3,0,0.5,0l0.3-0.3
			c0-0.1,0-0.3,0-0.4l0,0c0.5-0.2,0.9-0.6,1.2-1.1c0.1-0.2,0.2-0.5,0.2-0.7c0-0.1,0-0.3,0.1-0.4c0.1-0.2,0.2-0.4,0.3-0.6
			s0.3-0.5,0.4-0.8c0.2-0.6,0.4-1.2,0.5-1.7c0.1-0.6-0.1-1.2-0.3-1.6L44.1,21.4z"/>
		<path class="st0" d="M18.1,15.5v-0.3c0-0.2-0.1-0.5-0.2-0.7l-0.1-0.4c-0.2-0.5-0.4-1-0.6-1.5c-0.3-0.7-0.6-1.3-1-1.9
			c-0.6-1-1.6-1.6-2.6-2.2C13,8.2,12.5,7.9,12,7.7c-0.4-0.2-0.7-0.3-1.1-0.5c-2-1.1-3.9-0.4-5,0.3C5.7,7.6,5.6,7.7,5.5,7.8l-1,0.9
			C4,8.6,3.5,8.4,3.1,8.2C2.5,8,1.9,8.2,1.5,8.7L1.4,9.2v0.1c0,0.1,0,0.3,0.1,0.4l0.2,1.4C1.8,12,2,12.8,2.1,13.7
			c0,0.3,0.1,0.6,0.1,0.9c0,0.5,0.1,1.1,0.2,1.6c0.1,0.5,0.2,1.1,0.2,1.6c0.1,0.7,0.1,1.4,0.4,2.1c0.2,0.7,0.3,1.4,0.4,2.2
			c0,0.3,0.1,0.5,0.1,0.8l0.1,0.6C3.8,25,4.1,26.6,4,28.1c0,0.2,0,0.4,0,0.6c-0.1,1.1,0,2,1.7,2.2c0.1,0,0.3,0,0.4,0
			c0.5,0,1.1-0.1,1.5-0.1c1.7-0.3,4.7-1.2,5.6-2.7c0-0.1,0.1-0.1,0.1-0.2l1.5-1.3l0.2-0.4l0,0c0.1-0.1,0.2-0.2,0.3-0.2
			c0.1-0.1,0.2-0.2,0.3-0.3l0.2-0.2c0.1-0.1,0.3-0.2,0.4-0.4c0.1-0.2,0.2-0.5,0.4-0.7c0.1-0.2,0.2-0.5,0.4-0.7
			c0.1-0.1,0.2-0.2,0.2-0.4c0.2-0.3,0.4-0.6,0.5-1c0.1-0.2,0.1-0.5,0.2-0.7c0.1-0.3,0.2-0.6,0.3-0.9c0.2-0.6,0.2-1.2,0.3-1.8v-0.2
			c0.1-0.6,0.1-1.2,0-1.7C18.2,16.6,18.2,16,18.1,15.5z M9.4,27.9C9.3,28,9.2,28,9.2,28.1c-0.3-0.4-0.7-0.7-0.9-0.8
			C8.2,27.1,8,27.1,8,27l-0.2-2.8l-0.2-0.4c-0.2-0.3-0.3-0.7-0.3-1.2c0-0.4,0-0.6-0.2-0.8c0.2-0.4,0.2-1-0.3-1.6c0-0.1,0-0.3,0-0.4
			c0-0.2,0-0.3,0-0.5l-0.1-0.8l-0.3-0.1V18l0.2-0.1l-0.7-6.4L6,11.4c0.5-0.6,0.9-1.3,1.7-1.6c0.1,0,0.3-0.1,0.4-0.2
			c0.1,0,0.2-0.1,0.3-0.1c0.7-0.2,1.2-0.2,1.7,0.2c0.2,0.2,0.5,0.2,0.7,0.3c0.1,0,0.2,0.1,0.3,0.1c1.3,0.6,2.1,1.7,2.6,3.4
			c0.1,0.3,0.2,0.6,0.3,0.9c0.1,0.2,0.2,0.5,0.3,0.7c0.3,1.2,0.3,2.4,0.3,3.3c-0.1,1.1-0.2,2.1-0.5,3c-0.2,0.7-0.4,1.3-0.7,1.7
			c-0.1,0.2-0.3,0.4-0.4,0.6c-0.1,0.1-0.2,0.3-0.3,0.4l-0.1,0.2c-0.4,0.6-0.9,1.2-1.3,1.7C10.8,26.6,10.2,27.3,9.4,27.9z"/>
		<path class="st0" d="M70.9,24.5c0-0.2,0-0.4,0-0.7c0.1-1.3-0.1-2.3-0.4-3.6l-0.8-0.5C69,19.8,68.5,19.9,68,20
			c-0.4,0.1-0.7,0.1-1.1,0.2l-0.5,1c0.1,0.2,0.2,0.3,0.2,0.5c0.2,0.5,0.5,1.1,0.6,1.6c0,0.2,0,0.5,0,0.7c0,0.4,0,0.9,0,1.3l0.1,1.1
			l-0.1,0.1c-0.4,0.6-0.9,1.2-1.6,1.4c-0.2,0.1-0.3,0.1-0.4,0.2c-0.1,0-0.2,0.1-0.2,0.1c-0.6,0.2-1.1,0.1-1.5-0.1
			c-0.2-0.1-0.4-0.2-0.6-0.3c-0.1,0-0.2-0.1-0.3-0.1c-1.2-0.6-1.9-1.6-2.3-3c-0.1-0.3-0.2-0.6-0.3-0.8c-0.1-0.2-0.2-0.4-0.3-0.7
			c-0.3-1.1-0.3-2.2-0.2-3c0.1-1,0.2-1.9,0.4-2.7c0.2-0.7,0.3-1.2,0.7-1.6c0.1-0.2,0.2-0.4,0.4-0.6c0.1-0.1,0.1-0.2,0.2-0.4
			c0.8-1.2,1.9-2,3-2.4c0.2,0,1-0.2,1.6-0.3c2.1-0.4,2.1-0.4,2.2-0.7v-0.6c-0.3-0.7-0.4-1.5-0.5-2.3L67.1,8
			c-0.6-0.3-2.3,0.7-2.4,0.8v0.1c-0.1,0-0.1,0.1-0.2,0.1c-0.2,0.1-0.5,0.2-0.8,0.2c-0.3,0.1-0.7,0.1-1.1,0.3c-0.9,0.4-1.6,1-2,1.7
			c0,0.1-0.1,0.1-0.1,0.2l-1.3,1.2L59,13c-0.1,0.1-0.2,0.1-0.3,0.2c-0.1,0.1-0.2,0.2-0.3,0.3l-0.2,0.2c-0.1,0.1-0.2,0.2-0.4,0.4
			c-0.1,0.2-0.2,0.4-0.3,0.6c-0.1,0.2-0.2,0.4-0.3,0.6c-0.1,0.1-0.1,0.2-0.2,0.3c-0.2,0.3-0.4,0.5-0.5,0.9c-0.1,0.2-0.1,0.4-0.2,0.6
			c-0.1,0.3-0.1,0.6-0.2,0.9c-0.2,0.5-0.2,1.1-0.3,1.6v0.2c-0.1,0.6-0.1,1.1,0,1.6c0,0.5,0.1,1,0.2,1.5v0.3c0,0.2,0.1,0.4,0.2,0.7
			l0.1,0.4c0.2,0.5,0.4,1,0.6,1.4c0.3,0.7,0.6,1.2,0.9,1.8c0.6,0.9,1.5,1.5,2.4,2c0.4,0.3,0.9,0.5,1.4,0.7c0.3,0.2,0.7,0.3,1,0.5
			c0.7,0.4,1.4,0.5,2,0.5c1.1,0,2-0.4,2.7-0.8c0.2-0.1,0.3-0.2,0.4-0.3c0.1-0.1,0.2-0.2,0.3-0.3c0.1-0.1,0.2-0.2,0.3-0.4
			c0,0.1,0.1,0.1,0.1,0.2c0.1,0.2,0.1,0.4,0.2,0.5l0.7,0.3l1.8-0.2c0.5-0.1,0.8-0.4,0.8-0.8c0-0.3-0.1-0.4-0.1-0.5
			C71.2,27.7,71,25.4,70.9,24.5z"/>
		<path class="st0" d="M29.8,11.2l-0.6-0.3h-0.8c-0.6,0-1.2,0-1.8,0c-0.3,0-0.6,0-0.9,0s-0.6,0-1,0c0-0.2-0.1-0.3-0.1-0.4
			c0-0.1,0-0.1,0-0.2c0-0.1,0-0.2,0-0.4s0-0.5,0-0.7c0-0.3,0-0.5,0-0.8c0-0.4,0-0.7,0-1.1V7.1l0.2-0.3l0,0c0.2,0,0.4,0,0.6,0
			s0.3-0.1,0.5-0.1c0.2,0.2,0.3,0.2,0.4,0.2c0.3,0,0.6-0.1,0.8-0.1l0,0l0.4,0.3h0.1c0.1,0,0.1,0,0.2,0h0.1c0.7,0.4,1.1,0.1,1.5-0.3
			l0.1-0.7l-0.3-0.8l0,0l-0.1-0.5c0-0.1-0.1-0.2-0.1-0.2c0-0.7-0.5-0.9-0.7-1.1h-0.7c-0.3,0.2-0.4,0.2-0.8,0.2
			c-1.8,0-5.5-0.1-5.5-0.1l-0.7,0.8c0,0,0.2,1.6,0.2,1.9v0.3C21,7,21,7.4,21.1,7.8v0.5c0,0.2,0,0.3,0,0.5c0,0.1,0,0.2,0,0.4v0.4
			c0,0.2,0,0.3,0,0.5s0,0.3,0.1,0.5c0,0.2,0.1,0.5,0,0.6c-0.1,0.6,0,1.2,0,1.7c0,0.2,0,0.4,0,0.6c0,0.5,0,1,0,1.5v0.2l-0.1,0.7
			c0,0.5-0.1,1-0.1,1.4s0,0.9,0,1.3c0,0.3,0,0.5,0,0.8c0,0.1,0,0.3,0,0.4c0,0.2,0,0.3,0,0.5c0,0.8,0,1.6,0,2.4v1.5
			c0,0.5,0.1,1,0.4,1.5l0.7,0.3c0.1,0,0.2,0,0.4,0.1c0.3,0.2,0.6,0.3,0.9,0.4s0.6,0.1,1,0.1c0.3,0,0.6,0,0.9-0.1
			c0.6-0.2,1.2-0.3,1.8-0.3c0.2,0,0.3,0,0.5,0c0.3,0.1,0.7,0.1,0.9,0.1c0.1,0.1,0.3,0.2,0.5,0.2c0.4,0,0.6-0.2,0.7-0.4l-0.1-1
			L29.5,25c-0.3-0.2-0.6-0.5-1-0.7c-0.4-0.3-1-0.5-1.4-0.5c-0.3,0-0.6,0-0.9,0c-0.5,0-1,0-1.5,0c0-0.4,0-0.8,0-1.3
			c0-0.6,0-1.3,0-1.9c0-0.3,0-0.6,0-0.9c0-0.2,0-0.4,0-0.6s0-0.4,0-0.6c0-0.3,0-0.6,0-0.9c0-0.2,0-0.3,0-0.5c0-0.3,0-0.6,0-1
			c0-0.4,0-0.8,0.1-1.2c0-0.1,0-0.1,0-0.2l0,0c0.2,0,0.5,0.1,0.9-0.2c0.3,0,0.7,0,1,0c0.2,0,0.3,0,0.5,0l0,0
			c0.6,0.2,1.1,0.2,1.6,0.2c0.3,0,0.6,0,0.9,0h0.4l0.7-0.8c0-0.3-0.1-0.6-0.3-0.9C30.6,12.3,30.2,11.7,29.8,11.2z M24.1,20.8
			L24.1,20.8c0.1,0,0.1,0,0.2,0H24.1z"/>
		<path class="st0" d="M53.6,30.1l-0.1-0.4c-0.1-0.5-0.1-1-0.1-1.5c0-0.3,0-0.7-0.1-0.9c-0.1-0.2-0.1-0.5-0.1-0.7s0-0.4-0.1-0.6
			c0-0.2,0-0.5-0.1-0.8c0-0.2,0-0.4,0-0.6c0-0.5-0.1-1-0.2-1.5l-0.1-0.4c0-0.1,0-0.1,0-0.2v-0.1l-0.3-4.5c0.1-0.5,0.1-0.9-0.1-1.4
			v-0.4c0-0.1,0.1-0.2,0.1-0.4c0-0.3,0-0.5,0-0.8v-0.2c0-0.5-0.1-1-0.1-1.5c0-0.1,0-0.2,0-0.3v-0.1h-0.1c0-0.1-0.1-0.3-0.2-0.5
			l0.1-0.1c0-0.1,0-0.3,0-0.4c0-0.4,0-0.8-0.3-1.2l-0.2-0.2c0-0.1,0-0.1,0-0.2c0-0.2,0-0.4,0.1-0.5l-0.1-0.8c0,0.1,0.1,0.2,0.1,0.2
			c0.1-1-0.3-1.8-1.2-2.1L50,6.8c-0.5-0.2-0.9,0-1.1,0.2l-0.2,0.7V8c0,0.1,0,0.1,0,0.3c0,0.4,0,0.8,0,1.1c0,1,0,2.1,0.2,3.2
			c0,0.3,0.1,0.5,0.1,0.8l0.1,1.2c0,0.6,0.1,1.1,0.1,1.7c0,0.3,0,0.6,0,0.9s0,0.6,0,0.8c0,0.8,0.1,1.5,0.2,2.3
			c0.1,0.7,0.1,1.4,0.2,2l0.1,0.8c0,0.1,0,0.1,0,0.1l0.1,0.4c0,0.4,0.1,0.7,0.1,1.1S50,25.6,50,26c0,0.5,0.1,1,0.1,1.5
			c0,0.3,0.1,0.5,0.1,0.8c0.1,0.7,0.2,1.3,0.1,1.9c0,0.2,0.1,0.4,0.2,0.6l1,0.4c-0.1,0.1-0.3,0-0.4-0.1c0.4,0.5,0.9,0.5,1.2,0.5
			l0.7,0.3l0.9-0.3l0.1-0.2l0.1-0.4v-0.2C53.6,30.3,53.6,30.2,53.6,30.1z"/>
		<path class="st0" d="M172.1,3.5c-0.2-0.1-0.4-0.3-0.6-0.4c-0.1-0.1-0.3-0.1-0.4-0.2c-0.1,0-0.2-0.1-0.2-0.1
			c-0.4-0.2-0.8-0.2-1.2,0.1l-0.3,0.6V4c0,0.2,0,0.5-0.1,0.7c-0.1,0.3-0.1,0.7-0.2,1c-0.1,0.3-0.1,0.7-0.2,1v0.1
			c-0.1,0.8-0.3,1.5-0.5,2.3c-0.1,0.3-0.1,0.6-0.2,0.9c0,0.2-0.1,0.3-0.1,0.5l-0.5,2.1c-0.1,0.4-0.2,0.8-0.3,1.2
			c-0.1,0.3-0.1,0.7-0.2,1c0,0.3-0.1,0.6-0.1,0.9c-0.2,0.9-0.3,1.8-0.5,2.8c-0.1,0.3-0.1,0.6-0.2,0.9c-0.1-0.3-0.1-0.6-0.2-0.9
			c-0.1-0.3-0.1-0.5-0.2-0.8c-0.1-0.3-0.1-0.6-0.2-0.9c-0.1-0.5-0.2-1-0.3-1.5c-0.1-0.4-0.1-0.8-0.2-1.3c0-0.2-0.1-0.4-0.1-0.6
			c-0.1-0.2-0.1-0.4-0.1-0.7c-0.1-0.5-0.2-0.9-0.3-1.4c-0.1-0.3-0.2-0.6-0.2-0.8c-0.1-0.2-0.1-0.5-0.2-0.7c-0.1-0.3-0.1-0.6-0.2-0.9
			c0-0.1,0-0.3,0-0.4c0-0.3-0.1-0.7-0.2-1.1c0-0.3,0-0.5-0.1-0.7c0-0.1,0-0.2,0-0.3c0-0.4-0.3-0.7-0.7-1c-0.2-0.1-0.4-0.3-0.6-0.4
			c-0.4-0.3-0.8-0.4-1.4-0.3l-0.5,0.4c0,0.1-0.1,0.2-0.1,0.4v0.4c0,0.2,0,0.4-0.1,0.6l-0.1,0.2c0,0.2-0.1,0.4-0.1,0.5
			c-0.1,0.4-0.1,0.7-0.2,1.1c-0.2,0.6-0.3,1.3-0.3,1.9v0.3c-0.1,0.7-0.2,1.4-0.4,2.1c-0.1,0.4-0.1,0.7-0.2,1.1l-0.1,0.4
			c0,0.2,0,0.3-0.1,0.5c0,0.1,0,0.3-0.1,0.4c0,0.1,0,0.3-0.1,0.4c0,0.2-0.1,0.3-0.1,0.5l-0.1,0.8c0,0.3-0.1,0.7-0.1,1
			c0,0.1,0,0.2-0.1,0.3l-0.1,0.2c-0.1,0.4-0.1,0.8-0.2,1.1c0,0.3-0.1,0.5-0.1,0.8c-0.2,0.9-0.4,1.8-0.6,2.7
			c-0.1,0.4-0.3,1.2,0.3,1.9l0.5,0.4l0.8,0.2l0.9-0.4l0.2-0.5c0-0.1,0.1-0.3,0.1-0.4l0.1-1.3c0.1-0.3,0.2-0.7,0.3-1.2
			c0-0.1,0-0.2,0.1-0.3c0-0.1,0-0.2,0.1-0.4c0-0.2,0.1-0.4,0-0.7V20v-0.1c0-0.1,0-0.2,0.1-0.4c0-0.1,0.1-0.3,0.1-0.4s0-0.2,0-0.3
			c0-0.1,0-0.2,0-0.3c0.1-0.2,0.1-0.4,0.1-0.5s0-0.1,0-0.2l0.1-0.6c0-0.1,0-0.2,0-0.3l0.5-2.4l-0.3-0.7c0.2,0.1,0.2,0.3,0.2,0.4
			v-0.1c0-0.1,0-0.1,0.1-0.2c0.2-0.4,0.3-0.8,0.2-1.3c0.1-0.2,0.1-0.4,0.2-0.5c0.1,0.3,0.1,0.6,0.2,0.9c0.1,0.5,0.2,0.9,0.3,1.4
			s0.2,1,0.3,1.5c0.2,0.9,0.3,1.7,0.5,2.6c0,0.2,0.1,0.4,0.1,0.6c0.1,0.3,0.2,0.7,0.2,1s0.1,0.5,0.1,0.8l0.1,0.4
			c0.1,0.3,0.1,0.7,0.2,1c0.1,0.3,0.2,0.6,0.2,0.9l0.5,2l0.5,0.5c0,0,0.1,0.1,0.2,0.1c0.2,0.2,0.5,0.4,1,0.5l0,0
			c0.3,0.1,0.6,0.2,0.8,0.3l0.7-0.5c0-0.1,0-0.1,0.1-0.2v-0.1c0.4-0.6,0.6-1.3,0.8-2c0-0.1,0-0.2,0-0.3c0.1-0.4,0.2-0.9,0.1-1.4
			c0-0.1,0-0.2-0.1-0.2l0.1-0.3c0.1-0.1,0.2-0.2,0.2-0.4c0.1-0.3,0.2-0.6,0.2-0.8c0-0.2,0.1-0.3,0.1-0.5l0.1-0.3
			c0-0.2,0.1-0.3,0.1-0.5c0.1-0.3,0.1-0.6,0.2-0.8c0-0.2,0-0.4,0.1-0.6s0.1-0.4,0.1-0.7c0-0.1,0-0.3,0.1-0.4c0.1-0.3,0.1-0.7,0.2-1
			l0.1-0.3c0-0.2-0.1-0.4-0.1-0.4h-0.1c0-0.1,0.1-0.2,0.1-0.3c0.1-0.2,0.1-0.4,0.2-0.5c0.4-0.5,0.2-0.9,0.2-1.1h-0.1c0,0,0,0,0-0.1
			l0.3-0.4l0.4-2.1l-0.1-0.2l0.2-0.8L171.2,9h0.3c0.1-0.3,0.1-0.5,0.1-0.7h0.2c0.1-0.3,0.1-0.6-0.1-0.8c-0.1-0.1-0.2-0.2-0.3-0.3V7
			c0.1,0.1,0.1,0.2,0.2,0.3c0-0.3,0-0.6,0.1-0.9c0,0,0,0,0-0.1c0.4-0.2,0.5-0.6,0.5-0.8V5.4c0-0.1,0.1-0.2,0.1-0.3
			c0.1-0.2,0.2-0.5,0.2-0.7l-0.3-0.7L172.1,3.5z M166.5,22.9L166.5,22.9L166.5,22.9L166.5,22.9L166.5,22.9L166.5,22.9L166.5,22.9z
			 M170.7,13L170.7,13L170.7,13L170.7,13z M171.6,7.4L171.6,7.4L171.6,7.4h-0.1V7.3C171.6,7.3,171.6,7.4,171.6,7.4z"/>
		<path class="st0" d="M214.1,7c0-0.3-0.1-0.5-0.2-0.8c-0.1-0.4-0.2-0.7-0.3-1c-0.2-0.6-0.7-1-1.1-1.4c-0.2-0.2-0.4-0.3-0.7-0.5
			c-0.1-0.1-0.3-0.2-0.4-0.3c-0.7-0.6-1.6-0.7-2.7-0.4c-0.2,0-0.3,0.1-0.3,0.2L208.1,3l-0.4-0.2c-0.4-0.2-0.8-0.2-1.2,0.1l-0.3,0.5
			v0.8c0,0.4,0,0.9,0,1.3c0,0.1,0,0.3,0,0.4c0,0.3,0,0.5,0,0.8c0,0.2,0,0.5,0,0.7c0,0.3-0.1,0.7,0,1.1c0,0.3,0,0.6,0,1v0.4
			c0,0.5,0,1-0.1,1.5c0,0.5-0.1,0.9-0.1,1.4l-0.1,1.1c0,0.3-0.1,0.6-0.1,1c0,0.2-0.1,0.5-0.1,0.7s-0.1,0.5-0.1,0.7
			c0,0.4-0.1,0.7-0.1,1.1l-0.1,0.9c0,0.2,0,0.3-0.1,0.5c0,0.7-0.1,1.3-0.1,2l-0.2,2.6c0,0.6-0.1,1.1-0.1,1.7c0,0.3-0.1,0.7-0.1,1
			l-0.1,0.6l0.4,0.7l0.2,0.1c0.3,0.2,0.7,0.5,1.2,0.5c0.3,0.1,0.6,0.1,0.9,0.1c0.8,0,1.6-0.2,2.3-0.4c0.3-0.1,0.5-0.1,0.7-0.2
			c0.5-0.1,0.7-0.4,0.8-0.6c0.9-0.2,1.7-1.2,2-1.6s0.4-0.9,0.5-1.3c0.2-0.5,0.3-1.1,0.2-1.7c0.4-0.5,0.2-1.1,0.1-1.4
			c0-0.1,0-0.2-0.1-0.2c0-0.2,0-0.4,0-0.6c0-0.3,0-0.6-0.1-1c0-0.1-0.1-0.3-0.2-0.5l-0.1-0.1l0,0c0-0.1,0-0.2,0-0.2
			c0-0.5-0.2-0.9-0.3-1.1s-0.2-0.5-0.3-0.7c-0.5-1.1-1-2.3-2.1-3.1l0.6-0.4l0.2-0.2c0.1,0,0.1,0,0.1-0.1c0.1,0,0.1-0.1,0.2-0.2
			c0.1,0,0.2-0.1,0.3-0.2c0.1-0.1,0.2-0.2,0.2-0.3c0.1-0.1,0.1-0.2,0.2-0.3l0.1-0.1c0.1-0.1,0.3-0.3,0.4-0.5l0.2-0.3
			c0.1-0.1,0.1-0.3,0.2-0.4c0.2-0.3,0.2-0.6,0.3-0.9V9.4c0.1-0.3,0.1-0.6,0.2-0.8c0-0.3,0-0.5,0.1-0.8V7.7c0-0.1,0-0.3,0-0.4
			L214.1,7z M208.7,24.9c-0.2,0-0.4,0-0.5,0.1c-0.1,0-0.3,0-0.4,0c0-0.1,0-0.2,0-0.2c0-0.3,0-0.6,0-0.9c0,0,0-0.1,0-0.2
			c0-0.2,0.1-0.4,0-0.6c0,0,0-0.1,0-0.2s0-0.2,0-0.2l-0.1-0.1c0.2-0.3,0.2-0.5,0.2-0.7v-0.2c0-0.2,0-0.3,0-0.5c0-0.3,0-0.5,0-0.8
			c0.1-0.1,0.1-0.4,0.1-0.6v-0.1c0.1-0.2,0.1-0.3,0.1-0.5l-0.1-0.5v-0.3v-0.1l0.2-0.4v-0.7l-0.1-0.1l0,0c0-0.1,0-0.1,0-0.2
			s0-0.1,0.1-0.2l0.1-0.1v-0.3l0,0c-0.1,0.2-0.2,0.3-0.3,0.4l0.3-0.7v-0.1c0,0,0,0,0,0.1v-0.1V16c0-0.1,0-0.1,0-0.2l0,0l0,0
			c0-0.1,0-0.1,0.1-0.2c0-0.1,0.1-0.1,0.1-0.2c0.2,0.2,0.4,0.2,0.5,0.3c0,0.1,0.1,0.2,0.1,0.2c0.1,0.2,0.3,0.3,0.4,0.4h0.1l0,0
			c0,0.1,0,0.2,0.1,0.4c0.1,0.3,0.3,0.5,0.4,0.6c0,0.1,0,0.3,0.1,0.5c0,0.1,0.1,0.2,0.2,0.2c-0.1,0.5,0.1,0.9,0.3,1.1
			c0,0.1,0.1,0.2,0.1,0.2c0.1,0.4,0.2,0.8,0.3,1.2c0.1,0.8,0.3,1.7,0,2.4c-0.3,0.6-0.7,1.4-1.2,1.5c-0.2,0.1-0.5,0.1-0.8,0.2
			L208.7,24.9z M210.6,10.2c0,0-0.1,0.1-0.2,0.2c-0.2,0.2-0.4,0.4-0.7,0.6c-0.2,0.2-0.4,0.3-0.6,0.5c-0.1-0.1-0.1-0.1-0.2-0.2l0.1-1
			V9.9c0,0,0-0.1,0-0.2c0-0.2,0-0.3,0-0.4c0.1-0.2,0.1-0.5,0-0.8l0,0c0-0.1,0-0.2,0-0.3V7.9V7.7l0,0V7.6h0.1l0.2-2.6
			c0.2-0.2,0.4-0.3,0.5-0.3s0.2,0,0.3-0.1c0.2,0,0.3,0,0.4,0.1c0.1,0.1,0.2,0.2,0.3,0.2h0.2c0.4,0.3,0.6,0.7,0.7,1.3
			c0,0.2,0,0.3,0.1,0.4c0,0.1,0,0.2,0.1,0.3c0,0.3,0,0.7-0.1,1.3c-0.1,0.4-0.2,0.8-0.4,1.1c-0.1,0.2-0.2,0.4-0.3,0.5
			C210.8,10,210.7,10.1,210.6,10.2z"/>
		<path class="st0" d="M200.9,22.6c0-0.4-0.1-0.7-0.1-1.1c0-0.1,0-0.2,0-0.4c0-0.3,0-0.5-0.1-0.8c0-0.2-0.1-0.4-0.1-0.6
			c0-0.3,0-0.7-0.1-1s-0.1-0.6-0.1-0.9v-0.4c0-0.4-0.1-0.9-0.1-1.3c0-0.4,0-0.8,0-1.2v-1.2c0-0.3,0-0.6,0-0.8s0-0.4,0-0.7
			c0-0.2,0-0.4,0-0.7s0-0.6,0-0.9V9.7c0-0.2,0-0.3,0-0.5c0-0.6-0.1-1.2-0.1-1.9l-0.3-3.9c0-0.3,0-0.6,0-0.9V1.9L199,1.4l-0.3-0.1
			c-0.5-0.2-1.1-0.4-1.8-0.3l-0.6,0.9l0.1,0.7l0,0v0.3l-0.1,0.4l0.1,0.2l-0.1,0.1v0.1c0,0.1,0,0.2,0,0.3c0,0.1,0,0.2,0,0.2
			c0,0.2,0,0.6,0.2,0.8v0.1c0,0.2,0,0.4,0,0.6v0.1c0,0.1,0,0.1,0,0.2l0.1,0.1c-0.1,0.3-0.1,0.5-0.1,0.7V7c0,0.1,0.1,0.3,0,0.4
			c0,0.3,0,0.5,0.1,0.7c0,0.1-0.1,0.4,0,0.6l0,0c0,0.2,0,0.3,0,0.5l0.1,0.3c-0.6-0.1-1.3,0-1.9,0.1c-0.6,0.1-1.2,0.2-1.7,0
			c-0.2-0.1-0.3-0.1-0.4-0.1c0-0.3-0.1-0.7-0.5-1.1c0,0,0-0.1,0-0.2c0-0.2,0-0.3,0-0.4c0-0.2,0-0.4-0.1-0.7c0-0.1,0-0.2,0-0.3V6.5
			L192,6.6l0.1-0.1V6.4h0.2l-0.2-2.6L192,3.5V3.4c0-0.2,0-0.3-0.1-0.5V2.8l-1.1-0.5l-0.1,0.1c-0.2-0.1-0.3-0.1-0.5-0.2
			c-0.4-0.2-0.8-0.1-1.1,0.2L188.9,3l0.1,0.7c0,0.4,0.1,0.8,0.1,1.2c0,0.1,0,0.3,0,0.4c0,0.3,0,0.5,0.1,0.8c0,0.2,0.1,0.4,0.1,0.6
			c0,0.3,0,0.6,0.1,1c0.1,0.3,0.1,0.6,0.1,0.9V9c0,0.4,0.1,0.9,0.1,1.3c0,0.4,0,0.8,0.1,1.3v1.1c0,0.3,0,0.6,0,0.9
			c0,0.2,0,0.5,0,0.7s0,0.4,0,0.6c0,0.3,0,0.6,0,0.9v0.9c0,0.2,0,0.3,0,0.5c0,0.6,0.1,1.1,0.1,1.7l0.3,4.1c0,0.3,0,0.5,0,0.8v0.7
			l0.5,0.6l0.3,0.1c0.4,0.2,0.9,0.4,1.4,0.4c0.1,0,0.2,0,0.4,0l0.6-0.8l-0.1-0.4l-0.1-0.7l0,0v-0.2l-0.1-0.2l0.1-0.1v-0.1
			c0-0.1,0-0.2,0-0.3c0-0.1,0-0.2,0-0.2c0-0.2,0-0.6-0.2-0.8v-0.1c0-0.2,0-0.4,0-0.6V21c0-0.1,0-0.2,0-0.2l-0.1-0.1
			c0.1-0.3,0.1-0.5,0.1-0.7v-0.2c0-0.1-0.1-0.3-0.1-0.4c0-0.3,0-0.5-0.1-0.7c0-0.2,0.1-0.4,0-0.6l0,0c0-0.2,0-0.3,0-0.5l-0.2-0.5
			v-0.3l0,0l0.2-0.4l-0.1-0.7l-0.1-0.1l0,0v-0.1v-0.1v-0.1l-0.1-0.3l0,0c0,0.2-0.2,0.4-0.3,0.4l0.2-0.7v-0.1c0,0,0,0,0.1,0.1v-0.2
			c-0.1-0.1,0-0.5,0-0.9c0.9,0.2,1.9,0.1,2.7-0.1c0.6-0.1,1.2-0.2,1.7-0.2c0,0.3-0.1,0.8-0.1,1.1c0,0.2,0,0.4-0.1,0.5h0.2l-0.2,0.2
			c0.1,0.5,0.1,1.1,0.1,1.7v0.1c0,0.1,0,0.1,0,0.1l-0.1,0.5c0.1,0.3,0.2,0.6,0.4,0.9c0,0,0,0.1,0,0.2c0,0.2,0,0.3,0,0.4
			c0,0.2,0,0.4,0.1,0.7c0,0.1,0,0.2,0,0.2v0.3l0.3,0.1v0.1h-0.3l0.2,2.6l0.1,0.3c0,0,0,0,0,0.1c0,0.2,0,0.3,0.1,0.5V24l1.1,0.5
			l0.1-0.1l0.5,0.2c0.4,0.2,0.8,0.1,1.1-0.2l0.2-0.6c0-0.1,0-0.1,0-0.2L200.9,22.6z M196.7,3.3L196.7,3.3L196.7,3.3L196.7,3.3z
			 M193.1,23.1C193.1,23.1,193.1,23.2,193.1,23.1L193.1,23.1L193.1,23.1z M192.1,16.3L192.1,16.3c0-0.1,0-0.1-0.1-0.2l0,0
			L192.1,16.3L192.1,16.3l-0.1,0.1l0,0L192.1,16.3L192.1,16.3z M192,16.4L192,16.4L192,16.4L192,16.4z M192,6.4L192,6.4L192,6.4
			L192,6.4z"/>
		<path class="st0" d="M139.5,24.1c0,0-0.1,0-0.2-0.1c-0.2-0.1-0.3-0.2-0.6-0.2s-0.6,0-0.8,0.1c-0.4,0.1-0.6,0-1-0.1
			c-0.3-0.1-0.7-0.2-1.2-0.2l0,0c-0.9,0-1.7,0-2.6-0.1H133c-0.1-0.1,0-0.7,0-1c0-0.1,0-0.2,0.1-0.3c0-0.3,0.1-0.6,0.1-0.9l0.1-0.6
			c0-0.3,0.1-0.7,0.1-1c0-0.1,0-0.3,0-0.3c0.1-0.4,0.2-0.8,0.2-1.1V18c0-0.1,0-0.1,0.1-0.3c0-0.2,0.1-0.4,0-0.7c0-0.1,0-0.2,0-0.3
			c0-0.2,0.1-0.3,0-0.5c0.1-0.3,0.1-0.5,0.1-0.7v-0.1c0.1-0.3,0.2-0.6,0.1-0.9c0-0.1,0-0.3,0.1-0.6c0.2-0.4,0.3-0.8,0.1-1.2v-0.2
			c0-0.4,0.1-0.8,0.1-1.2v-0.1l0.1-0.2c0-0.1,0.1-0.2,0.1-0.4s0.1-0.4,0.1-0.7V9.6V9.5l0.1-0.4c0-0.1,0-0.3,0-0.4c0-0.3,0.1-0.6,0-1
			c0,0,0,0,0-0.1c0.4-0.4,0.4-0.7,0.4-0.8s0-0.2,0-0.3c0-0.2,0.1-0.4,0-0.7c0.2-0.5,0.2-0.9,0.2-1.4c0-0.1,0-0.3,0-0.5
			c0-0.1,0-0.1,0-0.2c0-0.2,0.1-0.4,0.1-0.6c0-0.4,0-0.8,0.1-1.2l-0.3-0.8c-0.1-0.1-0.2-0.2-0.4-0.3c-0.5-0.2-0.9-0.3-1.3-0.3h-0.1
			h-0.1l-0.7,0.2c-0.3,0.4-0.3,0.6-0.3,1v0.2c0,0.4,0,0.8,0,1.3c0,0.2,0,0.4,0,0.7c0,0.2,0,0.3,0,0.5c0,0.1,0,0.2,0,0.3
			C132,5,132,5.4,132,5.8c0,0.3,0,0.6-0.1,0.9c-0.1,0.6-0.2,1.3-0.2,1.9c0,0.1,0,0.2-0.1,0.4c-0.1,0.3-0.1,0.6-0.1,0.9
			c-0.1,0.4-0.2,0.8-0.2,1.1c0,0.2,0,0.4-0.1,0.5c-0.1,0.3-0.1,0.6-0.1,0.9l-0.1,0.7c0,0.3,0,0.5-0.1,0.8c-0.1,0.5-0.2,0.9-0.2,1.4
			c0,0.2-0.1,0.4-0.1,0.6c0,0.3-0.1,0.6-0.1,0.9c0,0.1,0,0.3,0,0.4s0,0.3,0,0.4l-0.2,2.1c0,0.4-0.1,0.8-0.1,1.1
			c0,0.2-0.1,0.4-0.1,0.6c0,0.3-0.1,0.5-0.1,0.8s-0.1,0.5-0.2,0.8c-0.1,0.6-0.3,1.4-0.2,2.1c0.2,1.2,1.2,1.3,1.9,1.3
			c0.1,0,0.2,0,0.3,0h0.2l0,0l0,0c0.9,0.1,1.8,0.2,2.7,0.2c1.6,0.1,3.2,0.2,4.7,0.5l0.8-0.5l0.3-1.5c0-0.1,0.1-0.5-0.1-0.8
			C140.3,24.1,140,24,139.5,24.1z"/>
		<path class="st0" d="M154.9,18.3c0-0.2-0.1-0.4-0.2-0.5c0-0.2,0-0.4,0-0.6l-0.7,0.1l0,0l0,0l0,0l0.7-0.1l0,0
			c-0.1-0.3-0.2-0.6-0.3-0.8c0-0.1,0.1-0.3,0.1-0.5c0-0.5-0.2-1.1-0.3-1.6l-0.1-0.2c-0.1-0.2-0.1-0.5-0.2-0.7
			c-0.1-0.5-0.2-0.9-0.4-1.4c0-0.4-0.1-0.8-0.2-1.1c-0.1-0.2-0.1-0.3-0.1-0.5c-0.1-0.7-0.3-1.5-0.5-2.3c-0.1-0.4-0.1-0.7-0.2-1.1
			c-0.1-0.5-0.1-1-0.3-1.4c0-0.1,0-0.2,0-0.4c0-0.4,0-0.8-0.2-1.2c-0.5-0.7-1.4-0.5-1.7-0.4h-0.1c-0.8,0.2-1.3,0.6-1.1,1.7l0.6,3.2
			c0.1,0.5,0.2,1.1,0.2,1.6c0,0.1,0,0.2,0,0.3c0,0.3,0,0.6,0,0.9c0.1,0.5,0.3,0.9,0.4,1.3c0.2,0.4,0.3,0.7,0.4,1.1
			c0,0.1,0,0.3,0.1,0.5s0.1,0.3,0.2,0.4l0.1,0.1c0,0.1,0.1,0.3,0.1,0.4c0,0.2,0,0.4,0,0.6c0,0.4,0,0.8,0.1,1.2
			c0,0.3,0.1,0.6,0.2,0.8c0.1,0.3,0.2,0.5,0.2,0.7c0,0.3,0,0.6,0.1,0.9c0,0.2,0,0.3,0.1,0.5c0,0.1-0.1,0.2-0.1,0.3
			c0,0.1,0,0.1,0,0.2s-0.1,0.2-0.1,0.3c0,0.1,0,0.1,0,0.2c-0.1,0.2-0.2,0.4-0.2,0.6c-0.1,0.2-0.1,0.3-0.2,0.3
			c-0.4,0.3-0.8,0.5-1.5,0.6c-0.5,0.1-1,0.2-1.5,0.1c-1.3-0.2-2.2-1.6-2.6-2.4v-0.1c0.1-0.6,0.1-0.8-0.1-1.3l-0.1-0.2
			c-0.2-0.4-0.3-0.9-0.4-1.6c0-0.1,0-0.1,0-0.2s0-0.2,0.1-0.3c0-0.2,0-0.4-0.1-0.5l-0.4-1.9c-0.1-0.5-0.2-1-0.3-1.6
			c0-0.1,0-0.3-0.1-0.4l-0.2-1.8c0-0.3-0.1-0.7-0.1-1c-0.1-0.4-0.1-0.7-0.2-1.1l-0.4-2.4L142.7,5c-0.4,0-0.7,0.1-1.1,0.2h-0.1
			c-0.6,0.1-1.2,0.4-1.3,1.4c0,0.6,0.2,1.3,0.3,1.8c0.1,0.2,0.1,0.4,0.2,0.6c0.1,0.3,0.2,0.7,0.3,1c0.1,0.8,0.3,1.6,0.5,2.3
			c0,0.2,0.1,0.3,0.1,0.5c0,0.3,0.1,0.7,0.3,1.1c0,0.5,0.1,1,0.2,1.5c0,0.2,0.1,0.5,0.1,0.7c0,0.4,0.1,0.7,0.2,1.1
			c0,0.2,0.1,0.3,0.1,0.5l0.1,0.4c0.1,0.4,0.1,0.7,0.2,1c0.1,0.8,0.1,1.9,0.8,2.9c0.1,0.1,0.2,0.2,0.2,0.3c0.1,0.2,0.2,0.3,0.3,0.4
			c0,0.1,0.1,0.1,0.1,0.2c0.1,0.3,0.3,0.9,0.9,1.1c0.3,0.4,0.7,0.6,0.9,0.7c0.3,0.1,0.5,0.2,0.8,0.3c0.3,0.2,0.7,0.3,1,0.4
			c0.2,0,0.3,0.1,0.4,0.1c0.3,0,0.5-0.1,0.7-0.2c0.1,0,0.1,0,0.1,0c0.1,0,0.2,0.1,0.3,0.1c0.4,0.1,0.8-0.1,1-0.3c0,0,0.1,0,0.1-0.1
			h0.2c0.1,0,0.1,0,0.2,0c0.3,0,0.7,0.1,1.1-0.2c0.1-0.1,0.2-0.1,0.2-0.2c0,0,0.1,0,0.2,0c0.3,0,0.7,0,1.1-0.3
			c0.4-0.2,0.7-0.6,0.9-0.9c0.1-0.1,0.2-0.2,0.3-0.3c0.2-0.3,0.6-0.6,0.7-1.1c0.1-0.2,0.1-0.5,0.1-0.6v-0.1c0-0.3,0-0.6,0-0.9
			s0-0.6,0-0.9s0-0.5,0-0.7v-0.2c0,0,0-0.1,0-0.2C154.9,18.8,154.9,18.6,154.9,18.3z M153.9,17.4L153.9,17.4L153.9,17.4L153.9,17.4
			L153.9,17.4z"/>
		<path class="st0" d="M227.5,13.2c0-0.7-0.1-1.3-0.2-2c0-0.3,0-0.5-0.1-0.8c0-0.4,0-0.7-0.1-1.1c-0.2-0.9-0.4-1.7-0.6-2.4
			c-0.3-1.2-0.7-2.2-1.2-3.1c-0.2-0.5-0.5-0.9-0.8-1.3c-0.2-0.2-0.4-0.4-0.5-0.5c-0.1-0.1-0.2-0.1-0.2-0.2V1.7
			c0-0.1-0.1-0.3-0.2-0.4c-0.2-0.3-0.5-0.4-0.7-0.5l-0.1-0.1c-0.1-0.1-0.4-0.3-0.8-0.2c0,0,0,0-0.1,0l-0.7-0.4
			c-0.1-0.1-0.4-0.2-0.7-0.1s-0.5,0.3-0.6,0.4c-0.2,0.2-0.2,0.2-0.3,0.3c-4,1.8-3.4,9.5-3.1,14.2c0,0.4,0.1,0.8,0.1,1.2
			c0.1,0.4,0.1,0.8,0.1,1.3c0,0.3,0.1,0.6,0.1,0.8c0,0.1,0.1,0.2,0.1,0.4c0.1,0.8,0.2,1.2,0.6,1.9c0.1,0.1,0.1,0.2,0.1,0.4
			c0,0.2,0,0.5,0.1,0.8s0.3,0.7,0.8,0.9c0.1,0.4,0.4,0.6,0.5,0.8c0.1,0.1,0.2,0.2,0.2,0.3c0,0.1,0,0.1,0,0.2s0,0.2,0.1,0.2
			c0.1,0.4,0.4,0.7,0.8,0.9c0.3,0.6,0.9,0.6,1.1,0.6h0.1l0.3,0.1c0.5,0.2,0.9,0.4,1.4,0.4c0.1,0,0.2,0,0.3,0c1.2-0.2,2.2-1.2,3-2.9
			c0-0.1,0.1-0.1,0.2-0.2c0.2-0.3,0.6-0.7,0.6-1.4c0-0.1,0-0.2,0-0.3v-0.1c0-0.4,0.1-0.9,0.2-1.4c0.1-0.3,0.1-0.7,0.2-0.9
			c0.1-0.9,0.1-1.8,0.1-2.8c0-0.5-0.1-1.1-0.1-1.6C227.6,14,227.5,13.6,227.5,13.2z M219.2,14.9l-0.1-0.4l0.5-0.6
			c-0.1-0.2-0.1-0.3-0.1-0.4c0-0.1,0.1-0.2,0.1-0.3s0-0.2,0-0.4v-0.6c0-0.4,0-0.7,0-1.1c0-0.3-0.1-0.6-0.1-0.9
			c0-0.2-0.1-0.4-0.1-0.6c0-0.1,0-0.2,0.1-0.4c0-0.2,0.1-0.5,0.1-0.8c0-0.2,0-0.3-0.1-0.5c0-0.1-0.1-0.2,0-0.3c0-0.1,0-0.2,0-0.3
			c0-0.1,0-0.2,0-0.3V6.9c0.1-0.1,0.2-0.3,0.3-0.6c0-0.1,0-0.3,0-0.4V5.8l0.1-0.2c0-0.1,0.1-0.2,0.1-0.3c0.1-0.1,0.1-0.3,0.1-0.4
			c0-0.2,0.1-0.3,0.2-0.4c0.2-0.5,0.4-0.6,0.4-0.6s0.2,0,0.3,0.2c0.1,0.1,0.2,0.2,0.3,0.3c0.1,0.1,0.2,0.1,0.3,0.2
			c0,0.1,0.1,0.1,0.1,0.2c0.1,0.1,0.4,0.4,0.8,0.3c0,0,0,0.1,0,0.2s0,0.3,0.1,0.5c0.1,0.1,0.2,0.3,0.4,0.4c0.1,0.5,0.2,1,0.5,1.4
			c0.2,0.4,0.5,1.3,0.6,2l0.1,0.4c0.3,1.3,0.4,2.6,0.5,3.6c0.1,1.2,0,2.2,0,3.3c-0.2,2.3-0.3,2.8-0.3,2.8c0-0.1,0.1-0.2,0.4-0.3
			l0.1,0.4l-0.5,0.3l0.1-0.1l-0.1,0.1l-0.1,0.1l0,0l0,0c-0.2,0.2-0.3,0.5-0.3,0.8c-0.1,0.4-0.7,0.9-0.9,1c-0.1,0-0.4-0.1-0.6-0.2
			l-0.3,0.7l0,0l0.3-0.7c-0.2-0.1-0.4-0.2-0.5-0.2c-0.2-0.1-0.2-0.1-0.3-0.1c-0.1-0.1-0.2-0.2-0.4-0.3c-0.1,0-0.2,0-0.3,0
			c0-0.1,0-0.2,0-0.3c0-0.2,0-0.3,0-0.5c-0.1-0.6-0.3-1.1-0.4-1.7c-0.1-0.3-0.2-0.5-0.2-0.8c-0.1-0.2-0.1-0.5-0.1-0.7s0-0.5-0.1-0.7
			c0-0.2-0.1-0.4-0.2-0.6c-0.1-0.1-0.1-0.2-0.2-0.4c-0.1-0.1-0.2-0.3-0.2-0.6c0-0.1,0-0.2,0-0.2C219.5,14.7,219.4,14.8,219.2,14.9z"
			/>
		<path class="st0" d="M241.6,28.1c0-0.8-0.2-1.6-0.4-2.4c0-0.1-0.1-0.2-0.1-0.2c-0.1-0.5-0.3-1-0.7-1.5c-0.2-0.2-0.2-0.3-0.2-0.5
			l-0.1-0.3c0-0.1,0-0.2,0-0.3c-0.1-0.3-0.2-0.6-0.3-1c-0.1-0.2-0.1-0.4-0.2-0.5c0-0.1-0.1-0.3-0.1-0.4c-0.1-0.2-0.1-0.4-0.2-0.6
			c-0.1-0.3-0.2-0.6-0.3-0.9c-0.1-0.2-0.2-0.5-0.3-0.7s-0.2-0.4-0.3-0.7c-0.1-0.2-0.2-0.3-0.2-0.5c-0.1-0.4-0.2-0.7-0.4-1l-0.2-0.4
			l-0.2-0.2l0,0c0.1-0.1,0.1-0.3,0.2-0.4c0.4-1,0.9-2,1.3-3c0.2-0.5,0.5-1,0.7-1.5l0.5-1c0.1-0.1,0.1-0.3,0.2-0.4
			c0-0.1,0.1-0.2,0.1-0.3c0.1-0.3,0.2-0.5,0.4-0.8l0.3,0.1c0.1-0.3,0.3-0.7,0.4-1V7.6l0,0c0.4-0.8,0.7-1.4,1-2l-0.1-0.5
			c-0.1-0.1-0.1-0.2-0.2-0.2c-0.2-0.2-0.4-0.5-0.8-0.6h-0.1c-0.2-0.2-0.6-0.5-0.8-0.5L240,4c0,0.1-0.1,0.1-0.1,0.2
			c-0.1,0.1-0.1,0.2-0.2,0.2c-0.6,0.6-1,1.3-1.4,2c-0.1,0.1-0.1,0.2-0.1,0.2c-0.3,0.4-0.5,0.9-0.6,1.6c0,0.3-0.1,0.4-0.2,0.5
			L237.2,9c-0.1,0-0.1,0.1-0.2,0.2c-0.2,0.3-0.3,0.6-0.5,0.9c-0.1,0.2-0.2,0.3-0.2,0.5c-0.1,0.1-0.1,0.3-0.2,0.4
			c-0.1,0.2-0.2,0.4-0.3,0.6c-0.1,0.1-0.1,0.3-0.2,0.4l-0.4-1l-0.2-0.2l-0.3-0.9l-0.5-0.2l0.3-0.2c-0.1-0.4-0.1-0.5-0.4-0.7l0.2-0.2
			c0-0.1-0.1-0.4-0.3-0.5c-0.1,0-0.2-0.1-0.3,0l0.3-0.6c0,0,0,0-0.1,0l0,0c-0.2-0.3-0.3-0.7-0.5-1l0,0l0.1-0.1V6
			c0.1-0.3,0.1-0.6,0-0.8c0-0.1,0-0.1,0-0.2s0-0.2-0.1-0.3c0-0.1,0-0.1,0-0.1c0-0.2-0.1-0.4-0.2-0.6V3.9l-0.4-0.3h-0.4
			c-0.3,0-0.5,0-0.8,0c-0.2,0-0.3,0-0.5,0.1c-0.1,0-0.2,0-0.3,0c-0.4,0-0.6,0.2-0.8,0.6l0.1,0.4l0.3,0.6c0.1,0.3,0.3,0.5,0.4,0.8
			c0.2,0.4,0.3,0.8,0.4,1.1c0.1,0.4,0.3,0.7,0.4,1.1l0.1,0.1c0.3,0.8,0.7,1.7,0.9,2.6c0.1,0.3,0.2,0.6,0.3,1
			c0.1,0.2,0.1,0.3,0.2,0.5l0.8,2.4c0.1,0.4,0.3,0.8,0.4,1.2c0,0.1-0.1,0.2-0.1,0.2c-0.1,0.3-0.3,0.5-0.5,0.6
			c-0.4,0.3-0.4,0.6-0.4,0.8h0.1c0,0.1,0,0.1,0,0.2s0,0.1-0.2,0.2l-0.3,0.2l-1.1,2.3v0.2l-0.5,0.9l0.2,0.6l-0.4-0.1
			c-0.2,0.3-0.3,0.5-0.2,0.7h-0.3c-0.1,0.1-0.2,0.3-0.1,0.6c0,0.1,0.1,0.2,0.2,0.2l-0.1,0.2l0,0l0,0c-0.1,0.4-0.2,0.7-0.4,1.1l0,0
			h-0.1l-0.2,0.3c-0.3,0.1-0.5,0.4-0.6,0.6c0,0.1-0.1,0.1-0.1,0.2c-0.1,0.1-0.1,0.2-0.1,0.2c0,0.1-0.1,0.1-0.1,0.1
			c-0.2,0.2-0.2,0.4-0.3,0.5V27l0.1,0.5l0.2,0.3c0.2,0.2,0.4,0.4,0.6,0.6c0.1,0.1,0.2,0.2,0.4,0.3c0.1,0.1,0.2,0.1,0.3,0.2
			c0.2,0.2,0.4,0.2,0.6,0.2c0.1,0,0.3,0,0.4-0.1l0.3-0.4l0.2-0.6c0.1-0.3,0.2-0.6,0.3-0.9c0.2-0.4,0.3-0.7,0.5-1.1s0.3-0.7,0.5-1.1
			l0.1-0.1c0.4-0.8,0.7-1.7,1.2-2.5c0.2-0.3,0.3-0.6,0.4-0.9c0.1-0.2,0.2-0.3,0.2-0.5c0.2-0.4,0.3-0.7,0.5-1.1l0.2-0.5
			c0.2,0.6,0.4,1.2,0.7,1.8l0.1,0.3l0.2,0.4c0.1,0.1,0.2,0.2,0.2,0.4c0.3,0.7,0.5,1.5,0.7,2.3c0.1,0.3,0.2,0.6,0.3,0.9l0.1,0.3h-0.1
			l0.2,0.7v0.1l0,0c0.2,0.7,0.4,1.5,0.5,2.2l0.5,0.3c0.1,0,0.2,0,0.4,0c0.1,0,0.3,0,0.4,0c0.2,0,0.4,0,0.6-0.1v-0.1l0,0
			c0.3,0,0.7-0.1,0.9-0.2L241.6,28.1c0-0.1,0-0.1,0-0.2C241.6,28.3,241.6,28.2,241.6,28.1z"/>
		<path class="st0" d="M186.3,21.4c-0.2-0.2-0.5-0.3-0.6-0.3c-0.3,0-0.5,0.2-0.7,0.3c-0.5,0.4-1.1,0.6-1.7,0.7h-0.1
			c-0.1,0-0.1-0.1-0.2-0.1c-0.2-0.1-0.4,0-0.6,0c-0.7,0.2-1.4,0.2-2,0l-0.2-0.1c-0.3-0.1-0.8-0.2-1-0.4c-0.1-0.1-0.2-0.3-0.5-0.4
			c-0.1,0-0.1,0-0.1,0l0,0c0-0.2-0.1-0.6-0.5-0.7c-0.2-0.1-0.3-0.1-0.5,0v-0.1c0-0.1-0.1-0.2-0.1-0.2c-0.1-0.2-0.3-0.4-0.4-0.6
			c-0.1-0.1-0.2-0.2-0.2-0.3c-0.1-0.1,0-0.2,0-0.5c0-0.1,0-0.3,0-0.5s-0.1-0.4-0.1-0.6c0-0.1-0.1-0.3-0.1-0.4
			c-0.1-0.9,0-1.8,0.1-2.4c0.2-1.4,0.5-3.3,1.7-4.5c0.4-0.4,0.9-0.7,1.4-0.9c0.2-0.1,0.5-0.1,0.8-0.2c0.3-0.1,0.7-0.1,1.1-0.3
			c0.1,0,0.2-0.1,0.3-0.1l0.2,0.3c0.3,0.1,0.5-0.1,0.6-0.1c0,0,0.1,0,0.1,0.1c0.1,0.1,0.1,0.1,0.2,0.2c0.1,0.1,0.1,0.2,0.2,0.3
			l0.3,0.2c0.2,0,0.5,0,0.6-0.3c0.3-0.7,0.9-2.3,0.6-2.8l-0.2-0.2l0,0c-0.9-0.5-1.7-0.6-2.3-0.6c-2.4-0.1-4.3,0.5-6,2
			c-0.2,0.2-0.4,0.4-0.5,0.6s0,0.4,0,0.5s0,0.2,0,0.2c-0.1,0.3-0.3,0.4-0.5,0.5c-0.5,0.2-1,0.5-1.1,1.6c0,0.3,0,0.6-0.1,1
			c0,0.7-0.1,1.5-0.2,2.2c-0.1,0.6-0.1,1.1-0.1,1.5c0,2.7,0.2,6.4,2.4,7.4c0.1,0,0.1,0.1,0.1,0.1s0.1,0.1,0.1,0.2s0.1,0.3,0.2,0.4
			c0.2,0.3,0.5,0.3,0.7,0.4c0.1,0,0.2,0,0.2,0.1c0.1,0.1,0.2,0.2,0.4,0.3c0.1,0.1,0.2,0.2,0.3,0.3c0.5,0.4,1,0.6,1.5,0.6
			c0.1,0,0.3,0,0.4,0c0.8-0.1,1.4-0.1,2.2-0.1h0.6c0.1,0,0.4,0,0.6-0.2c0.2-0.2,0.3-0.2,0.6-0.2c0.2,0,0.5,0,0.9-0.2l0.2-0.1
			c1-0.5,1.2-0.6,1.3-0.6c-0.1,0-0.2-0.1-0.3-0.2l0.8-0.1C187.2,23.5,186.9,22,186.3,21.4z"/>
	</g>
	<g>
		<path class="st0" d="M139.7,45.2C139.7,45.1,139.7,45.1,139.7,45.2C139.6,45.1,139.6,45.2,139.7,45.2
			C139.6,45.2,139.7,45.2,139.7,45.2L139.7,45.2z"/>
		<polygon class="st0" points="139.7,46 139.2,45.4 139,45.1 139.5,44.6 139.9,44.7 140.5,45 		"/>
	</g>
	<g>
		<rect x="128.6" y="34" class="st1" width="3" height="12.2"/>
	</g>
	<g>
		<path class="st1" d="M127.8,46.2h-3.4c-3,0-5.5-2.5-5.5-5.5v-1.2c0-3,2.5-5.5,5.5-5.5h3.4V46.2z"/>
	</g>
	<g>
		<path class="st1" d="M242,40.1c0-0.4,0.4-0.7,0.4-0.7l-13.7-5.2l-2.3,3.2l0.2,5.7l2.1,2.9l13.7-5.2C242.4,40.9,242,40.6,242,40.1z
			"/>
	</g>
	<g>
		<g>
			<polygon class="st1" points="228.1,34.1 132.5,34 132.5,37.1 226,37.1 			"/>
		</g>
		<g>
			<polygon class="st1" points="225.9,37.7 132.5,37.7 132.5,42.9 226.1,42.9 			"/>
		</g>
		<g>
			<polygon class="st1" points="228.2,46.2 226.2,43.5 132.5,43.5 132.5,46.2 			"/>
		</g>
	</g>
	<g>
		<path class="st0" d="M243.2,40.8c0,0-0.4-0.2-0.4-0.7s0.4-0.6,0.4-0.6l1.7,0.7L243.2,40.8z"/>
	</g>
</g>
<path class="st1" d="M185.1,101c-0.3-0.2-0.8-0.3-1.1-0.3c-0.4,0-0.9,0-1.2,0s-0.7,0-0.9,0c-0.7,0-1.4,0-2.1,0c-0.4,0-0.9,0-1.3-0.1
	c-0.7,0-1.3-0.1-2-0.1c-0.7,0-1.2,0-1.9,0c-0.6,0-1.1,0-1.7,0c-0.4,0-0.9,0-1.4,0c-1.2,0-2.5-0.1-3.7,0c-1.2,0.1-2.4,0-3.5,0h-0.9
	c-4.4,0-8.8-0.1-13.2-0.1c-1.7,0-3.3,0-5-0.1h-3.3c-0.8,0-1.5,0-2.3,0c-0.4,0-1,0-1.4,0c-0.7,0-1.3,0-2,0c-0.6,0-1.1,0-1.7,0
	c-0.6,0-1.1,0-1.7,0c-0.6,0-1.2,0-1.8,0c-0.8,0-1.4,0-2.2,0c-0.9,0-1.8,0-2.6,0c-0.8,0-1.5,0-2.3,0c-1.3,0-2.6,0-3.9,0H117
	c-2.2,0-4.3,0-6.5,0c-1.3,0-2.5,0-3.9,0h-8.2h-1.1c-0.6,0-1,0-1.5,0c-0.2,0-0.6,0-0.8,0c-0.3,0-0.6,0-0.9,0c-0.9,0-1.8,0-2.5,0
	c-0.9,0-1.8,0-2.5,0c-1.4,0-3,0-4.4,0h-1.1c-0.1,0-0.2,0-0.3,0c-0.1,0-0.1,0-0.2,0h-3.7c-0.7,0-1.3,0-2,0c-1.1,0-2.1,0.1-3.2,0.1
	c-0.4,0-0.8,0-1.2,0c-0.7,0-1.4,0-2.2,0.1c-0.3,0-1,0.1-1.3,0.1c-0.9-0.1-1.9-0.1-2.8,0h-0.7c-1.2,0-2.1,0-3-0.1c-0.2,0-0.4,0-0.8,0
	h-0.3l-0.4,0.1l-0.6,0.3v1.3c0.7,0.4,1.4,0.6,2.1,0.6h0.3c0.6,0,1.2,0.1,1.9,0.1c0.9,0,1.9,0,2.9,0c0.4,0,0.9,0,1.3,0
	c0.2,0,0.3,0,0.6,0h0.7c0.3,0,0.7,0,1,0c0.6,0,1.2,0,1.8,0c1.2,0,2.5,0,3.7-0.1c1.2-0.1,2.5-0.1,3.7-0.1c1,0,2,0,3,0
	c0.8,0,1.5,0,2.3,0l4.5,0.1c0.7,0,1.2,0,1.9,0c0.3,0,0.7,0,1-0.1c0.3,0,0.8-0.1,1.1-0.1c3.3,0,6.6,0,9.9,0.1c0.9,0,1.7,0,2.5,0
	s1.8,0,2.6,0c1.1,0,2.2,0,3.4,0h2c0.3,0,0.7,0,1,0c0.7,0,1.3,0,2,0s1.3,0,2,0c0.3,0,0.6,0,0.9,0h4.5h2.3c0.1,0,0.2,0,0.3,0h0.3
	c0.2,0,0.4,0,0.7,0h0.3c0.2,0,0.4,0,0.7,0c0.3,0,0.7,0,1.1,0h1c0.4,0,0.8,0,1.2,0c0.7,0,1.4,0,2.1,0.1h1.3c0.7,0,1.3,0,1.9,0.1
	c0.4,0,0.9,0,1.3,0c0.2,0,0.4,0,0.7,0s0.3,0,0.6,0c1.5,0.1,3.1,0.1,4.7,0.2c0.3,0,0.6,0,0.8-0.1c0.1,0,0.2,0,0.2,0
	c0.6,0,1.2,0,1.8,0c0.2,0,0.4-0.1,0.7-0.1l0,0h0.1c0.2,0.1,0.6,0.1,0.9,0.1s0.7,0,1.1,0c0.2,0,0.4,0,0.6,0.1c0.2,0,0.3,0,0.6,0.1
	c0.6,0.1,1.2,0.1,1.9,0c0.1,0,0.1,0,0.2,0h0.2c0.4,0,0.8,0,1.2,0h0.4c0.8,0,1.5-0.1,2.3,0.1l0.1-0.4l0.2,0.4v-0.7l0.4,0.3
	c-0.1,0.1-0.1,0.1-0.2,0.1c0,0,0,0,0.2,0c0.3,0,0.7,0.1,1,0.1c0.3,0,0.6,0,0.9,0.1l0.1,0.2h1l0.3-0.2l0.8-0.1c0.2,0,0.4,0.1,0.7,0.1
	c0.9,0.1,1.9,0.3,2.9,0l0,0c0.2,0.1,0.4,0.1,0.7,0.1c0.7,0.1,1.1,0.1,1.3-0.1c0.2-0.1,0.4-0.1,0.8-0.1h0.3c0.3,0,0.6-0.1,0.9-0.1
	c0.2,0,0.2,0,0.2,0s0.1,0,0.2,0.1l0,0l0,0l0,0l0.4-0.7v0.8l1.7,0.1c0.8,0,1.5,0.1,2.3,0.1c0.6,0,1.1,0,1.8,0.1c0.7,0,1.4,0,2.1,0.1
	h0.3c0.9,0,1.9,0.1,2.8,0c0.8-0.1,1.4,0,2,0.1c0.2,0.1,0.6,0.1,0.8,0.1c0.1,0,0.2,0,0.3,0l0.8-0.9C186.4,102.1,186,101.5,185.1,101z
	"/>
<g>
	<g>
		<path class="st0" d="M63.2,89.6c-0.3-0.1-0.7-0.1-1.2-0.1h-1.1l-0.1,6.4h0.9v-2.6h0.4c0.7,0,1.2-0.2,1.6-0.5
			c0.4-0.3,0.6-0.8,0.6-1.4c0-0.5-0.2-1-0.5-1.4C63.7,89.8,63.4,89.7,63.2,89.6z M62.2,92.4h-0.4v-2h0.3c0.9,0,1.3,0.3,1.3,1
			C63.5,92,63.1,92.4,62.2,92.4z"/>
		<polygon class="st0" points="67.6,89.5 66.6,89.5 66.6,95.9 69.4,95.9 69.4,95 67.5,95 		"/>
		<path class="st0" d="M75,93.4c0,0.6-0.1,1-0.3,1.2c-0.3,0.4-0.6,0.5-1.1,0.5s-0.8-0.2-1.1-0.6c-0.2-0.3-0.3-0.7-0.3-1.2v-3.8h-0.9
			v4.1c0,0.7,0.2,1.2,0.6,1.7c0.5,0.5,1,0.7,1.7,0.7s1.2-0.2,1.7-0.7c0.4-0.4,0.6-1,0.6-1.7v-4.1H75L75,93.4z"/>
		<path class="st0" d="M81,92.2l-0.6-0.3c-0.5-0.2-0.7-0.4-0.7-0.8c0-0.2,0.1-0.4,0.3-0.6c0.2-0.2,0.4-0.2,0.7-0.2
			c0.2,0,0.4,0,0.5,0.1c0.1,0.1,0.3,0.2,0.4,0.5l0.8-0.5c-0.4-0.7-1-1.1-1.7-1.1c-0.5,0-1,0.2-1.3,0.5c-0.4,0.3-0.5,0.7-0.5,1.2
			c0,0.7,0.4,1.3,1.3,1.6l0.6,0.3c0.2,0.1,0.3,0.1,0.4,0.2c0.1,0.1,0.2,0.2,0.3,0.2c0.1,0.1,0.1,0.2,0.2,0.3c0,0.1,0,0.2,0,0.3
			c0,0.3-0.1,0.6-0.3,0.8C81.2,94.9,81,95,80.7,95c-0.4,0-0.7-0.1-0.8-0.4c-0.1-0.1-0.2-0.4-0.2-0.8l-1,0.2c0.1,0.6,0.3,1.1,0.6,1.4
			c0.4,0.3,0.8,0.5,1.3,0.5c0.6,0,1.1-0.2,1.4-0.6c0.4-0.4,0.6-0.9,0.6-1.5c0-0.4-0.1-0.8-0.3-1.1C82.1,92.4,81.5,92.4,81,92.2z"/>
		<path class="st0" d="M135.2,93h1.6c0,0.4-0.3,0.8-0.6,1.2c-0.4,0.3-0.8,0.5-1.3,0.5s-1.1-0.2-1.5-0.7c-0.5-0.5-0.7-1.1-0.7-1.8
			c0-0.7,0.2-1.3,0.7-1.7c0.5-0.5,1-0.7,1.7-0.7s1.4,0.4,1.9,1.1l0.7-0.7c-0.4-0.5-0.8-0.8-1.2-1s-0.9-0.3-1.4-0.3
			c-0.9,0-1.7,0.3-2.3,1c-0.6,0.6-1,1.4-1,2.3s0.3,1.7,0.9,2.3c0.6,0.7,1.4,1,2.2,1c0.9,0,1.6-0.3,2.2-1c0.3-0.3,0.4-0.6,0.6-1
			c0.1-0.4,0.2-0.8,0.2-1.3V92h-2.6L135.2,93z"/>
		
			<rect x="137.5" y="92" transform="matrix(9.295514e-03 -1 1 9.295514e-03 46.9425 232.2286)" class="st0" width="6.4" height="0.9"/>
		<polygon class="st0" points="143.9,95.5 144.9,95.5 144.9,92.4 147,92.5 147,91.6 144.9,91.5 144.9,90 147.1,90 147.1,89.1 
			144,89.1 		"/>
		<polygon class="st0" points="148.8,90 150.2,90.1 150.2,95.5 151.1,95.5 151.2,90.1 152.6,90.1 152.6,89.2 148.8,89.1 		"/>
		<path class="st0" d="M159,90.3c-0.5,0.6-0.8,1.4-0.8,2.2c0,0.9,0.3,1.7,0.9,2.3c0.6,0.6,1.4,1,2.3,1c0.6,0,1.2-0.1,1.7-0.5v-1.2
			c-0.2,0.1-0.3,0.2-0.4,0.3c-0.1,0.1-0.3,0.2-0.4,0.2c-0.2,0.1-0.5,0.2-0.8,0.2c-0.6,0-1.2-0.2-1.6-0.7c-0.4-0.5-0.7-1-0.7-1.7
			s0.2-1.2,0.7-1.7c0.4-0.5,1-0.7,1.6-0.7s1.1,0.2,1.7,0.7v-1.1c-0.5-0.3-1.1-0.5-1.6-0.5C160.5,89.1,159.6,89.5,159,90.3z"/>
		<path class="st0" d="M164.9,95.7h1l0.7-1.5h2.7l0.6,1.6h1L168,89L164.9,95.7z M167.1,93.2l1-2.2l0.9,2.2H167.1z"/>
		<path class="st0" d="M176.2,92.4c0.3-0.3,0.4-0.7,0.4-1.2c0-0.6-0.2-1-0.6-1.4c-0.4-0.3-1-0.5-1.8-0.5h-1.1l-0.1,6.4h0.9v-2.6h0.2
			l1.8,2.6h1.2l-1.9-2.7C175.6,92.9,176,92.7,176.2,92.4z M174,92.3v-2h0.3c0.9,0,1.3,0.3,1.3,1s-0.5,1-1.4,1H174z"/>
		<path class="st0" d="M183.2,90.3c-0.3-0.3-0.7-0.5-1.1-0.6c-0.4-0.1-0.9-0.2-1.5-0.2h-1.3l-0.1,6.4h1.3c0.6,0,1.1,0,1.5-0.2
			c0.4-0.1,0.7-0.3,1.1-0.6c0.7-0.6,1-1.4,1-2.4C184.2,91.7,183.9,90.9,183.2,90.3z M182.5,94.3c-0.2,0.2-0.5,0.4-0.8,0.5
			s-0.6,0.1-1.1,0.1h-0.4v-4.6h0.4c0.8,0,1.4,0.2,1.8,0.6c0.5,0.4,0.7,1,0.7,1.7C183.2,93.3,183,93.9,182.5,94.3z"/>
	</g>
	<g>
		<path class="st0" d="M99.2,92.1h1.2v0.7h-1c0.1,0.3,0.1,0.5,0.1,0.6s0,0.3-0.1,0.7h0.1c0.1,0,0.2,0.1,0.2,0.1c0.1,0,0.1,0,0.2,0.1
			c0.3,0.1,0.6,0.2,0.7,0.2s0.2,0,0.3-0.1c0,0,0.1-0.1,0.2-0.2s0.1-0.2,0.2-0.3l0.8,0.5c-0.2,0.4-0.4,0.7-0.6,0.8
			c-0.2,0.2-0.5,0.2-0.8,0.2c-0.2,0-0.6-0.1-1-0.2c-0.5-0.2-0.8-0.3-1-0.3s-0.3,0-0.4,0.1s-0.2,0.2-0.3,0.5L97.2,95
			c0.3-0.4,0.5-0.7,0.6-0.8c0.2-0.1,0.4-0.2,0.7-0.3c0.1-0.2,0.1-0.4,0.1-0.6s0-0.4-0.1-0.5h-1.1v-0.7h0.7c-0.3-0.5-0.4-1-0.4-1.4
			c0-0.5,0.2-1,0.6-1.4s0.9-0.6,1.5-0.6s1.1,0.2,1.4,0.6c0.4,0.4,0.6,0.9,0.6,1.5l-0.9,0.3c0-0.5,0-0.8-0.1-1
			c-0.2-0.4-0.5-0.5-0.9-0.5c-0.3,0-0.6,0.1-0.8,0.3c-0.2,0.2-0.3,0.5-0.3,0.8C98.7,91.1,98.9,91.5,99.2,92.1L99.2,92.1L99.2,92.1z"
			/>
		<path class="st0" d="M104.7,94.3h2.4v0.9h-4.3l2.2-2.7c0.2-0.3,0.4-0.5,0.5-0.7s0.3-0.4,0.3-0.5c0.2-0.3,0.2-0.5,0.2-0.7
			c0-0.3-0.1-0.5-0.3-0.7c-0.2-0.2-0.5-0.3-0.8-0.3c-0.6,0-1,0.4-1.1,1.1h-1c0.2-1.3,0.8-2,2-2c0.6,0,1.1,0.2,1.5,0.5
			c0.4,0.4,0.6,0.8,0.6,1.4c0,0.3-0.1,0.7-0.3,1c-0.1,0.2-0.2,0.4-0.4,0.6c-0.2,0.2-0.4,0.5-0.7,0.8L104.7,94.3z"/>
		<path class="st0" d="M109.3,94.1l0.8,0.3l-1.2,2.3l-0.6-0.3L109.3,94.1z"/>
		<path class="st0" d="M111.4,92c0-1,0.2-1.8,0.7-2.4c0.4-0.5,0.9-0.8,1.5-0.8s1.1,0.3,1.5,0.8c0.5,0.6,0.7,1.4,0.7,2.5
			c0,1-0.2,1.9-0.7,2.5c-0.4,0.5-0.9,0.8-1.5,0.8s-1.1-0.3-1.5-0.8C111.6,93.9,111.4,93.1,111.4,92z M112.3,92
			c0,0.7,0.1,1.3,0.4,1.8c0.2,0.5,0.6,0.7,0.9,0.7c0.4,0,0.7-0.2,0.9-0.7c0.2-0.5,0.4-1,0.4-1.7s-0.1-1.3-0.4-1.7
			c-0.2-0.5-0.6-0.7-0.9-0.7c-0.4,0-0.7,0.2-0.9,0.7C112.5,90.8,112.3,91.4,112.3,92z"/>
		<path class="st0" d="M116.9,92c0-1,0.2-1.8,0.7-2.4c0.4-0.5,0.9-0.8,1.5-0.8s1.1,0.3,1.5,0.8c0.5,0.6,0.7,1.4,0.7,2.5
			c0,1-0.2,1.9-0.7,2.5c-0.4,0.5-0.9,0.8-1.5,0.8s-1.1-0.3-1.5-0.8C117.2,93.9,116.9,93.1,116.9,92z M117.9,92
			c0,0.7,0.1,1.3,0.4,1.8c0.2,0.5,0.6,0.7,0.9,0.7c0.4,0,0.7-0.2,0.9-0.7c0.2-0.5,0.4-1,0.4-1.7s-0.1-1.3-0.4-1.7
			c-0.2-0.5-0.6-0.7-0.9-0.7c-0.4,0-0.7,0.2-0.9,0.7C118,90.8,117.9,91.4,117.9,92z"/>
		<path class="st0" d="M122.4,92c0-1,0.2-1.8,0.7-2.4c0.4-0.5,0.9-0.8,1.5-0.8s1.1,0.3,1.5,0.8c0.5,0.6,0.7,1.4,0.7,2.5
			c0,1-0.2,1.9-0.7,2.5c-0.4,0.5-0.9,0.8-1.5,0.8s-1.1-0.3-1.5-0.8C122.7,93.9,122.4,93.1,122.4,92z M123.4,92
			c0,0.7,0.1,1.3,0.4,1.8c0.2,0.5,0.6,0.7,0.9,0.7c0.4,0,0.7-0.2,0.9-0.7c0.2-0.5,0.4-1,0.4-1.7s-0.1-1.3-0.4-1.7
			c-0.2-0.5-0.6-0.7-0.9-0.7c-0.4,0-0.7,0.2-0.9,0.7C123.5,90.8,123.4,91.4,123.4,92z"/>
	</g>
	<g>
		<path class="st0" d="M86.8,95.7h1l0.7-1.5h2.7l0.6,1.6h1L89.9,89L86.8,95.7z M89,93.2l1-2.2l0.9,2.2H89z"/>
	</g>
	<g>
		<path class="st0" d="M185.9,88.7v-0.9h0.6l-0.1,0.9l0.8-0.3l0.2,0.6l-0.8,0.2l0.5,0.7l-0.5,0.4l-0.5-0.7l-0.5,0.7l-0.5-0.4
			l0.6-0.7l-0.8-0.2l0.2-0.6L185.9,88.7z"/>
	</g>
</g>
</svg>
