<?xml version="1.0" encoding="utf-8"?>
<!-- Generator: Adobe Illustrator 21.1.0, SVG Export Plug-In . SVG Version: 6.00 Build 0)  -->
<svg version="1.1" id="Layer_1" xmlns="http://www.w3.org/2000/svg" xmlns:xlink="http://www.w3.org/1999/xlink" x="0px" y="0px"
	 viewBox="0 0 244.9 103.7" style="enable-background:new 0 0 244.9 103.7;" xml:space="preserve">
<style type="text/css">
	.st0{fill:#FFFFFF;}
	.st1{fill:#EEC42D;}
</style>
<g>
	<path class="st0" d="M18.1,55.9L18.1,55.9c0-0.2,0-0.4-0.1-0.5l-0.4-0.2c0,0-0.1,0.1-0.2,0.1c0,0-0.2,0-0.2,0.1
		c-0.1,0-0.2,0-0.2,0.1c-0.3,0.1-0.6,0.2-0.9,0.3c-0.2,0.1-0.3,0.1-0.5,0.2l0,0c-0.1,0.1-0.1,0.1-0.2,0.2l0.2,0.3
		c-0.2,0.1-0.4,0.1-0.6,0.2l-0.2,0.1c-0.1,0-0.3,0.1-0.4,0.1c-0.2-0.6-0.3-1.2-0.4-1.8c-0.1-0.4-0.1-0.8-0.2-1.2
		c-0.2-0.6-0.3-1.3-0.5-1.9c-0.1-0.3-0.2-0.5-0.2-0.7l-0.2-0.7c-0.1-0.3-0.2-0.5-0.2-0.8c-0.1-0.2-0.1-0.5-0.1-0.7
		c0-0.4-0.1-0.8-0.3-1.1l-0.1-0.5c-0.1-0.4-0.1-0.7-0.2-1.1c-0.1-0.6-0.3-1.1-0.4-1.7l-0.1-0.3c0-0.1-0.1-0.2-0.1-0.3L10.9,44h-0.3
		c-0.2,0-0.5-0.1-0.7-0.1s-0.4-0.1-0.7,0l-1-0.1l-0.3,0.3c0,0.1,0,0.1,0,0.2c0,0.2,0,0.3,0.1,0.5s0,0.3-0.1,0.6
		c0,0.1-0.1,0.2-0.1,0.3l-0.1,0.2L8,46.2l0,0v0.1c0,0.1,0.1,0.1,0.1,0.2v0.1c0,0.1-0.1,0.4-0.2,0.6c0,0.1-0.1,0.2-0.1,0.3l0,0
		l-0.5-0.2L7,47.8L6.9,48v0.2c0,0.1,0,0.3,0,0.4c-0.1,0.1-0.2,0.3-0.1,0.5c0,0,0,0.1,0,0.2c0,0.1,0,0.2-0.1,0.2
		c0,0.3-0.1,0.6-0.1,0.8s0,0.3,0,0.5v0.1c0,0.1,0.1,0.2,0.1,0.3h0.4l0,0c0,0.2-0.1,0.4-0.1,0.5v0.2c-0.1,0.3-0.1,0.6-0.2,1H6.6V53
		l-0.1-0.1C6.1,53,6,53.3,6,53.6h0.2l-0.1,0.2v-0.1c0,0,0,0-0.1,0.1V54c-0.1,0.2-0.1,0.5-0.1,0.7c0,0.1,0,0.2,0,0.2l-0.2,0.2
		l-0.1,0.2c0,0.2,0,0.4-0.1,0.7s-0.1,0.7-0.2,1.1c0,0.1,0,0.2,0,0.3c0,0.2-0.1,0.4-0.1,0.6c0,0.3-0.1,0.5-0.1,0.8
		c0,0.1,0,0.2-0.1,0.4c-0.3,0.1-0.6,0.2-0.9,0.3l-0.8,0.3c0,0.1-0.2,0.2-0.4,0.2c-0.3,0.1-0.7,0.2-1,0.3c-0.4,0.1-0.7,0.2-1.1,0.3
		c-0.2,0.1-0.4,0.1-0.5,0.2H0.2L0,61.2c0.2,0.5,0.3,0.9,0.5,1.4l0.3,0.8l0.4,0.2l1.1-0.3c0.5-0.1,0.9-0.3,1.4-0.4
		c0.4-0.1,0.8-0.3,1.1-0.4c0,0.2,0,0.3-0.1,0.5c-0.1,0.3-0.1,0.6-0.2,0.9s-0.1,0.7-0.2,1c-0.1,0.5-0.1,1.1-0.2,1.6v0.1
		c0,0.1,0,0.3,0,0.4c0,0.2,0,0.3,0,0.5C4,67.7,4,67.9,4,68.1c-0.1,0.3-0.1,0.5-0.1,0.8c-0.1,0.4-0.1,0.9-0.1,1.3l-0.1,0.6l0.1,0.3
		c0.6,0.4,1.4,0.5,2,0.6l0.4,0.1h0.2c0.5-0.2,0.6-0.3,0.5-0.9c0-0.2-0.1-0.4-0.1-0.7c0.1-0.5,0.1-1.1,0.2-1.6l0.1-1.1
		c0.1-0.4,0.1-0.9,0.2-1.3s0.1-0.9,0.2-1.3s0.1-0.9,0.2-1.3c0.1-0.5,0.1-1,0.2-1.5L8,61.3c0.1,0,0.2-0.1,0.4-0.1
		c0.4-0.1,0.7-0.3,1.1-0.4c0.3-0.1,0.6-0.2,1-0.3c0.3-0.1,0.5-0.2,0.8-0.3c0.2-0.1,0.4-0.1,0.6-0.2l0.6-0.2c0.1,0.3,0.2,0.7,0.3,1
		l0.1,0.2c0.2,0.6,0.4,1.3,0.9,1.8v0.1l0,0l0,0h0.1L13.7,63l0.1,0.1c0,0.1,0.1,0.1,0.1,0.2l0.1,0.3c0.1,0.4,0.3,0.9,0.4,1.3
		c0.1,0.3,0.2,0.4,0.4,0.5l-0.1,0.1l-0.1,0.2v0.1c0,0.1,0,0.3,0.1,0.4c0.1,0.2,0.1,0.5,0,0.7l0.1,0.3l0.3,0.3l0.2,0.1l0.4,0.1
		c0.3,0.1,0.5,0.1,0.8,0.1c0.5,0.1,0.9,0.1,1.4-0.1l0.2-0.3c0-0.1,0-0.2-0.1-0.2c0-0.1-0.1-0.3-0.1-0.4c0-0.3,0-0.6,0-1v-0.3v-0.1
		c-0.1-0.3-0.3-0.7-0.4-1c-0.4-0.9-0.8-1.7-1.1-2.6l0,0L16,61.7c-0.1-0.2-0.1-0.4-0.2-0.6c-0.1-0.2-0.2-0.4-0.2-0.6
		c-0.1-0.2-0.2-0.4-0.2-0.6c-0.1-0.3-0.2-0.6-0.3-0.9h0.1c0.1,0,0.1-0.1,0.2-0.1c0.2-0.1,0.4-0.1,0.6-0.2c0.2-0.1,0.4-0.1,0.7-0.2
		l0.2-0.1c0.2-0.2,0.4-0.4,0.7-0.4c0.2,0,0.5-0.1,0.7-0.1l0.2-0.2c0.1-0.2,0.1-0.4,0.1-0.7C18.4,56.7,18.3,56.3,18.1,55.9L18.1,55.9
		z M8.7,56.2c0-0.2,0.1-0.3,0.1-0.5l0.2-2c0.2-0.4,0.2-0.8,0.2-1.1v-0.1c0-0.1,0-0.1,0-0.2c0-0.2,0.1-0.4,0.1-0.6
		c0.1-0.3,0.1-0.6,0.2-1c0.1-0.4,0.1-0.8,0.1-1.1l0.1,0.1l-0.1,0.4c0,0.1,0.1,0.1,0.1,0.2c0,0.1,0.1,0.2,0.1,0.2
		c0,0.3,0.1,0.6,0.2,0.8c0,0.1,0.1,0.2,0.1,0.3s0.1,0.3,0.2,0.4c0.1,0.2,0.2,0.4,0.2,0.7c0,0.1,0,0.2,0.1,0.3v0.1l0,0v0.1v0.2
		c0,0.1,0.1,0.2,0.1,0.3s0,0.3,0.1,0.4c0,0.1,0,0.2,0,0.3s0,0.3,0.1,0.5l0.2,0.1v0.3l0.1,0.1c0,0.1,0,0.1,0,0.2
		c0,0.2,0.1,0.4,0.1,0.6c0,0.2,0.1,0.3,0.1,0.5v0.1c-0.1,0.1-0.1,0.2-0.1,0.4c-0.1,0-0.1,0.1-0.2,0.1H11h-0.2
		c-0.2,0.1-0.5,0.2-0.8,0.3c-0.3,0.1-0.7,0.2-1,0.4c-0.1,0-0.2,0.1-0.4,0.1c0,0-0.1,0-0.1,0.1c0-0.1,0-0.2,0-0.2
		c0-0.3,0.1-0.6,0.1-0.9C8.6,56.7,8.7,56.4,8.7,56.2z M9.6,49.6C9.6,49.6,9.7,49.6,9.6,49.6L9.6,49.6l0.1-0.1L9.6,49.6z"/>
	<path class="st0" d="M35.9,44.2c-0.2-0.1-0.5-0.3-0.7-0.4c-0.1-0.1-0.3-0.1-0.5-0.2c-0.1,0-0.2-0.1-0.3-0.1
		c-0.3-0.2-0.8-0.2-1.3,0.2L33,44.2v0.7c0,0.3,0,0.6,0,0.9c0,0.4-0.1,0.8-0.2,1.2c-0.1,0.4-0.1,0.8-0.2,1.2v0.2
		c-0.1,0.9-0.2,1.8-0.4,2.6c-0.1,0.3-0.1,0.7-0.2,1c0,0.2,0,0.4-0.1,0.5l-0.4,2.4c-0.1,0.5-0.2,1-0.2,1.5c-0.1,0.4-0.1,0.8-0.1,1.2
		c0,0.3-0.1,0.7-0.1,1c-0.1,1.1-0.3,2.1-0.4,3.2c-0.1,0.5-0.2,1-0.2,1.5c0-0.1-0.1-0.3-0.1-0.4c-0.1-0.4-0.2-0.8-0.3-1.1
		c-0.1-0.3-0.2-0.6-0.2-0.9c-0.1-0.3-0.2-0.7-0.3-1c-0.1-0.6-0.3-1.2-0.4-1.7s-0.2-0.9-0.3-1.4c-0.1-0.2-0.1-0.5-0.2-0.7
		c-0.1-0.3-0.1-0.5-0.2-0.8c-0.1-0.5-0.3-1.1-0.5-1.6c-0.1-0.3-0.2-0.6-0.3-0.9c-0.1-0.3-0.2-0.5-0.2-0.8c-0.1-0.3-0.2-0.7-0.3-1
		c0-0.1-0.1-0.3-0.1-0.4c-0.1-0.4-0.1-0.8-0.3-1.2c0-0.3-0.1-0.6-0.1-0.8c0-0.1-0.1-0.2-0.1-0.3c-0.1-0.4-0.3-0.7-0.8-1
		c-0.3-0.1-0.5-0.3-0.8-0.4c-0.4-0.3-0.9-0.4-1.5-0.2L23,47c0,0.1-0.1,0.2-0.1,0.5v0.1c0,0.3,0,0.5,0,0.7l-0.1,0.3
		c0,0.2,0,0.4-0.1,0.6c0,0.4-0.1,0.9-0.2,1.2c-0.2,0.7-0.2,1.4-0.3,2.1v0.4c-0.1,0.8-0.1,1.7-0.3,2.5c-0.1,0.4-0.1,0.8-0.1,1.3v0.4
		c0,0.2,0,0.4,0,0.6c0,0.2,0,0.3,0,0.5s0,0.3-0.1,0.5c0,0.2,0,0.4-0.1,0.6L21.5,60c0,0.4-0.1,0.8-0.1,1.2c0,0.1,0,0.3-0.1,0.4
		l-0.1,0.3c-0.1,0.4-0.1,0.9-0.1,1.3c0,0.3,0,0.6-0.1,0.9v0.3c-0.1,1-0.3,1.9-0.4,2.9c-0.1,0.4-0.2,1.3,0.4,2c0,0,0,0.1,0.1,0.1
		l0.1,0.1l0.4,0.3l0.9,0.2l0.9-0.5l0.2-0.6c0-0.1,0.1-0.3,0.1-0.4V67c0.2-0.5,0.2-1,0.2-1.4c0-0.1,0-0.2,0-0.4c0-0.1,0-0.2,0.1-0.4
		c0-0.2,0.1-0.5-0.1-0.7c0,0,0-0.1,0-0.2v-0.1c0-0.1,0-0.3,0.1-0.4c0-0.2,0.1-0.3,0.1-0.5c0-0.1,0-0.3,0-0.4c0-0.2,0-0.3,0-0.4
		c0.1-0.2,0.1-0.5,0-0.5c0-0.1,0-0.1,0-0.2l0.1-0.3c0-0.1,0-0.2,0.1-0.4c0-0.1,0-0.2,0-0.3v-0.1l0.4-2.7L24.2,57
		c0.2,0.1,0.2,0.3,0.2,0.3v-0.1c0-0.1,0-0.1,0.1-0.2c0.1-0.3,0.3-0.8,0.1-1.4c0.1-0.3,0.2-0.7,0.3-1.1c0.1,0.5,0.3,1,0.4,1.4
		c0.1,0.5,0.3,1.1,0.4,1.6c0.1,0.6,0.3,1.2,0.4,1.8c0.2,1,0.5,1.9,0.7,2.9c0.1,0.2,0.1,0.5,0.2,0.7c0.1,0.4,0.2,0.8,0.3,1.2
		c0.1,0.3,0.1,0.6,0.2,0.9l0.1,0.4c0.1,0.4,0.2,0.7,0.3,1.1c0.1,0.3,0.2,0.7,0.3,1l0.7,2.3l0.5,0.5c0.1,0,0.2,0.1,0.3,0.2
		c0.2,0.2,0.6,0.4,1.1,0.4l0,0c0.3,0.1,0.7,0.3,0.9,0.3l0.7-0.5c0-0.1,0-0.1,0.1-0.2c0-0.1,0-0.2,0.1-0.2c0.4-0.7,0.6-1.5,0.8-2.3
		c0-0.1,0-0.2,0-0.3c0.1-0.5,0.2-1,0.1-1.6c0-0.1,0-0.2,0-0.3l0.1-0.3c0.1-0.1,0.1-0.2,0.2-0.4c0.1-0.3,0.1-0.7,0.2-1
		c0-0.2,0.1-0.4,0.1-0.6l0.1-0.4c0-0.2,0.1-0.4,0.1-0.6c0.1-0.3,0.1-0.7,0.1-1s0-0.5,0.1-0.7c0.1-0.3,0.1-0.5,0.1-0.7s0-0.3,0-0.5
		c0.1-0.4,0.1-0.8,0.2-1.1v-0.4l-0.1-0.5l-0.1-0.1c0-0.1,0.1-0.3,0.1-0.4c0.1-0.3,0.1-0.5,0.2-0.6c0.3-0.5,0.3-0.8,0.1-1.2h-0.1
		v-0.1l0.4-0.5l0.4-2.4l-0.1-0.2l0.2-1l-0.3-0.4h0.3c0.1-0.3,0.1-0.6,0.1-0.8l0.2-0.1c0-0.1,0.2-0.5-0.1-0.9
		c-0.1-0.1-0.1-0.1-0.2-0.2v-0.1c0-0.4,0-0.7,0.1-1.1v-0.1c0.4-0.3,0.5-0.7,0.6-0.9v-0.1c0-0.1,0.1-0.2,0.1-0.4
		c0.1-0.3,0.2-0.5,0.2-0.7v-0.1l-0.3-0.7L35.9,44.2z M35.4,48.7L35.4,48.7L35.4,48.7L35.4,48.7z M35.5,48.5v-0.2
		C35.6,48.4,35.6,48.5,35.5,48.5C35.6,48.6,35.5,48.6,35.5,48.5z"/>
	<path class="st0" d="M55.3,55.3c0-0.5-0.1-1.1-0.2-1.6v-0.3c0-0.2-0.1-0.5-0.2-0.7l-0.1-0.4c-0.2-0.5-0.4-1.1-0.6-1.6
		c-0.3-0.7-0.6-1.4-1-2c-0.7-1-1.7-1.6-2.6-2.2c-0.5-0.3-1-0.5-1.5-0.8c-0.4-0.2-0.7-0.3-1.1-0.5c-2.1-1.1-3.9-0.4-5.1,0.3
		c-0.2,0.1-0.3,0.2-0.4,0.3l-1,1c-0.5-0.2-1-0.4-1.5-0.5c-0.6-0.2-1.1-0.1-1.6,0.4l-0.2,0.5v0.1c0,0.1,0,0.3,0.1,0.4l0.2,1.4
		c0.1,0.9,0.3,1.8,0.4,2.7c0,0.3,0.1,0.6,0.1,0.9c0,0.5,0.1,1.1,0.2,1.6c0.1,0.5,0.2,1.1,0.2,1.7c0.1,0.7,0.1,1.4,0.4,2.2
		c0.2,0.7,0.3,1.5,0.4,2.2c0,0.3,0.1,0.5,0.1,0.8l0.1,0.6c0.2,1.6,0.5,3.2,0.4,4.7c0,0.2,0,0.4,0,0.6c-0.1,1.1,0,2,1.7,2.2
		c0.1,0,0.3,0,0.5,0c0.5,0,1.1-0.1,1.5-0.1c1.7-0.3,4.8-1.2,5.7-2.7c0-0.1,0.1-0.1,0.1-0.2l1.5-1.3l0.2-0.4l0,0
		c0.1-0.1,0.2-0.2,0.3-0.2c0.1-0.1,0.2-0.2,0.3-0.3l0.2-0.2c0.1-0.1,0.3-0.2,0.4-0.4c0.1-0.2,0.2-0.5,0.4-0.7
		c0.1-0.2,0.2-0.5,0.4-0.7c0.1-0.1,0.2-0.2,0.2-0.4c0.2-0.3,0.4-0.6,0.5-1c0.1-0.2,0.1-0.5,0.2-0.7c0.1-0.3,0.2-0.6,0.3-1
		c0.2-0.6,0.2-1.2,0.3-1.8V57C55.3,56.4,55.3,55.8,55.3,55.3z M46.3,66.3c-0.1,0.1-0.2,0.1-0.2,0.2c-0.3-0.4-0.7-0.7-1-0.9
		c-0.1-0.1-0.2-0.2-0.3-0.2l-0.2-2.8l-0.1-0.4c-0.2-0.3-0.3-0.7-0.3-1.2c0-0.4,0-0.6-0.2-0.9c0.2-0.4,0.2-1-0.3-1.6
		c0-0.1,0-0.3,0-0.4c0-0.2,0-0.4,0-0.5l-0.1-0.8l-0.3-0.1v-0.4l0.1-0.1l-0.7-6.5l0.1-0.1c0.5-0.6,1-1.3,1.8-1.6
		c0.2-0.1,0.3-0.1,0.5-0.2c0.1-0.1,0.2-0.1,0.3-0.1c0.7-0.2,1.2-0.2,1.7,0.2c0.2,0.2,0.5,0.3,0.7,0.3c0.1,0,0.2,0.1,0.3,0.1
		c1.3,0.7,2.2,1.8,2.6,3.4c0.1,0.3,0.2,0.6,0.3,0.9c0.1,0.2,0.2,0.5,0.3,0.8c0.3,1.2,0.3,2.4,0.3,3.4c-0.1,1.1-0.2,2.1-0.5,3
		c-0.2,0.6-0.4,1.2-0.8,1.8c-0.1,0.2-0.3,0.4-0.4,0.6c-0.1,0.1-0.2,0.3-0.3,0.4l-0.1,0.2c-0.4,0.6-0.9,1.2-1.3,1.7
		C47.7,65,47.1,65.7,46.3,66.3z"/>
</g>
<g>
	<path class="st1" d="M65.2,64c0.1,0.4,0.1,0.9,0.3,1.3c0.1,0.4,0.2,0.8,0.2,1.2c0,0.2,0.1,0.5,0.1,0.7c0.1,0.4,0.3,0.7,0.7,0.9
		c0.5,0.3,1.1,0.2,1.5,0.2c0.3,0,0.5-0.1,0.6-0.2c0,0,0.1,0,0.1-0.1l0.3-0.2c0.3-0.4,0.3-0.9,0.1-1.3c0-0.1-0.1-0.2,0-0.4
		c0.1-0.2,0.1-0.5,0.1-0.7s0-0.3,0-0.5l0.3-0.6v-0.4h-0.2c0-0.1,0.1-0.2,0.1-0.4c0-0.3,0-0.7,0-1V62c0-0.3,0.1-0.6,0.1-0.9l0.1-0.3
		c0.1-0.4,0.2-0.8,0.1-1.2c0-0.4,0-0.7,0-1.1c0-0.2,0-0.4,0-0.5s0-0.3,0-0.5c-0.1-0.3,0-0.6,0.1-1l0,0l0.1-0.1l0.1-0.7
		c0-0.1,0-0.1,0-0.1c0.1-0.2,0.1-0.4,0.1-0.5v-0.5c0-0.4,0.1-0.8,0.1-1.2l0,0l0.1,0.4c0.2,1,0.5,2.1,0.6,3.3c0,0.5,0.1,0.9,0.1,1.3
		c0.1,0.7,0.2,1.4,0.3,2c0.1,0.3,0.1,0.6,0.2,0.8l0.2,0.8c0.1,0.3,0.1,0.6,0.2,0.8s0.1,0.4,0.1,0.7c0,0.4,0,0.8,0.2,1.3v0.4
		c0,0.4,0.1,0.8,0.1,1.2c0.1,0.6,0.2,1.2,0.2,1.8v0.3c0,0.1,0.1,0.3,0.1,0.4l0.5,0.5l0.3,0.1c0.2,0,0.4,0.1,0.6,0.2s0.5,0.2,0.8,0.1
		l0.9,0.2l0.9-0.7c0-0.1,0-0.1,0-0.2c0-0.2,0-0.4,0-0.6c0,0,0-0.1,0.1-0.3l0.2-0.4l-0.3-0.4c0-0.1,0.1-0.3,0-0.5c0,0,0,0,0-0.1
		c0.1-0.2,0.2-0.4,0.3-0.6l0.1-0.1l0.5,0.2l0.3-0.4l0.1-0.4v-0.2c0-0.1,0-0.2,0-0.3c0.1-0.1,0.2-0.4,0.2-0.7c0,0,0,0,0-0.1
		s0.1-0.2,0.1-0.3c0.1-0.3,0.1-0.6,0.2-0.9c0-0.2,0-0.4,0.1-0.6c0-0.3-0.1-0.5-0.2-0.6H78c0-0.1,0-0.2,0.1-0.3l0.1-0.2
		c0.1-0.3,0.1-0.5,0.2-0.8l0.1,0.1c0.5-0.2,0.8-0.6,0.8-1.2h-0.1c0,0.1-0.1,0.2-0.1,0.2v-0.2l0,0v-0.1l0,0v-0.2l0,0
		c0,0.1,0.1,0.2,0.1,0.3c0.3-0.4,0.3-0.8,0.3-1l0,0l0.3-0.6c0-0.2,0-0.4,0.1-0.6c0.1-0.4,0.2-0.8,0.3-1.2l0.1-0.4
		c0-0.2,0.1-0.5,0.1-0.7c0-0.3,0.1-0.5,0.2-0.8s0.1-0.5,0.2-0.8s0.1-0.6,0.2-0.9c0.1-0.4,0.1-0.8,0.2-1.2l0.1-0.8
		c0-0.2,0.1-0.4,0.1-0.6c0.1-0.3,0.2-0.6,0.2-1c0.1-0.4,0.2-0.7,0.3-1.1c0.1-0.6,0.2-1.2,0.4-1.8c0-0.1,0-0.3,0.1-0.5
		c0-0.2,0-0.3,0.1-0.5s0.1-0.5,0.2-0.7c0.1-0.3,0.1-0.6,0.2-0.9c0.1-0.5,0.2-0.9,0.2-1.4l0.1-0.6l-0.3-0.7c-0.7-0.5-1.4-0.7-2.1-0.9
		l-0.4-0.1h-0.5c-0.6,0.3-0.9,0.5-0.8,1.3c0,0.2,0,0.4,0,0.6c-0.1,0.6-0.2,1.1-0.3,1.7l-0.2,1.1c-0.1,0.5-0.2,0.9-0.3,1.4
		c-0.1,0.5-0.2,1-0.3,1.4c-0.1,0.4-0.2,0.9-0.3,1.3c-0.1,0.5-0.2,1.1-0.3,1.6l-0.3,1.5c-0.1,0.5-0.2,1.1-0.3,1.6
		c-0.1,0.4-0.1,0.8-0.2,1.1s-0.1,0.6-0.2,1c-0.1,0.3-0.1,0.6-0.2,0.8l-0.5,2.4c-0.2,0.5-0.3,0.9-0.3,1.3v0.1v0.1
		c0,0.1-0.1,0.3-0.1,0.4c0-0.1-0.1-0.2-0.1-0.3c-0.1-0.2-0.1-0.4-0.1-0.5c0-0.2,0-0.4-0.1-0.6l-0.1-0.4c0,0,0-0.1,0-0.2
		c0-0.2,0-0.4-0.1-0.6v-0.1c0-0.2,0.1-0.4,0-0.7L74.3,57v-0.1l0,0h0.1c0-0.1,0-0.2,0-0.4s0-0.4-0.1-0.6l-0.1-0.6
		c0.1-0.4,0.1-0.8,0-1c-0.1-0.1-0.1-0.3-0.1-0.5S74,53.5,74,53.3s-0.1-0.4-0.1-0.6l-0.2-0.8c-0.1-0.4-0.2-0.7-0.3-1.1v-0.2
		c-0.2-0.7-0.3-1.5-0.8-2.2l0,0l-0.1-0.1v-0.1l-0.1-0.3c-0.1-0.5-0.2-0.9-0.2-1.4c0-0.3-0.1-0.5-0.2-0.6l0.1-0.4c0-0.1,0-0.4,0-0.6
		c0-0.2,0-0.3,0.1-0.5l-0.1-0.7l-0.3-0.4L71.4,43L71,42.9c-0.3-0.1-0.5-0.2-0.8-0.2c-0.5-0.1-1-0.2-1.6,0l-0.5,0.7v0.3
		c0,0.1,0,0.2,0,0.3c0,0.3,0,0.7-0.1,1v0.3c0,0.3,0,0.6-0.1,0.9v0.2c0,0.2,0,0.4-0.1,0.6c-0.1,0.3-0.1,0.6-0.1,0.9
		c0,0.1,0,0.2,0,0.3c0,0.3-0.1,0.6-0.1,0.9c-0.1,0.6-0.2,1.2-0.2,1.9c0,0.4-0.1,0.8-0.1,1.2l-0.2,2.2c0,0.3-0.1,0.6-0.1,0.9
		c0,0.2,0,0.4,0,0.6c0,0.2,0,0.4,0,0.6c0,0.2,0,0.4-0.1,0.6v0.1c0-0.2,0-0.4,0-0.5c0-0.2,0-0.4,0-0.6c0-0.2-0.1-0.3-0.1-0.5
		c-0.1-0.3-0.1-0.6-0.1-0.8c0-0.3,0-0.5-0.1-0.8c0-0.3-0.1-0.6,0-0.9l-0.1-0.4c-0.2-0.4-0.2-0.5-0.2-0.6l-0.1-0.6c0,0,0-0.1-0.1-0.1
		c0-0.2-0.1-0.5-0.1-0.7c0-0.4-0.1-0.7-0.2-1.1c0-0.2,0-0.4,0-0.6c0-0.4,0-0.8-0.2-1.3v-0.1c0.1-1.1,0-1.5-0.4-2.6
		c-0.1-0.3-0.3-0.5-0.5-0.7c-0.2-0.1-0.5-0.2-0.8-0.3c-0.2-0.1-0.6-0.2-1.1,0l-0.4,0.8v0.1c0,0.1,0,0.3,0.1,0.5
		c0.2,0.6,0.3,1.2,0.3,2c0,0.3,0,0.6,0.1,0.9v0.3c0,0.3,0,0.5,0.1,0.8c0,0.2,0.1,0.3,0.1,0.5s0.1,0.3,0.1,0.5l0.2,1
		c0.1,0.4,0.1,0.8,0.2,1.1c0,0.2,0.1,0.5,0.1,0.7c0.1,0.4,0.1,0.7,0.2,1.1C64,54.9,64,55.4,64,56v0.5c0,0.2,0,0.3,0,0.5
		c0,0.3,0,0.6,0.1,0.9c0.1,0.7,0.2,1.4,0.3,2.1l0.1,0.9c0,0.3,0.1,0.6,0.1,0.9c0.1,0.6,0.2,1.3,0.4,1.9L65.2,64z"/>
	<path class="st1" d="M110.6,40.7l-0.3-0.2c-0.3-0.2-0.5-0.3-0.8-0.4c-0.2-0.1-0.3-0.1-0.5-0.2c-0.1,0-0.2-0.1-0.3-0.1
		c-0.3-0.2-0.8-0.3-1.3,0.2l-0.2,0.5v0.7c0,0.3,0,0.6,0,0.9c0,0.4-0.1,0.8-0.2,1.3c-0.1,0.4-0.1,0.8-0.2,1.2v0.2
		c-0.1,1-0.2,1.9-0.4,2.8c-0.1,0.4-0.1,0.7-0.2,1.1c0,0.2-0.1,0.4-0.1,0.6l-0.4,2.6c-0.1,0.5-0.2,1-0.2,1.5
		c-0.1,0.4-0.1,0.8-0.1,1.3c0,0.4-0.1,0.7-0.1,1.1c-0.1,1.1-0.3,2.3-0.4,3.4c-0.1,0.6-0.2,1.1-0.3,1.7V61c-0.1-0.2-0.1-0.4-0.2-0.7
		c-0.1-0.4-0.2-0.8-0.3-1.2c-0.1-0.3-0.2-0.6-0.3-0.9c-0.1-0.4-0.2-0.7-0.3-1.1c-0.1-0.6-0.3-1.2-0.4-1.8c-0.1-0.5-0.2-1-0.3-1.5
		c-0.1-0.2-0.1-0.5-0.2-0.7c-0.1-0.3-0.2-0.5-0.2-0.8c-0.1-0.6-0.3-1.1-0.5-1.6c-0.1-0.3-0.2-0.7-0.3-1c-0.1-0.3-0.2-0.6-0.2-0.8
		c-0.1-0.4-0.2-0.7-0.3-1.1c0-0.2-0.1-0.3-0.1-0.5c-0.1-0.4-0.1-0.8-0.3-1.3c0-0.3-0.1-0.6-0.1-0.9c0-0.1-0.1-0.2-0.1-0.4
		c-0.1-0.4-0.3-0.7-0.8-1c-0.3-0.2-0.5-0.3-0.8-0.5c-0.4-0.3-1-0.4-1.6-0.3l-0.5,0.5c0,0.1-0.1,0.2-0.1,0.5v0.2c0,0.3,0,0.6-0.1,0.8
		L96.5,45c0,0.2-0.1,0.4-0.1,0.6c0,0.5-0.1,0.9-0.2,1.3c-0.2,0.8-0.2,1.5-0.3,2.2v0.4c-0.1,0.9-0.2,1.8-0.3,2.6
		c-0.1,0.4-0.1,0.9-0.2,1.3v0.4c0,0.2,0,0.4,0,0.6c0,0.2,0,0.4,0,0.5s0,0.4-0.1,0.5c0,0.2,0,0.4-0.1,0.6l-0.1,0.9
		c0,0.4-0.1,0.8-0.1,1.2c0,0.1,0,0.3-0.1,0.4l-0.1,0.3c-0.1,0.5-0.1,0.9-0.1,1.3c0,0.3,0,0.7-0.1,1l-0.1,0.4c-0.1,1-0.3,2-0.5,3
		c-0.1,0.4-0.2,1.4,0.4,2.1c0,0,0,0.1,0.1,0.1l0.1,0.1l0.4,0.3l1,0.2l0.9-0.5l0.2-0.7c0-0.1,0.1-0.3,0.1-0.4V64
		c0.1-0.4,0.2-0.9,0.2-1.4c0-0.1,0-0.3,0-0.4c0-0.1,0-0.2,0.1-0.4c0-0.2,0.1-0.5-0.1-0.8c0,0,0-0.1,0-0.2v-0.1c0-0.2,0-0.3,0.1-0.5
		c0-0.2,0.1-0.4,0.1-0.5s0-0.3,0-0.4c0-0.2,0-0.3,0-0.4c0.1-0.2,0.1-0.5,0-0.5c0-0.1,0-0.1,0-0.2l0.1-0.3c0-0.1,0-0.3,0.1-0.4
		c0-0.1,0-0.2,0-0.3v-0.1l0.4-2.9L97.9,54c0.1,0.1,0.2,0.3,0.2,0.3v-0.1c0-0.1,0.1-0.1,0.1-0.2c0.1-0.3,0.3-0.9,0.1-1.5
		c0.2-0.4,0.3-0.9,0.3-1.3c0.2,0.6,0.3,1.1,0.4,1.7c0.1,0.6,0.3,1.1,0.4,1.7c0.1,0.6,0.3,1.2,0.4,1.9c0.3,1,0.5,2.1,0.8,3.1
		c0.1,0.2,0.1,0.5,0.2,0.7c0.1,0.4,0.2,0.8,0.3,1.2c0.1,0.3,0.1,0.6,0.2,0.9l0.1,0.4c0.1,0.4,0.2,0.8,0.3,1.2c0.1,0.3,0.2,0.7,0.3,1
		l0.8,2.4l0.5,0.5c0.1,0,0.2,0.1,0.3,0.2c0.3,0.2,0.6,0.5,1.1,0.5h0.1c0.3,0.2,0.7,0.3,1,0.3l0.7-0.5c0-0.1,0-0.1,0.1-0.2
		c0-0.1,0-0.2,0.1-0.2c0.5-0.8,0.6-1.6,0.8-2.5c0-0.1,0-0.2,0-0.3c0.1-0.5,0.2-1.1,0.1-1.7c0-0.1,0-0.3,0-0.3l0.1-0.4
		c0.1-0.1,0.1-0.2,0.2-0.4c0.1-0.3,0.2-0.7,0.2-1c0-0.2,0.1-0.4,0.1-0.6c0-0.1,0-0.3,0.1-0.4c0-0.2,0.1-0.4,0.1-0.6
		c0.1-0.4,0.1-0.7,0.1-1s0-0.5,0.1-0.8s0.1-0.5,0.1-0.8c0-0.2,0-0.4,0.1-0.5c0.1-0.4,0.1-0.8,0.2-1.2v-0.4c0-0.3-0.1-0.4-0.1-0.5
		l-0.1-0.1c0-0.2,0.1-0.3,0.1-0.5c0.1-0.3,0.1-0.5,0.2-0.7c0.4-0.5,0.2-1,0.1-1.2h-0.1c0,0,0-0.1,0-0.2l0.4-0.5l0.4-2.6l-0.1-0.3
		l0.2-1l-0.3-0.5h0.4c0.1-0.4,0.1-0.6,0.1-0.8l0.2-0.1c0-0.1,0.2-0.5-0.1-0.9c-0.1-0.1-0.1-0.1-0.2-0.2v-0.1c0-0.4,0-0.8,0.1-1.2
		v-0.1c0.4-0.3,0.5-0.7,0.6-1c0-0.1,0-0.1,0-0.2c0-0.1,0.1-0.2,0.1-0.4c0.1-0.3,0.2-0.5,0.2-0.7v-0.1L110.6,40.7z M109.8,45.3
		L109.8,45.3C109.8,45.2,109.8,45.2,109.8,45.3L109.8,45.3z M109.8,45.1v-0.2C109.9,45,109.9,45.1,109.8,45.1
		C109.9,45.1,109.9,45.1,109.8,45.1z"/>
	<path class="st1" d="M85.6,42.6c0,0.4,0,0.8,0,1.2c0,1.1,0,2.3,0.2,3.5c0,0.3,0.1,0.6,0.1,0.9c0,0.2,0,0.3,0,0.5l0.1,0.9
		c0,0.6,0.1,1.2,0.1,1.8c0,0.3,0,0.6,0,1c0,0.3,0,0.6,0,0.9c0,0.8,0.1,1.6,0.2,2.5c0.1,0.8,0.1,1.6,0.2,2.3l0.1,0.8
		c0,0.1,0,0.1,0,0.1l0.1,0.5c0,0.4,0.1,0.8,0.1,1.2c0,0.5,0.1,0.9,0.1,1.4c0,0.6,0.1,1.1,0.1,1.7c0,0.3,0.1,0.6,0.1,0.9
		c0.1,0.7,0.2,1.4,0.1,2.1c0,0.2,0.1,0.4,0.2,0.6l1,0.4c-0.1,0.1-0.3,0-0.4-0.1c0.5,0.5,0.9,0.6,1.2,0.5l0.7,0.3l0.9-0.3L91,68
		l0.1-0.4v-0.3c0-0.2,0-0.3,0-0.5L91,66.4c-0.1-0.6-0.2-1.1-0.1-1.6c0-0.4,0-0.7-0.1-1c-0.1-0.2-0.1-0.5-0.1-0.8
		c0-0.2,0-0.4-0.1-0.7c0-0.3-0.1-0.6-0.1-0.9c0-0.2,0-0.5,0-0.7c0-0.5-0.1-1.1-0.2-1.6l-0.1-0.5c0-0.1,0-0.2,0-0.2v-0.1l-0.3-4.8
		c0.1-0.5,0.1-1-0.1-1.4v-0.5l0,0c0-0.1,0.1-0.2,0.1-0.4c0-0.3,0-0.6,0-0.9v-0.2c0-0.5-0.1-1.1-0.1-1.6c0-0.1,0-0.2-0.1-0.4V48h-0.2
		c0-0.1-0.1-0.3-0.2-0.5l0.1-0.2c0-0.1,0-0.3,0-0.4c0-0.4,0-0.8-0.3-1.3L89,45.4l-0.1-0.1c0-0.1,0-0.2,0-0.3c0-0.2,0-0.5,0.1-0.6
		l-0.1-0.7l0,0c0.1-1.1-0.3-1.9-1.3-2.3c-0.1,0-0.2-0.1-0.3-0.1L87,41.1c-0.6-0.2-1,0-1.2,0.2L85.6,42c0,0.1,0,0.2,0,0.3
		C85.6,42.4,85.6,42.4,85.6,42.6z"/>
	<path class="st1" d="M107.9,70.5c-0.2,0-0.3,0-0.5,0c-0.1,0-0.2,0-0.3,0c-0.2,0-0.4,0-0.7,0c-0.1,0-0.3,0-0.4,0
		c-0.2,0-0.5,0-0.7-0.1c-0.2,0-0.5,0-0.7,0s-0.3,0-0.5,0s-0.3,0-0.5,0c-0.5,0-0.9,0-1.4,0c-0.4,0.1-0.7,0.1-1.1,0.1h-0.3
		c-1.5,0-3,0-4.6,0c-0.6,0-1.2,0-1.7,0h-1.1c-0.3,0-0.5,0-0.8,0c-0.2,0-0.3,0-0.5,0s-0.5,0-0.7,0s-0.4,0-0.6,0s-0.4,0-0.6,0
		s-0.4,0-0.6,0c-0.3,0-0.5,0-0.8,0s-0.6,0-1,0c-0.3,0-0.5,0-0.8,0c-0.4,0-0.9,0-1.3,0h-0.9h-0.2c-0.8,0-1.5,0-2.3,0
		c-0.5,0-0.9,0-1.4,0l-3.2,0.1c-0.2,0-0.4,0-0.5,0s-0.2,0-0.3,0c-0.1,0-0.2,0-0.2,0c-0.6,0-1.2,0-1.8,0c-0.5,0-1,0-1.5,0l-1.9,0.1
		c-0.2,0-0.5,0-0.7,0c-0.4,0-0.8,0.1-1.1,0.1c-0.1,0-0.2,0-0.3,0c-0.3,0-0.6,0-1,0.1c-0.1,0-0.1,0-0.1,0c-0.4-0.1-0.8-0.1-1.1,0H67
		c-0.3,0-0.5,0-0.7-0.1s-0.3-0.1-0.5-0.1l-0.7,0.4l-0.2,0.3v0.7c0.3,0.4,0.6,0.6,1.1,0.7h0.1c0.2,0,0.5,0.1,0.8,0c0.3,0,0.5,0,0.8,0
		c0.2,0,0.3,0,0.5,0c0.1,0,0.2,0,0.4,0h0.2c0.1,0,0.2,0,0.3,0c0.2,0,0.4,0,0.6,0c0.4,0,0.9,0,1.4-0.1C71.6,73,72,73,72.4,73
		s0.7,0,1.1-0.1c0.2,0,0.5,0,0.7,0h1.6c0.2,0,0.5,0,0.7,0c0.1,0,0.3,0,0.4-0.1c0.1,0,0.2,0,0.2,0c1.1,0,2.3,0,3.4,0
		c0.3,0,0.6,0,0.8,0c0.3,0,0.6,0,0.9,0c0.4,0,0.8,0,1.2,0h0.7c0.1,0,0.2,0,0.3,0c0.2,0,0.5,0,0.8,0c0.2,0,0.3,0,0.5,0
		c0.1,0,0.2,0,0.3,0h0.1h2.2h0.6c0.1,0,0.2,0,0.3,0c0.1,0,0.3,0,0.4,0H90c0.1,0,0.2,0,0.3,0c0.2,0,0.4,0,0.7,0h0.4
		c0.3,0,0.5,0,0.8,0c0.2,0,0.4,0,0.5,0s0.2,0,0.3,0c0.5,0,1.1,0.1,1.6,0.2c0.2,0,0.3,0,0.5-0.1c0.2,0,0.4,0,0.6,0c0.1,0,0.2,0,0.2,0
		c0.1,0,0.2,0,0.4,0h0.1c0.1,0,0.2,0.1,0.3,0.1h0.1c0.2,0.1,0.6,0.2,1,0c0,0,0,0,0.1,0s0.3,0,0.4,0h0.2c0.2,0,0.4,0,0.4,0l0.2-0.4
		l0.4,0.3c-0.1,0-0.2,0-0.3,0c0.2,0.1,0.4,0.1,0.5,0.1c0,0,0.1,0,0,0h0.1l0.1,0.3h0.3l0.3-0.2l0,0h0.1l0,0c0.2,0.1,0.7,0.3,1.2,0.1
		c0,0,0,0,0.1,0c0.5,0.2,0.8,0,1-0.1h0.1c0.2,0,0.3-0.1,0.5-0.2v0.2l0.6,0.1c0.3,0,0.5,0.1,0.8,0.1c0.2,0,0.4,0,0.6,0s0.5,0,0.7,0
		h0.1c0.3,0,0.7,0.1,1.2,0c0.1,0,0.2,0,0.2,0c0.2,0.1,0.4,0.2,0.5,0.2h0.1l0.8-0.7c0-0.6-0.2-1.2-0.5-1.6
		C108.6,70.8,108.3,70.5,107.9,70.5z M99.6,72.8L99.6,72.8l-0.1-0.4h0.1l0.2,0.3C99.8,72.7,99.7,72.7,99.6,72.8z M103.1,72.6
		L103.1,72.6L103.1,72.6L103.1,72.6z M103.6,72.7c-0.2,0.1-0.4,0-0.5-0.1l0.6-0.4L103.6,72.7z"/>
</g>
<path class="st1" d="M179.4,101.2c-0.3-0.2-0.7-0.3-1-0.3c-0.4,0-0.8,0-1.1,0s-0.6,0-0.8,0c-0.6,0-1.3,0-1.9,0c-0.4,0-0.8,0-1.2-0.1
	c-0.6,0-1.2-0.1-1.8-0.1s-1.1,0-1.7,0c-0.5,0-1,0-1.5,0c-0.4,0-0.8,0-1.3,0c-1.1,0-2.3-0.1-3.4,0c-1.1,0.1-2.2,0-3.2,0h-0.8
	c-4,0-8-0.1-12-0.1c-1.5,0-3,0-4.5-0.1h-3c-0.7,0-1.4,0-2.1,0c-0.4,0-0.9,0-1.3,0c-0.6,0-1.2,0-1.8,0c-0.5,0-1,0-1.5,0s-1,0-1.5,0
	s-1.1,0-1.6,0c-0.7,0-1.3,0-2,0c-0.8,0-1.6,0-2.4,0c-0.7,0-1.4,0-2.1,0c-1.2,0-2.4,0-3.5,0h-2.8c-2,0-3.9,0-5.9,0
	c-1.2,0-2.3,0-3.5,0h-7.4h-1c-0.5,0-0.9,0-1.4,0c-0.2,0-0.5,0-0.7,0c-0.3,0-0.5,0-0.8,0c-0.8,0-1.6,0-2.3,0c-0.8,0-1.6,0-2.3,0
	c-1.3,0-2.7,0-4,0h-1c-0.1,0-0.2,0-0.3,0c-0.1,0-0.1,0-0.2,0h-3.4c-0.6,0-1.2,0-1.8,0c-1,0-1.9,0.1-2.9,0.1c-0.4,0-0.7,0-1.1,0
	c-0.6,0-1.3,0-2,0.1c-0.3,0-0.9,0.1-1.2,0.1c-0.8-0.1-1.7-0.1-2.5,0h-0.6c-1.1,0-1.9,0-2.7-0.1c-0.2,0-0.4,0-0.7,0h-0.3l-0.4,0.1
	l-0.5,0.3v1.2c0.6,0.4,1.3,0.5,1.9,0.5h0.3c0.5,0,1.1,0.1,1.7,0.1c0.8,0,1.7,0,2.6,0c0.4,0,0.8,0,1.2,0c0.2,0,0.3,0,0.5,0h0.6
	c0.3,0,0.6,0,0.9,0c0.5,0,1.1,0,1.6,0c1.1,0,2.3,0,3.4-0.1s2.3-0.1,3.4-0.1c0.9,0,1.8,0,2.7,0c0.7,0,1.4,0,2.1,0l4.1,0.1
	c0.6,0,1.1,0,1.7,0c0.3,0,0.6,0,0.9-0.1c0.3,0,0.7-0.1,1-0.1c3,0,6,0,9,0.1c0.8,0,1.5,0,2.3,0s1.6,0,2.4,0c1,0,2,0,3.1,0h1.8
	c0.3,0,0.6,0,0.9,0c0.6,0,1.2,0,1.8,0c0.6,0,1.2,0,1.8,0c0.3,0,0.5,0,0.8,0h4.1h2.1c0.1,0,0.2,0,0.3,0h0.3c0.2,0,0.4,0,0.6,0h0.3
	c0.2,0,0.4,0,0.6,0c0.3,0,0.6,0,1,0h0.9c0.4,0,0.7,0,1.1,0c0.6,0,1.3,0,1.9,0.1h1.2c0.6,0,1.2,0,1.7,0.1c0.4,0,0.8,0,1.2,0
	c0.2,0,0.4,0,0.6,0c0.2,0,0.3,0,0.5,0c1.4,0.1,2.8,0.1,4.3,0.2c0.3,0,0.5,0,0.7-0.1c0.1,0,0.2,0,0.2,0c0.5,0,1.1,0,1.6,0
	c0.2,0,0.4-0.1,0.6-0.1l0,0h0.1c0.2,0.1,0.5,0.1,0.8,0.1s0.6,0,1,0c0.2,0,0.4,0,0.5,0.1c0.2,0,0.3,0,0.5,0.1c0.5,0.1,1.1,0.1,1.7,0
	c0.1,0,0.1,0,0.2,0h0.2c0.4,0,0.7,0,1.1,0h0.4c0.7,0,1.4-0.1,2.1,0.1l0.1-0.4l0.2,0.4v-0.6l0.4,0.3c-0.1,0.1-0.1,0.1-0.2,0.1
	c0,0,0,0,0.2,0c0.3,0,0.6,0.1,0.9,0.1c0.3,0,0.5,0,0.8,0.1l0.1,0.2h0.9l0.3-0.2l0.7-0.1c0.2,0,0.4,0.1,0.6,0.1
	c0.8,0.1,1.7,0.3,2.6,0l0,0c0.2,0.1,0.4,0.1,0.6,0.1c0.6,0.1,1,0.1,1.2-0.1c0.2-0.1,0.4-0.1,0.7-0.1h0.3c0.3,0,0.5-0.1,0.8-0.1
	c0.2,0,0.2,0,0.2,0s0.1,0,0.2,0.1l0,0l0,0l0,0l0.4-0.6v0.7l1.5,0.1c0.7,0,1.4,0.1,2.1,0.1c0.5,0,1,0,1.6,0.1c0.6,0,1.3,0,1.9,0.1
	h0.3c0.8,0,1.7,0.1,2.5,0c0.7-0.1,1.3,0,1.8,0.1c0.2,0.1,0.5,0.1,0.7,0.1c0.1,0,0.2,0,0.3,0l0.7-0.8
	C180.6,102.2,180.2,101.6,179.4,101.2z"/>
<g>
	<path class="st0" d="M151.7,70c-0.2-0.1-0.4-1.4-0.4-1.6c0-0.3,0.1-0.6-0.1-0.9v-0.1c0.1-0.7-0.1-1.4-0.1-2.1c0-0.1,0-0.2,0-0.3
		c0.1-0.2,0.2-0.5,0.2-0.7c0-0.4,0.2-0.7,0.3-1.1c0.1-0.3,0.2-0.7,0.2-1.1c0-0.5,0-1,0.1-1.5c0-0.2,0-0.4-0.2-0.5
		c-0.1-0.1-0.2-0.1-0.3-0.2c-0.2,0-0.4-0.1-0.6-0.1c-0.2,0-0.3,0.1-0.3,0.3c0,0.1,0,0.3,0,0.4c-0.1,0.6-0.2,1.2-0.2,1.8h-0.1
		c-0.5-0.3-1.1-0.5-1.7-0.6c-0.3,0-0.5,0-0.8,0s-0.6,0.2-0.9,0.2c-0.2,0.1-0.4,0.2-0.5,0.4c-0.2,0.5-0.5,1-0.7,1.5
		c-0.1,0.3-0.2,0.5-0.3,0.8s0,0.6-0.3,0.8l0,0c-0.1,0.5-0.2,1-0.2,1.5c0,0.2,0,0.4,0.1,0.6c0.1,0.4,0.1,0.7,0.1,1.1
		c0,0,0,0.1-0.1,0.1l0,0c0,0.4,0.1,0.9,0.1,1.3c0,0.1,0,0.1,0,0.2c0.1,0.2,0.2,0.4,0.2,0.6c0.1,0.3,0.2,0.6,0.5,0.9
		c0.2,0.1,0.5,0.3,0.8,0.2c0.4,0,0.7-0.1,0.9-0.4c0.1-0.1,0.2-0.2,0.3-0.4c0.1-0.1,0.2-0.2,0.3-0.3c0.3-0.2,0.4-0.5,0.6-0.8
		c0.3-0.5,0.5-1,0.8-1.5c0.1-0.2,0.2-0.4,0.3-0.6l0.1-0.1h0.1c0.2,0.1,0.1,0.5,0.2,0.7c0.1,0.3,0.1,0.7,0.2,1
		c0.1,0.3,0.2,0.5,0.2,0.8c0,0.1,0.1,0.2,0.1,0.3c0.1,0.2,0.2,0.3,0.2,0.5c0.3,0.8,0.7,0.4,1-0.1c0.1-0.2,0.3-0.4,0.2-0.6
		C152,70.1,151.8,70.1,151.7,70z M151.4,62.1c0-0.1,0-0.1,0-0.2C151.5,62,151.5,62,151.4,62.1z M151.4,62.1c0,0.3,0,0.6,0,0.9
		c-0.1-0.1-0.1-0.1-0.1-0.1C151.3,62.6,151.3,62.3,151.4,62.1z M151.1,63.7L151.1,63.7L151.1,63.7L151.1,63.7z M146.4,65L146.4,65
		L146.4,65L146.4,65z M146.2,65.8c0-0.1,0-0.1,0-0.2C146.3,65.7,146.2,65.8,146.2,65.8z M146.2,65.8c0,0.1,0,0.1,0,0.2
		C146.1,65.9,146.1,65.9,146.2,65.8z M146,66.4L146,66.4C146,66.5,146,66.4,146,66.4L146,66.4z M147.3,70.7L147.3,70.7L147.3,70.7
		L147.3,70.7z M149.9,64.3c-0.1,0.3-0.2,0.6-0.3,0.9c-0.2,0.4-0.3,0.9-0.5,1.3c-0.2,0.5-0.5,0.9-0.8,1.3c-0.5,0.7-1,1.4-1.5,2.1
		c-0.1,0.2-0.3,0.3-0.4,0.5c-0.2,0-0.2-0.1-0.3-0.2c-0.1-0.3-0.1-0.5-0.1-0.8c0,0,0-0.1,0.1-0.2l0,0c0-0.1-0.1-0.2,0-0.2
		c0.1-0.3,0-0.6,0-0.9c0-0.6,0.1-1.1,0.2-1.7c0.1-0.5,0.2-1,0.4-1.5c0-0.1,0.1-0.2,0.1-0.3c0.2-0.3,0.3-0.6,0.4-0.9
		c0.2-0.4,0.4-0.9,0.6-1.2c0.4-0.2,0.8-0.3,1.3-0.2c0,0.1,0,0.1,0,0.2c0.1,0,0.1,0,0.2,0.1c0,0,0,0.1,0.1,0.2
		c0.1,0.2,0.2,0.4,0.5,0.4c0.1,0,0.2,0.1,0.2,0.2C150.1,63.6,150,63.9,149.9,64.3z M151.1,67.1L151.1,67.1c0-0.1,0-0.2,0-0.3
		C151.2,67,151.1,67,151.1,67.1z"/>
	<path class="st0" d="M127.1,69.1c-0.2-0.1-0.4-1.4-0.4-1.6c0-0.3,0.1-0.6-0.1-0.9v-0.1c0.1-0.7-0.1-1.4-0.1-2.1c0-0.1,0-0.2,0-0.3
		c0.1-0.2,0.2-0.5,0.2-0.7c0-0.4,0.2-0.7,0.3-1.1c0.1-0.3,0.2-0.7,0.2-1.1c0-0.5,0-1,0.1-1.5c0-0.2,0-0.4-0.2-0.5
		c-0.1-0.1-0.2-0.1-0.3-0.2c-0.2,0-0.4-0.1-0.6-0.1s-0.3,0.1-0.3,0.3c0,0.1,0,0.3,0,0.4c-0.1,0.6-0.2,1.2-0.2,1.8h-0.1
		c-0.5-0.3-1.1-0.5-1.7-0.6c-0.3,0-0.5,0-0.8,0s-0.6,0.2-0.9,0.2c-0.2,0.1-0.4,0.2-0.5,0.4c-0.2,0.5-0.5,1-0.7,1.5
		c-0.1,0.3-0.2,0.5-0.3,0.8c-0.1,0.3,0,0.6-0.3,0.8l0,0c-0.1,0.5-0.2,1-0.2,1.5c0,0.2,0,0.4,0.1,0.6c0.1,0.4,0.1,0.7,0.1,1.1
		c0,0,0,0.1-0.1,0.1l0,0c0,0.4,0.1,0.9,0.1,1.3c0,0.1,0,0.1,0,0.2c0.1,0.2,0.2,0.4,0.2,0.6c0.1,0.3,0.2,0.6,0.5,0.9
		c0.2,0.1,0.5,0.3,0.8,0.2c0.4,0,0.7-0.1,0.9-0.4c0.1-0.1,0.2-0.2,0.3-0.4c0.1-0.1,0.2-0.2,0.3-0.3c0.3-0.2,0.4-0.5,0.6-0.8
		c0.3-0.5,0.5-1,0.8-1.5c0.1-0.2,0.2-0.4,0.3-0.6l0.1-0.1h0.1c0.2,0.1,0.1,0.5,0.2,0.7c0.1,0.3,0.1,0.7,0.2,1s0.2,0.5,0.2,0.8
		c0,0.1,0.1,0.2,0.1,0.3c0.1,0.2,0.2,0.3,0.2,0.5c0.3,0.8,0.7,0.4,1-0.1c0.1-0.2,0.3-0.4,0.2-0.6C127.4,69.3,127.2,69.3,127.1,69.1z
		 M126.8,61.3c0-0.1,0-0.1,0-0.2C126.9,61.2,126.9,61.2,126.8,61.3z M126.8,61.3c0,0.3,0,0.6,0,0.9c-0.1-0.1-0.1-0.1-0.1-0.1
		C126.7,61.8,126.7,61.5,126.8,61.3z M126.5,62.9L126.5,62.9L126.5,62.9L126.5,62.9z M121.8,64.2L121.8,64.2L121.8,64.2L121.8,64.2z
		 M121.6,65c0-0.1,0-0.1,0-0.2C121.7,64.9,121.6,65,121.6,65z M121.6,65c0,0.1,0,0.1,0,0.2C121.5,65.1,121.5,65.1,121.6,65z
		 M121.4,65.6L121.4,65.6L121.4,65.6L121.4,65.6z M122.7,69.9L122.7,69.9L122.7,69.9L122.7,69.9z M125.3,63.4
		c-0.1,0.3-0.2,0.6-0.3,0.9c-0.2,0.4-0.3,0.9-0.5,1.3c-0.2,0.5-0.5,0.9-0.8,1.3c-0.5,0.7-1,1.4-1.5,2.1c-0.1,0.2-0.3,0.3-0.4,0.5
		c-0.2,0-0.2-0.1-0.3-0.2c-0.1-0.3-0.1-0.5-0.1-0.8c0,0,0-0.1,0.1-0.2l0,0c0-0.1-0.1-0.2,0-0.2c0.1-0.3,0-0.6,0-0.9
		c0-0.6,0.1-1.1,0.2-1.7c0.1-0.5,0.2-1,0.4-1.5c0-0.1,0.1-0.2,0.1-0.3c0.2-0.3,0.3-0.6,0.4-0.9c0.2-0.4,0.4-0.9,0.6-1.2
		c0.4-0.2,0.8-0.3,1.3-0.2c0,0.1,0,0.1,0,0.2c0.1,0,0.1,0,0.2,0.1c0,0,0,0.1,0.1,0.2c0.1,0.2,0.2,0.4,0.5,0.4c0.1,0,0.2,0.1,0.2,0.2
		C125.5,62.8,125.4,63.1,125.3,63.4z M126.5,66.3L126.5,66.3c0-0.1,0-0.2,0-0.3C126.6,66.1,126.5,66.2,126.5,66.3z"/>
	<path class="st0" d="M234.3,69.8c-0.2-0.1-0.4-1.4-0.4-1.6c0-0.3,0.1-0.6-0.1-0.9v-0.1c0.1-0.7-0.1-1.4-0.1-2.1c0-0.1,0-0.2,0-0.3
		c0.1-0.2,0.2-0.5,0.2-0.7c0-0.4,0.2-0.7,0.3-1.1c0.1-0.3,0.2-0.7,0.2-1.1c0-0.5,0-1,0.1-1.5c0-0.2,0-0.4-0.2-0.5
		c-0.1-0.1-0.2-0.1-0.3-0.2c-0.2,0-0.4-0.1-0.6-0.1c-0.2,0-0.3,0.1-0.3,0.3c0,0.1,0,0.3,0,0.4c-0.1,0.6-0.2,1.2-0.2,1.8h-0.1
		c-0.5-0.3-1.1-0.5-1.7-0.6c-0.3,0-0.5,0-0.8,0s-0.6,0.2-0.9,0.2c-0.2,0.1-0.4,0.2-0.5,0.4c-0.2,0.5-0.5,1-0.7,1.5
		c-0.1,0.3-0.2,0.5-0.3,0.8s0,0.6-0.3,0.8l0,0c-0.1,0.5-0.2,1-0.2,1.5c0,0.2,0,0.4,0.1,0.6c0.1,0.4,0.1,0.7,0.1,1.1
		c0,0,0,0.1-0.1,0.1l0,0c0,0.4,0.1,0.9,0.1,1.3c0,0.1,0,0.1,0,0.2c0.1,0.2,0.2,0.4,0.2,0.6c0.1,0.3,0.2,0.6,0.5,0.9
		c0.2,0.1,0.5,0.3,0.8,0.2c0.4,0,0.7-0.1,0.9-0.4c0.1-0.1,0.2-0.2,0.3-0.4c0.1-0.1,0.2-0.2,0.3-0.3c0.3-0.2,0.4-0.5,0.6-0.8
		c0.3-0.5,0.5-1,0.8-1.5c0.1-0.2,0.2-0.4,0.3-0.6l0.1-0.1h0.1c0.2,0.1,0.1,0.5,0.2,0.7c0.1,0.3,0.1,0.7,0.2,1
		c0.1,0.3,0.2,0.5,0.2,0.8c0,0.1,0.1,0.2,0.1,0.3c0.1,0.2,0.2,0.3,0.2,0.5c0.3,0.8,0.7,0.4,1-0.1c0.1-0.2,0.3-0.4,0.2-0.6
		C234.6,70,234.5,69.9,234.3,69.8z M234,61.9c0-0.1,0-0.1,0-0.2C234.1,61.8,234.1,61.9,234,61.9z M234,61.9c0,0.3,0,0.6,0,0.9
		c-0.1-0.1-0.1-0.1-0.1-0.1C233.9,62.4,233.9,62.2,234,61.9z M233.7,63.6L233.7,63.6L233.7,63.6L233.7,63.6z M229,64.8L229,64.8
		L229,64.8L229,64.8z M228.8,65.6c0-0.1,0-0.1,0-0.2C228.9,65.5,228.8,65.6,228.8,65.6z M228.8,65.7c0,0.1,0,0.1,0,0.2
		C228.7,65.8,228.7,65.7,228.8,65.7z M228.6,66.2C228.6,66.2,228.6,66.3,228.6,66.2C228.6,66.3,228.6,66.3,228.6,66.2L228.6,66.2z
		 M230,70.6L230,70.6L230,70.6L230,70.6z M232.5,64.1c-0.1,0.3-0.2,0.6-0.3,0.9c-0.2,0.4-0.3,0.9-0.5,1.3c-0.2,0.5-0.5,0.9-0.8,1.3
		c-0.5,0.7-1,1.4-1.5,2.1c-0.1,0.2-0.3,0.3-0.4,0.5c-0.2,0-0.2-0.1-0.3-0.2c-0.1-0.3-0.1-0.5-0.1-0.8c0,0,0-0.1,0.1-0.2l0,0
		c0-0.1-0.1-0.2,0-0.2c0.1-0.3,0-0.6,0-0.9c0-0.6,0.1-1.1,0.2-1.7c0.1-0.5,0.2-1,0.4-1.5c0-0.1,0.1-0.2,0.1-0.3
		c0.2-0.3,0.3-0.6,0.4-0.9c0.2-0.4,0.4-0.9,0.6-1.2c0.4-0.2,0.8-0.3,1.3-0.2c0,0.1,0,0.1,0,0.2c0.1,0,0.1,0,0.2,0.1
		c0,0,0,0.1,0.1,0.2c0.1,0.2,0.2,0.4,0.5,0.4c0.1,0,0.2,0.1,0.2,0.2C232.7,63.4,232.6,63.8,232.5,64.1z M233.7,67L233.7,67
		c0-0.1,0-0.2,0-0.3C233.8,66.8,233.7,66.9,233.7,67z"/>
	<path class="st0" d="M174.3,67.8c0.1-0.3,0.2-0.7,0.2-1.1c0-0.1,0-0.2,0-0.2c-0.2-0.1-0.4-0.2-0.6-0.3c-0.2-0.1-0.4-0.1-0.6,0.1
		c0,0.2,0,0.5,0,0.7c0,0.4-0.1,0.7-0.3,1c-0.3,0.5-0.6,0.9-0.9,1.4c-0.2,0.4-0.6,0.6-0.9,0.9c-0.1,0.1-0.2,0.1-0.4,0.2
		c-0.1,0-0.2,0-0.3,0c-0.1-0.2-0.2-0.3-0.3-0.4c-0.2-0.5-0.4-0.9-0.5-1.4c-0.1-0.3-0.3-0.7-0.2-1c0-0.1,0-0.2,0-0.2
		c0-0.1,0-0.3,0-0.4c0-0.9-0.1-1.7-0.1-2.6c0-1.2,0-2.5,0.1-3.7c0.1-0.9,0.2-1.8,0.4-2.7c0.2-0.7,0.1-1.5,0.3-2.2
		c0.2-1.1,0.4-2.1,0.6-3.2c0-0.1,0-0.2,0-0.3c-0.3-0.2-0.7-0.4-1.1-0.5c-0.1,0-0.2,0-0.4,0.1c0,0.2-0.1,0.5-0.1,0.8
		c-0.1,0.5-0.2,0.9-0.3,1.4s-0.1,1.1-0.2,1.6c-0.1,0.6-0.1,1.3-0.3,1.9c0,0.1,0,0.2,0,0.2c0,0.9-0.3,1.9-0.4,2.8
		c-0.1,0.8-0.1,1.5,0,2.3c0,0.6,0.1,1.1,0.1,1.7c0.1,0.5,0.1,1.1,0.1,1.6c0,0.6,0.1,1.2,0.2,1.8c0.1,0.4,0.2,0.7,0.3,1.1
		s0.3,0.8,0.5,1.1c0.3,0.4,0.6,0.7,1.1,0.7c0.3,0,0.5,0.1,0.8,0.1c0.2,0,0.4,0,0.6-0.1c0.5-0.2,0.9-0.5,1.3-0.8
		c0.1,0,0.1-0.1,0.1-0.2c0.4-0.7,0.9-1.4,1.3-2.1C174.3,67.9,174.3,67.9,174.3,67.8z"/>
	<path class="st0" d="M212.9,68.2c-0.2-0.1-0.4-0.1-0.6,0.1c0,0.2,0,0.5,0,0.7c0,0.4-0.1,0.7-0.3,1c-0.3,0.5-0.6,0.9-0.9,1.4
		c-0.2,0.4-0.6,0.6-0.9,0.9c-0.1,0.1-0.2,0.1-0.4,0.2c-0.1,0-0.2,0-0.3,0c-0.1-0.2-0.2-0.3-0.3-0.4c-0.2-0.5-0.4-0.9-0.5-1.4
		c-0.1-0.3-0.3-0.7-0.2-1c0-0.1,0-0.2,0-0.2c0-0.1,0-0.3,0-0.4c0-0.9-0.1-1.7-0.1-2.6c0-1.2,0-2.5,0.1-3.7c0.1-0.9,0.2-1.8,0.4-2.7
		c0.2-0.7,0.1-1.5,0.3-2.2c0.2-1.1,0.4-2.1,0.6-3.2c0-0.1,0-0.2,0-0.3c-0.3-0.2-0.7-0.4-1.1-0.5c-0.1,0-0.2,0-0.4,0.1
		c0,0.2-0.1,0.5-0.1,0.8c-0.1,0.5-0.2,0.9-0.3,1.4s-0.1,1.1-0.2,1.6c-0.1,0.6-0.1,1.3-0.3,1.9c0,0.1,0,0.2,0,0.2
		c0,0.9-0.3,1.9-0.4,2.8c0,0.7-0.1,1.3,0,2c0,0.1-0.1,0.2-0.1,0.3c-0.1,0.3-1.3,1.8-1.7,1.3c-0.2-0.3-0.5-0.5-0.7-0.8
		s-0.5-0.5-0.8-0.7c0-0.1-0.1-0.2-0.2-0.3c-0.1,0.1-0.1,0.1-0.2,0.1c0-0.1,0-0.1,0-0.2c-0.4-0.4-0.9-0.6-1.4-0.8
		c-0.2-0.1-0.3,0-0.5,0.1c-0.2,0.3-0.5,0.5-0.7,0.8c-0.1,0.2-0.3,0.4-0.3,0.7c-0.1,0.4-0.2,0.7-0.3,1.1c0,0.1-0.1,0.2-0.1,0.4
		c-0.1,0.4-0.2,0.8-0.2,1.3c0,0.1,0,0.3-0.1,0.4c0,0.2-0.1,0.5-0.1,0.7s0,0.4,0,0.5c0,0.6,0.1,1.1,0.3,1.6c0.2,0.6,0.5,1.2,0.9,1.7
		c0.2,0.3,0.4,0.5,0.8,0.6c0.4,0.2,0.8,0.2,1.2,0.3c0,0,0.2-0.2,0.3-0.3c0.1,0,0.1-0.1,0.1-0.1l0.1-0.1c0.1-0.2,0.1-0.3,0.2-0.4
		c0.1-0.2,0.2-0.3,0.3-0.5c0.2-0.4,0.5-0.7,0.7-1.1c0.1-0.1,0.1-0.2,0.2-0.4c0.1-0.1,0.1-0.2,0.2-0.3c0.2-0.5,0.3-1,0.5-1.6
		c0-0.1,0-0.2,0-0.3c0-0.2,0-0.4,0-0.5s0-0.2,0.1-0.3c0.2-0.3-0.1-0.7,0.1-0.9c0.1-0.2,0.5-0.2,0.7-0.2c0,0,0,0,0.1,0
		c0.4-0.1,0.6-0.3,0.9-0.6c0,0.2,0,0.3,0,0.5c0.1,0.5,0.1,1.1,0.1,1.6c0,0.6,0.1,1.2,0.2,1.8c0.1,0.4,0.2,0.7,0.3,1.1
		s0.3,0.8,0.5,1.1c0.3,0.4,0.6,0.7,1.1,0.7c0.3,0,0.5,0.1,0.8,0.1c0.2,0,0.4,0,0.6-0.1c0.5-0.2,0.9-0.5,1.3-0.8
		c0.1,0,0.1-0.1,0.1-0.2c0.4-0.7,0.9-1.4,1.3-2.1c0-0.1,0.1-0.1,0.1-0.2c0.1-0.3,0.2-0.7,0.2-1.1c0-0.1,0-0.2,0-0.2
		C213.3,68.4,213.1,68.3,212.9,68.2z M203,65.6c0.1-0.3,0.2-0.3,0.4-0.2c0.1,0.1,0.3,0.3,0.4,0.4c0.1,0.1,0.2,0.3,0.3,0.5
		c0.1,0.1,0.1,0.2,0,0.3c-0.3,0.1-0.6,0.2-0.9,0.1c-0.1-0.3-0.3-0.7-0.3-1C203,65.7,203,65.7,203,65.6z M200.6,70.5
		c-0.1-0.1-0.1-0.3,0-0.4C200.6,70.3,200.6,70.4,200.6,70.5z M200.7,71.3L200.7,71.3C200.7,71.2,200.7,71.2,200.7,71.3
		C200.7,71.2,200.7,71.3,200.7,71.3L200.7,71.3z M204.3,68.2c0.1,0.2,0,0.4,0,0.6c-0.1,0.2-0.1,0.4-0.1,0.5
		c-0.1,0.3-0.1,0.5-0.2,0.7c-0.2,0.4-0.4,0.7-0.5,1.1c-0.2,0.5-0.6,0.9-0.9,1.4c-0.2,0.3-0.5,0.5-0.7,0.8c-0.1,0-0.1-0.1-0.1-0.1
		c-0.1-0.1-0.2-0.3-0.2-0.4c-0.1-0.1-0.2-0.2-0.2-0.4c0-0.1-0.1-0.1-0.1-0.2s0-0.2-0.1-0.2c0-0.2,0-0.2,0-0.5
		c-0.1-0.3-0.2-0.7-0.2-1c0-0.2,0-0.4-0.1-0.6c0-0.1,0-0.2,0-0.2c0.1-0.3,0-0.7,0-1c-0.1,0-0.1,0-0.1,0.1c0,0.3,0,0.5,0,0.8
		c-0.1-0.1-0.1-0.2-0.1-0.2c0-0.3,0.1-0.6,0.1-0.9c0,0,0,0,0.1-0.1c0.1,0,0.1,0,0.2,0c0.1-1,0.3-2,0.8-2.9c0.1,0,0.1,0.1,0.1,0.1
		c0.1,0.2,0.2,0.5,0.3,0.7c0.2,0.3,0.4,0.6,0.7,0.7c0.4,0.2,0.8,0.3,1.3,0.4c0.1,0,0.1,0,0.2,0c0.1,0,0.2,0.1,0.2,0.3
		c0,0.1,0,0.1,0,0.2C204.3,68,204.3,68.1,204.3,68.2z"/>
	<path class="st0" d="M162,63.1c0-0.4-0.1-0.8-0.2-1.1v-0.1c-0.1-0.4-0.5-0.7-0.9-0.7l0,0l0,0c-0.2,0-0.5,0-0.7,0l-0.2,0.2v0.1
		c0,0,0,0,0,0.1c-0.1,0.2-0.1,0.4-0.2,0.6c0,0.1,0,0.1,0,0.2c0,0.1,0,0.1-0.1,0.2c0,0.1,0,0.1-0.1,0.2v0.1c0,0.1,0,0.1,0,0.2
		c0-0.1,0-0.2-0.1-0.3l-0.1-0.3c-0.1-0.6-0.4-1.2-0.7-1.7c-0.2-0.4-0.6-0.7-1.1-0.8c-0.5-0.2-1-0.2-1.4,0c-0.1,0-0.1,0.1-0.2,0.1
		h-0.1c-0.2,0.1-0.4,0.2-0.5,0.4l-0.1,0.1c-0.5,0.4-0.7,0.9-1,1.4c-0.2,0.5-0.4,0.9-0.4,1.3c0,0.1,0,0.1,0,0.2c0,0.1,0,0.2,0,0.3
		c-0.1,0.3-0.1,0.5-0.1,0.8c0,0.1,0,0.2,0,0.3c0,0.2,0,0.3,0,0.5c0,0.1,0,0.3,0,0.4s0,0.1,0,0.2l0.1,0.9c0,0.1,0,0.2,0,0.3
		c0,0.1,0,0.2,0,0.2c0,0.2,0,0.3,0,0.5c0,0.1,0,0.2,0,0.3c0,0.1,0,0.3,0,0.5v0.1c0,0.3,0,0.6,0.1,0.9c0,0.1,0,0.1,0,0.2V70
		c0,0.4,0.1,0.7,0.2,1.1c0,0.1,0.1,0.2,0.1,0.3v0.1v0.1v0.1l0.2,0.4h0.1c0.1,0,0.2,0.1,0.3,0.1s0.3,0.1,0.4,0.1l0,0
		c0.1,0,0.2,0,0.3-0.1l0.2-0.4c-0.2-0.4-0.3-0.8-0.4-1.1c-0.1-0.2-0.1-0.5-0.1-0.7l-0.1-0.4c-0.1-0.3-0.1-0.6-0.1-0.9s0-0.6-0.1-0.8
		c0-0.2,0-0.3,0-0.5c0-0.1,0-0.2,0-0.3V67c0-0.1,0-0.2,0-0.3c-0.1-0.5-0.1-1.1-0.1-1.7c0-0.5,0-1,0.1-1.5c0.1-0.6,0.3-1.1,0.6-1.5
		c0.1-0.2,0.2-0.3,0.3-0.5v-0.1c0.2-0.2,0.4-0.4,0.8-0.6c0.1,0,0.2-0.1,0.3,0.1c0,0.1,0.1,0.1,0.1,0.2l0.2,0.2
		c0.1,0.1,0.2,0.2,0.3,0.3l0,0c0,0.1,0,0.2,0,0.3l0.2,0.5l0.1,0.1v0.1h0.2l-0.2,0.1h0.2l-0.1,0.1v0.1l0.1,0.2c0,0.2,0.1,0.4,0.1,0.6
		c0,0.1,0,0.1,0,0.1l0,0l-0.1,0.3v0.1c0,0,0,0.1,0.1,0.2c0,0.1,0,0.2,0.1,0.2c0,0.2,0,0.4,0,0.6v0.2c-0.1,0.2-0.2,0.4-0.2,0.6v0.1
		v0.2c0,0.1-0.1,0.3-0.1,0.4c0,0.2-0.1,0.4,0,0.7l0.2,0.2l0.7,0.2c0.1,0,0.1,0.1,0.3,0c0.1,0,0.1,0,0.2-0.1l0.2-0.2l0.1-0.4
		c0-0.3,0.1-0.6,0.1-0.8c0-0.2,0.1-0.4,0.2-0.7c0-0.1,0.1-0.2,0.1-0.3c0-0.3,0.1-0.5,0.3-0.8v-0.1c0.1-0.1,0.1-0.3,0.2-0.4
		c0.1-0.2,0.2-0.5,0.3-0.7l0,0c0,0.2,0,0.3,0,0.5V64h-0.1c0,0.1,0,0.1,0,0.2c0,0.2-0.1,0.4,0,0.6c-0.1,0.1-0.1,0.3-0.1,0.4
		c0,0.3,0,0.6-0.1,0.9c0,0.1,0,0.2,0,0.2l0,0c0,0.1,0,0.2,0,0.4h0.1l0.1,0.1h-0.2v0.1h-0.1l-0.1,0.2c-0.1,0.3-0.1,0.7-0.3,1.2v0.1
		c-0.1,0.2-0.1,0.5-0.3,0.7c-0.1,0.1-0.1,0.2-0.1,0.2c-0.1,0.4-0.3,0.7-0.5,1c0,0.1-0.1,0.1-0.1,0.2v0.3l0.3,0.3l0.2,0.1
		c0.1,0,0.1,0,0.2,0c0.2,0.1,0.4,0.1,0.7,0l0.1-0.1l0.5-1.2c0.1-0.2,0.1-0.3,0.2-0.5c0.2-0.5,0.4-1.1,0.5-1.7c0-0.1,0-0.2,0.1-0.3
		c0-0.2,0-0.3,0.1-0.5c0-0.1,0-0.2,0-0.3v-0.1c0.1-0.4,0.1-0.9,0.1-1.3v-0.1c0.1-0.4,0.1-0.8,0.1-1.2v-0.1c0-0.1,0-0.3,0-0.4
		c0-0.1,0-0.1,0-0.2C162,63.3,162,63.2,162,63.1z"/>
	<path class="st0" d="M143.3,63.2c-0.4,0.3-0.8,0.1-1.2,0c-0.2,0-0.3,0.1-0.5,0.1c-0.1,0.2-0.3,0.1-0.4,0.1c-0.1,0-0.3,0-0.4-0.1
		c0,0.1,0,0.1,0,0.2c-0.2,0-0.5,0-0.7,0.1c0-0.1,0-0.1,0-0.1c0-0.3,0-0.7,0-1c0-0.7,0.1-1.5,0.3-2.2c0.1-0.4,0.3-0.7,0.5-1.1
		c0.4,0.3,0.8,0.6,1.3,0.6c0-0.4-0.1-0.7-0.3-0.9c-0.1-0.1-0.3-0.2-0.4-0.3c-0.1-0.1-0.2-0.1-0.3-0.2c-0.2-0.1-0.3-0.2-0.5-0.2
		c-0.3-0.1-0.6-0.2-0.9-0.2c-0.2,0.3-0.4,0.7-0.5,1c-0.2,0.4-0.3,0.9-0.4,1.3c-0.1,0.3,0,0.5-0.1,0.8s-0.1,0.6-0.1,0.9
		c0,0.5,0,1,0,1.5c0,0.2,0,0.3,0,0.4c-0.2,0.3-0.4,0.3-0.7,0.3c-0.1,0-0.2,0-0.2,0c-0.1,0-0.2-0.1-0.3,0c0,0.2,0.1,0.3,0.2,0.4
		c0.2,0.2,0.3,0.4,0.3,0.6c0.2,0,0.4-0.1,0.5-0.1s0.2,0,0.3,0c0,0.1,0,0.2,0,0.3c0,2.8-0.2,5.7,0.6,8.4c0,0.1,0.1,0.3,0.2,0.3
		c0.1,0.1,0.3,0,0.5,0s0.3,0.1,0.4,0.1c0.1-0.1,0.1-0.2,0.1-0.4c-0.3-1.6-0.5-3.2-0.5-4.8c0-1,0.3-2,0.1-3c-0.1-0.4-0.1-0.9,0-1.3
		c0.2-0.2,0.5-0.1,0.7-0.1c0.1-0.1,0.2-0.1,0.3-0.2c0.1,0,0.1,0.1,0.2,0.1c0.3,0,0.5,0,0.8,0c0.2,0,0.5-0.1,0.7-0.1s0.5,0,0.7,0
		c0.1-0.1,0.1-0.1,0.2-0.1c0-0.2,0.2-0.1,0.3-0.3C143.7,63.6,143.7,63.5,143.3,63.2z M140.7,64.2c-0.1,0-0.1,0-0.2,0.1
		c-0.1,0-0.1,0.1-0.2-0.1C140.5,64.2,140.5,64.2,140.7,64.2z M140.2,64.5c0.2-0.1,0.4-0.1,0.5,0C140.6,64.5,140.4,64.5,140.2,64.5z
		 M142.4,64L142.4,64L142.4,64L142.4,64z M141.9,64c0.1,0,0.1,0,0.2,0l0,0C142,64,141.9,64,141.9,64L141.9,64z M142.3,64.3
		c-0.4,0.1-0.8,0-1.1,0.2c0,0-0.1-0.1-0.1-0.2c0.8-0.1,1.5-0.1,2.2-0.2c0.1,0,0.1,0,0.2,0.1C143,64.2,142.6,64.2,142.3,64.3z"/>
	<path class="st0" d="M180.3,69.9c-0.1-0.2-0.3-0.6-0.2-0.8c0-0.1,0.1-0.1,0.2-0.2c0.1-0.1,0-0.2-0.1-0.3c-0.3-0.4-0.3-1.1-0.3-1.6
		c-0.1-0.4-0.1-0.9-0.1-1.3c-0.1-0.9-0.2-1.7-0.3-2.6c-0.1-0.7-0.4-1.5-0.4-2.3c0-0.1,0-0.3,0-0.4c0-1.6-0.3-3.1-0.6-4.7
		c-0.4,0.2-0.8,0.3-1.3,0.5c0.2-0.1,0.5,2.4,0.5,2.6c0,0.5-0.3,1.2-0.8,1.6c-0.4,0.3-2.4-0.1-2.3-0.3c0.1-0.3-0.6-1.6-0.7-1.9
		c-0.2-0.8-0.3-1.6-0.4-2.4c0-0.1,0-0.3-0.1-0.4c-0.1-0.1-0.4-0.1-0.5-0.1c-0.3,0.1-0.5,0.1-0.8,0.2c0,0,0.4,2.3,0.4,2.5
		c0.1,0.3,0.2,0.6,0.2,0.8c0.1,0.3,0.4,0.9,0.6,1.2c0.2,0.5,0.4,1.3,1,1.5c0.2,0.1,0.3,0.1,0.5,0.1c0.1,0,0.2,0,0.2,0
		c0.1,0,0.1,0.2,0.2,0.2c0.1,0,0.2-0.1,0.4-0.1c0.1,0,0.1,0.1,0.1,0.1c0.3,0.2,0.8,0.1,1.1,0s0.6-0.2,0.9-0.3
		c0.2,0.2,0.2,0.4,0.2,0.6c0.1,0.4,0.1,0.9,0.2,1.3c0,0.2,0.1,0.4,0.1,0.6c0,0.2,0,0.3,0,0.5c0,0.4,0,0.8,0.2,1.1
		c0,0.1,0,0.2,0.1,0.3c0.2,1.4,0.5,2.8,0.6,4.2c0.1,0.8,0.1,1.6-0.5,2.1s-1.4,0.3-2.1,0.1c-0.2,0-2.2-0.8-2.1-0.9
		c-0.3,0.3-0.5,0.6-0.8,1l-0.1,0.1c0,0,0,0.1,0.1,0.1c1.3,0.8,2.8,1.3,4.4,1.2c0.8,0,1.6-0.3,2.1-0.9s0.6-1.4,0.5-2.3
		C180.4,70.7,180.4,70.3,180.3,69.9z"/>
	<path class="st0" d="M242.9,78.3c-0.1-2.6-0.1-5.2-0.2-7.8c0-1.4,0-2.7,0-4.1c0-1.3-0.3-2.5-0.5-3.8v-0.1h-0.1
		c-0.4,0.1-0.8,0.1-1.2,0.2c0,0.3,0.2,0.5,0.2,0.8c0,0.1,0,0.2,0,0.3c0,0.2,0.1,0.4,0.2,0.5c0.4,1,0.2,1.9,0.1,2.9
		c0,0.5-0.3,1.5-0.9,1.7c-0.3,0.1-2.4-0.3-2.2-0.5c0.1-0.3-0.4-1.6-0.5-2c-0.2-0.8-0.2-1.6-0.2-2.4c0-0.1,0-0.3-0.1-0.4
		c-0.1-0.1-0.3-0.1-0.5-0.1c-0.3,0-0.5,0.1-0.8,0.1c0,0,0.1,2.3,0.1,2.6c0,0.3,0.1,0.6,0.1,0.9s0.3,0.9,0.4,1.3
		c0.1,0.6,0.2,1.3,0.8,1.6c0.2,0.1,0.3,0.1,0.5,0.1c0.1,0,0.2,0,0.2,0c0.1,0,0.1,0.2,0.2,0.2c0.1,0.1,0.2-0.1,0.4,0l0.1,0.1
		c0.2,0.2,0.7,0.2,1,0.2c0.3-0.1,0.6-0.1,0.9-0.2c0.1,0.2,0.2,0.4,0.2,0.6c0,0.4,0,0.9,0,1.3c0,0.2,0,0.4,0,0.7c0,0.2,0,0.3,0,0.5
		c0,0.4-0.1,0.8,0,1.2c0,0.1,0,0.2,0,0.3c0,1.4,0.2,2.8,0.1,4.2c0,0.8-0.1,1.6-0.7,2.1c-0.7,0.4-1.5,0.1-2.1-0.1
		c-0.2-0.1-2.1-1-2-1.1c-0.3,0.3-0.6,0.6-0.9,0.9l-0.1,0.1c0,0,0,0.1,0.1,0.1c1.2,1,2.7,1.6,4.2,1.7c0.8,0,1.6-0.1,2.2-0.6
		c0.6-0.6,0.7-1.4,0.8-2.2C242.9,79.4,242.9,78.8,242.9,78.3z"/>
	<path class="st0" d="M165.1,69.8c0-0.3,0.1-0.6,0.1-0.9c0,0.1,0,0.3,0,0.4c0-2.4-0.2-5.9-0.3-7.8c0-0.7-0.1-1.1-0.1-1.3
		c-0.3,0-0.9-0.1-1.1,0.1c-0.4,0.3-0.2,0.7-0.1,1.3c0.1,1.1,0.3,2.3,0.3,3.4c0,0.1,0,0.3,0,0.4c0.1,0.3,0,0.6,0.1,0.9
		c0,0.2,0,0.4,0,0.5c0.1,0.3,0,0.6,0,0.8c0,0.1,0,0.2,0,0.2c0,0.4,0,0.8,0,1.2c0,0.3,0,0.6,0,0.8c0,0.2,0,0.4,0,0.6
		c0,0.3,0,0.6,0,0.9c0.3,0.1,0.5,0.4,0.8,0.2c0,0,0.1,0,0.2,0.1c0.1,0,0.1,0,0.2,0c0.1,0,0.2-1,0.2-2.5
		C165.2,69.5,165.2,69.7,165.1,69.8z M165.1,70.1c0,0.1,0,0.2,0,0.4C165,70.3,165,70.2,165.1,70.1z"/>
	<path class="st0" d="M165.2,69.4L165.2,69.4L165.2,69.4z"/>
	<path class="st0" d="M163.7,58.5c0.1,0,0.1,0,0.2,0c0.1,0,0.2-0.6,0.2-1.5H164v0.1c0,0,0-0.1-0.1-0.1c0,0,0,0-0.1,0
		c-0.3,0.1-0.7,0-1-0.1h-0.1c0,0.2,0,0.3,0,0.5c0,0.3,0,0.6,0,0.9c0.3,0.1,0.5,0.4,0.8,0.2C163.6,58.4,163.7,58.5,163.7,58.5z"/>
	<path class="st0" d="M216.1,69.7c0-0.3,0-0.6,0.1-0.9c0,0.1,0,0.3,0,0.4c0-2.4-0.2-5.9-0.3-7.8c0-0.7-0.1-1.1-0.1-1.3
		c-0.3,0-0.9-0.1-1.1,0.1c-0.4,0.3-0.2,0.7-0.1,1.3c0.1,1.1,0.3,2.3,0.3,3.4c0,0.1,0,0.3,0,0.4c0.1,0.3,0,0.6,0.1,0.9
		c0,0.2,0,0.4,0,0.5c0.1,0.3,0,0.6,0,0.8c0,0.1,0,0.2,0,0.2c0,0.4,0,0.8,0,1.2c0,0.3,0,0.6,0,0.8c0,0.2,0,0.4,0,0.6
		c0,0.3,0,0.6,0,0.9c0.3,0.1,0.5,0.4,0.8,0.2c0,0,0.1,0,0.2,0.1c0.1,0,0.1,0,0.2,0c0.1,0,0.2-1,0.2-2.5
		C216.2,69.4,216.2,69.6,216.1,69.7z M216.1,70c0,0.1,0,0.2,0,0.4C216,70.2,216,70.1,216.1,70z"/>
	<path class="st0" d="M216.2,69.2C216.2,69.3,216.2,69.3,216.2,69.2C216.2,69.3,216.2,69.3,216.2,69.2z"/>
	<path class="st0" d="M215.3,58.3c0,0,0.1,0,0.2,0c0.1,0,0.1,0,0.2,0c0.1,0,0.1-0.6,0.2-1.4h-0.1V57c0,0,0-0.1-0.1-0.1
		c0,0,0,0-0.1,0c-0.3,0.1-0.6,0-0.9-0.1h-0.1c0,0.1,0,0.3,0,0.4c0,0.3,0,0.5,0,0.8C214.9,58.2,215,58.5,215.3,58.3z"/>
	<path class="st0" d="M224.4,53.7c0,0.6-0.1,1.1-0.1,1.7c0,0.2,0,0.4-0.1,0.6c-0.2,0.7-0.3,1.4-0.2,2.1c0,0.3,0,0.6,0,0.9
		c0,0.4-0.1,0.8-0.2,1.2c-0.1,0.8-0.1,1.6-0.2,2.4c0,0.4-0.1,0.7-0.4,1.1c-0.6-0.1-1.1-0.2-1.7-0.4c-1.3-0.4-3.1,0.5-3.4,2
		c-0.2,0.9-0.6,1.7-0.4,2.6c-0.1,1.3,0.4,2.3,1.1,3.3c0.2,0.2,0.3,0.4,0.5,0.5c0.4,0.3,1.2,0.9,1.7,0.8c0.1,0,0.2-0.1,0.3-0.1
		c0.2-0.1,0.5-0.3,0.7-0.4s0.4-0.2,0.6-0.4c0.1-0.1,0.1-0.3,0.3-0.5c0.4-0.5,0.4,0.2,0.5,0.3c0.1,0.1,0.6-0.1,0.6-0.3
		c0-0.1,0-0.2-0.1-0.3c0-0.1,0-0.2,0.1-0.3c0.1-0.4-0.1-0.8,0.1-1.2c0.1-0.3,0.3-0.6,0.2-1c0-0.1-0.1-0.3-0.1-0.4
		c0-0.2,0.2-0.4,0.3-0.6c0.1-0.1,0.1-0.3,0.1-0.5c0.3-1.6,0.4-3.2,0.7-4.8c0.1-0.3,0.1-0.7,0.1-1c0-0.2-0.1-0.3-0.1-0.5
		c0-0.3,0-0.5,0.1-0.8c0.1-0.7,0.3-1.3,0.4-2c0.1-0.9-0.1-1.8,0.1-2.6c0.1-0.3,0.2-0.6,0.2-0.9c0-0.5,0-0.8,0.2-1.2
		c0-0.1,0.1-0.2,0.2-0.2c-0.6-0.1-1.2-0.2-1.8-0.4C224.5,52.8,224.4,53.3,224.4,53.7z M223.2,65.7c-0.1,0.4-0.1,0.7-0.2,1.1
		c-0.1,0.3-0.1,0.6-0.2,0.9c-0.3,1-0.6,2-0.9,3.1c-0.3,0.2-0.6,0.7-1.2,0.8c-0.2-0.3-0.4-0.5-0.6-0.7c-0.2-0.2-0.4-0.3-0.4-0.7
		c0-0.1,0-0.1,0-0.2s-0.1-0.2-0.1-0.2c-0.1-0.2-0.2-0.4-0.2-0.6s0-0.3,0-0.5c0-0.1-0.3-0.6-0.3-0.7c-0.1-0.3,0-0.7,0-1v-0.1
		c0,0,0.1,0,0.1-0.1v-0.1c0-0.2,0-0.4,0-0.6c0-0.1,0-0.2,0-0.4c0.1-0.2,0.5-0.4,0.6-0.6c0.2-0.2,0.4-0.5,0.8-0.5
		c0.6,0,1-0.3,1.6-0.4c0.3,0,0.7,0.2,1,0.4C223.3,65,223.2,65.3,223.2,65.7z"/>
	<path class="st0" d="M197.4,65.6c-0.1-0.6-0.4-1.2-0.6-1.1c0-0.1-0.1-0.2-0.2-0.2c-0.2-0.2-0.5-0.3-0.7-0.4c0,0-0.1,0-0.1-0.1
		c0,0-0.1-0.1-0.1-0.2c-0.1-0.3-0.7-0.6-1.1-0.5c-0.2,0-0.9,0.1-1.1,0.2l-0.1,0.1c0,0-0.1,0.1-0.2,0.1c-0.2,0-0.4,0.1-0.5,0.1h-0.1
		h-0.1c-0.1,0-0.1,0-0.1,0.1c-0.1,0.1-0.2,0.2-0.3,0.2c-0.4,0.1-0.3-1.7-0.3-2c-0.1-1.3-0.1-2.6,0.1-3.9c0.1-0.9,0.3-1.7,0.2-2.6
		c-0.1-0.4-0.2-0.7-0.2-1c0-0.2,0.1-0.5,0.1-0.7c0-0.3,0.2-1.2,0-1.4s-1-0.1-1.2-0.1c-0.1,0.5-0.1,1-0.1,1.5c0,0.3-0.2,0.6-0.1,1
		c0.1,0.7,0.2,1.4,0,2c-0.2,0.9-0.1,1.8-0.2,2.7c0,0.2-0.1,0.4,0,0.6c0.2,0.7,0,1.5,0,2.2c0,0.8-0.1,1.5-0.1,2.3
		c0,0.5,0,1.4,0.2,1.9c0,0.1,0.1,0.2,0,0.3c0,0.1-0.1,0.1-0.2,0.2c-0.2,0.3,0,0.9,0,1.2c0,0.7-0.3,1.2-0.1,1.9
		c-0.2,0-0.3,0.2-0.3,0.3c0,0.1,0.1,0.1,0.1,0.2s0,0.1,0,0.2s0.1,0.3,0.2,0.3c0.1,0.1,0.2,0.1,0.4,0.1c0.1,0,1.2,0.2,1.2-0.1
		c-0.1-0.5,0-1.1,0.1-1.6c-0.2-0.1-0.1-0.4,0-0.6c0-0.1,0-0.3,0-0.4c0-0.2,0-0.5,0-0.7s0-0.5,0-0.7c0-0.4-0.1-1.1,0.1-1.4
		c0.1-0.3,0.5-0.3,0.8-0.4c0.4-0.2,0.8-0.3,1.2-0.4c0.3,0,0.7-0.2,1-0.2c0.6,0.1,1.1,0.5,1.2,1.1c0,0.1,0,0.2,0,0.4
		c0,0.1,0,0.3,0,0.4c0.1,0.8,0.1,1.5,0,2.3c-0.1,0.5-0.3,1-0.3,1.5c0,0.4,0.8,0.5,1,0.4c0.4-0.1,0.1-0.1,0.2-0.4
		c0.1-0.6,0.4-1.1,0.3-1.7c0-0.2-0.2-0.5-0.1-0.7c0,0,0.1-0.1,0.1-0.2s0-0.1,0-0.2c-0.1-0.4,0.2-0.6,0.2-0.9
		C197.5,66.4,197.5,66,197.4,65.6z"/>
</g>
<g>
	<path class="st0" d="M116,14.2L116,14.2c0-0.2-0.1-0.4-0.1-0.6l-0.4-0.2c-0.1,0-0.1,0.1-0.2,0.1l-0.2,0.1c-0.1,0-0.2,0-0.3,0.1
		c-0.3,0.1-0.6,0.2-0.9,0.3c-0.2,0.1-0.3,0.1-0.5,0.2l-0.1,0.1l-0.2,0.2l0.2,0.4c-0.2,0.1-0.4,0.1-0.6,0.2l-0.2,0.1
		c-0.1,0-0.3,0.1-0.5,0.1c-0.2-0.6-0.3-1.2-0.4-1.9c-0.1-0.4-0.1-0.8-0.2-1.3c-0.2-0.6-0.3-1.3-0.5-1.9c-0.1-0.3-0.2-0.5-0.2-0.8
		l-0.2-0.7c-0.1-0.3-0.2-0.5-0.3-0.8c-0.1-0.2-0.1-0.5-0.2-0.8c-0.1-0.4-0.1-0.8-0.3-1.2l-0.1-0.5c-0.1-0.4-0.1-0.8-0.2-1.1
		c-0.1-0.6-0.3-1.2-0.4-1.7l-0.1-0.3c0-0.1-0.1-0.2-0.1-0.3l-0.3,0h-0.3c-0.2,0-0.5-0.1-0.7-0.1s-0.4-0.1-0.7,0l-1.1-0.1L105.4,2
		c0,0.1,0,0.1,0,0.2c0,0.2,0,0.3,0.1,0.5s0,0.4-0.1,0.6c0,0.1-0.1,0.2-0.1,0.3l-0.1,0.2l0.3,0.4l0,0v0.1c0,0.1,0.1,0.1,0.1,0.2v0.1
		c-0.1,0.2-0.2,0.4-0.3,0.7c-0.1,0.1-0.1,0.2-0.1,0.4l0,0V5.6l-0.5-0.2l-0.3,0.5l-0.1,0.2v0.2c0,0.2,0,0.3,0,0.4
		c-0.1,0.1-0.2,0.3-0.1,0.6c0,0,0,0.1,0,0.2s0,0.2-0.1,0.2c0,0.3-0.1,0.6-0.1,0.9c0,0.2,0,0.3,0,0.5v0.1c0,0.1,0.1,0.2,0.1,0.3h0.4
		l0,0c0,0.2-0.1,0.4-0.1,0.6v0.2c-0.1,0.3-0.1,0.7-0.2,1H104v0.1l-0.1-0.1c-0.4,0.1-0.5,0.4-0.5,0.8h0.2l-0.1,0.1l0,0
		c0,0,0,0-0.1,0.1v0.2c-0.1,0.2-0.1,0.5-0.1,0.7c0,0.1,0,0.2,0,0.2l-0.2,0.2l-0.1,0.2c0,0.2,0,0.5-0.1,0.7c-0.1,0.4-0.1,0.7-0.2,1.1
		c0,0.1,0,0.2,0,0.4s-0.1,0.4-0.1,0.6c0,0.3-0.1,0.6-0.1,0.8c0,0.1,0,0.3-0.1,0.4c-0.3,0.1-0.6,0.2-0.9,0.3l-0.8,0.3
		c-0.2,0.1-0.4,0.2-0.7,0.2c-0.3,0.1-0.7,0.2-1,0.3c-0.4,0.1-0.8,0.2-1.1,0.3c-0.2,0.1-0.4,0.1-0.7,0.2L97,19.8
		c0.2,0.5,0.4,1,0.5,1.5l0.3,0.8l0.4,0.2l1.1-0.4c0.5-0.2,0.9-0.3,1.4-0.5c0.4-0.1,0.8-0.3,1.2-0.4c0,0.2,0,0.3-0.1,0.5
		c-0.1,0.3-0.1,0.6-0.2,0.9c-0.1,0.4-0.1,0.7-0.2,1.1c-0.1,0.6-0.2,1.1-0.2,1.7v0.1c0,0.1,0,0.3,0,0.4c0,0.2,0,0.3,0,0.5
		s-0.1,0.5-0.1,0.7c-0.1,0.3-0.1,0.6-0.1,0.8c-0.1,0.4-0.1,0.9-0.1,1.3l-0.1,0.6l0.1,0.3c0.7,0.4,1.4,0.5,2.1,0.6l0.4,0.1h0.2
		c0.5-0.2,0.6-0.4,0.5-0.9c0-0.2-0.1-0.5-0.1-0.7c0.1-0.6,0.1-1.1,0.2-1.7l0.1-1.1c0.1-0.5,0.1-0.9,0.2-1.4s0.1-0.9,0.2-1.4
		c0.1-0.4,0.1-0.9,0.2-1.3c0.1-0.5,0.1-1.1,0.2-1.6l0.1-0.6c0.1,0,0.2-0.1,0.4-0.1c0.4-0.1,0.7-0.3,1.1-0.4c0.3-0.1,0.7-0.2,1-0.4
		c0.3-0.1,0.6-0.2,0.9-0.3l1.2-0.4c0.1,0.3,0.2,0.7,0.4,1l0.1,0.2c0.2,0.7,0.4,1.3,1,1.9v0.1h0.2l-0.1,0.1c0,0,0,0.1,0.1,0.1
		c0,0.1,0.1,0.1,0.1,0.2l0.1,0.3c0.1,0.4,0.3,0.9,0.4,1.4c0.1,0.3,0.2,0.5,0.4,0.6l-0.1,0.2l-0.1,0.2v0.1c0,0.1,0,0.3,0.1,0.4
		c0.1,0.2,0.1,0.5,0,0.8l0.1,0.3l0.3,0.3l0.2,0.1l0.4,0.1c0.3,0.1,0.5,0.1,0.8,0.1c0.5,0.1,1,0.1,1.5-0.1l0.2-0.3
		c0-0.1,0-0.2-0.1-0.2c0-0.1-0.1-0.3-0.1-0.4c0-0.3,0-0.7,0-1v-0.3v-0.1c-0.2-0.4-0.3-0.7-0.5-1.1c-0.4-0.9-0.8-1.8-1.1-2.7l0,0
		l-0.1-0.3c-0.1-0.2-0.1-0.4-0.2-0.7c-0.1-0.2-0.2-0.4-0.2-0.6c-0.1-0.2-0.2-0.4-0.2-0.6c-0.1-0.3-0.2-0.6-0.3-0.9h0.1
		c0.1,0,0.1-0.1,0.2-0.1l0.6-0.2c0.2-0.1,0.5-0.1,0.7-0.2l0.2-0.1c0.2-0.2,0.4-0.4,0.7-0.4c0.2-0.1,0.5-0.1,0.8-0.1l0.2-0.2
		c0.1-0.2,0.1-0.5,0.1-0.7C116.3,15,116.2,14.6,116,14.2L116,14.2z M106.2,14.5c0-0.2,0.1-0.4,0.1-0.5l0.3-2
		c0.2-0.4,0.2-0.8,0.2-1.2v-0.1c0-0.1,0-0.1,0-0.2c0-0.2,0.1-0.4,0.1-0.6c0.1-0.3,0.1-0.7,0.2-1c0.1-0.4,0.1-0.8,0.2-1.3l0,0h0.1
		l-0.1,0.1l0.1,0.1l-0.1,0.4c0,0.1,0.1,0.1,0.1,0.2c0,0.1,0.1,0.2,0.1,0.2c0,0.3,0.1,0.6,0.2,0.8c0,0.1,0.1,0.2,0.1,0.3
		c0,0.2,0.1,0.3,0.2,0.4c0.1,0.2,0.2,0.5,0.2,0.7c0,0.1,0,0.2,0.1,0.3c0,0,0,0.1,0.1,0.1l0,0v0.1v0.2c0,0.1,0.1,0.2,0.1,0.3
		s0,0.3,0.1,0.4c0,0.1,0,0.2,0,0.3c0,0.2,0,0.3,0.1,0.5l0.2,0.1v0.3l0.2,0.1c0,0.1,0,0.1,0,0.2c0,0.2,0.1,0.4,0.1,0.6
		c0,0.2,0.1,0.3,0.1,0.5v0.1c-0.1,0.1-0.1,0.3-0.1,0.4c-0.1,0.1-0.2,0.1-0.2,0.1l-0.2-0.1h-0.2c-0.2,0.1-0.5,0.2-0.8,0.3
		c-0.4,0.1-0.8,0.2-1.1,0.3c-0.1,0-0.2,0.1-0.4,0.1c-0.1,0-0.1,0-0.2,0.1c0-0.1,0-0.2,0-0.3c0-0.3,0.1-0.6,0.1-1
		C106.1,15,106.2,14.7,106.2,14.5z"/>
	<path class="st0" d="M88.4,2.9c-0.2-0.1-0.5-0.3-0.7-0.4c-0.1-0.1-0.3-0.1-0.5-0.2c-0.1,0-0.2-0.1-0.3-0.1
		c-0.2-0.1-0.7-0.3-1.2,0.2L85.5,3v0.6c0,0.3,0,0.6,0,0.8c0,0.4-0.1,0.8-0.2,1.2s-0.1,0.8-0.2,1.1v0.1c-0.1,0.9-0.2,1.8-0.4,2.6
		c-0.1,0.3-0.1,0.7-0.2,1c0,0.2,0,0.3-0.1,0.5L84,13.3c-0.1,0.5-0.2,0.9-0.2,1.4c0,0.4-0.1,0.8-0.1,1.2c0,0.3-0.1,0.7-0.1,1
		c-0.1,1-0.3,2.1-0.4,3.1c-0.1,0.5-0.1,1-0.2,1.5c0-0.1-0.1-0.3-0.1-0.4c-0.1-0.4-0.2-0.7-0.3-1.1c-0.1-0.3-0.2-0.6-0.2-0.9
		c-0.1-0.3-0.2-0.7-0.3-1c-0.1-0.6-0.3-1.1-0.4-1.7c-0.1-0.5-0.2-0.9-0.3-1.4c-0.1-0.2-0.1-0.4-0.2-0.7c-0.1-0.2-0.1-0.5-0.2-0.8
		c-0.1-0.5-0.3-1-0.4-1.5c-0.1-0.3-0.2-0.6-0.3-0.9c-0.1-0.3-0.1-0.5-0.2-0.8s-0.2-0.6-0.3-1c0-0.1-0.1-0.3-0.1-0.4
		c-0.1-0.4-0.1-0.8-0.3-1.2c0-0.3-0.1-0.6-0.1-0.8c0-0.1-0.1-0.2-0.1-0.3c-0.1-0.4-0.3-0.7-0.8-1c-0.3-0.1-0.5-0.3-0.8-0.4
		c-0.4-0.3-0.9-0.4-1.5-0.2l-0.5,0.4c0,0.1-0.1,0.2-0.1,0.5V6c0,0.3,0,0.5,0,0.7L75.4,7c0,0.2,0,0.4-0.1,0.6c0,0.4-0.1,0.8-0.2,1.2
		c0,0.9-0.1,1.6-0.1,2.2v0.4c-0.1,0.8-0.1,1.6-0.3,2.4c-0.1,0.4-0.1,0.8-0.1,1.2v0.4c0,0.2,0,0.4,0,0.6c0,0.2,0,0.3,0,0.5V17
		c0,0.2,0,0.4-0.1,0.6l-0.1,0.8c0,0.4-0.1,0.8-0.1,1.1c0,0.1,0,0.3-0.1,0.4L74,20.3c-0.1,0.4-0.1,0.8-0.1,1.2c0,0.3,0,0.6-0.1,0.9
		v0.3c-0.1,1-0.3,1.9-0.4,2.9c-0.1,0.4-0.2,1.3,0.5,2.1l0.1,0.1l0.4,0.3l0.9,0.2l0.9-0.5l0.2-0.6c0-0.1,0.1-0.3,0.1-0.4v-1.5
		c0.1-0.4,0.2-0.8,0.2-1.3c0-0.1,0-0.2,0-0.4c0-0.1,0-0.2,0.1-0.4c0-0.2,0.1-0.5-0.1-0.7v-0.1v-0.1c0-0.1,0-0.3,0.1-0.4
		c0-0.2,0.1-0.3,0.1-0.5c0-0.1,0-0.3,0-0.4s0-0.3,0-0.3c0.1-0.2,0.1-0.5,0-0.5c0-0.1,0-0.1,0-0.2l0.1-0.7c0-0.1,0-0.2,0-0.2l0.4-2.8
		l-0.3-0.7c0.2,0.1,0.2,0.3,0.2,0.4v-0.1c0-0.1,0-0.1,0.1-0.2c0.1-0.4,0.3-0.9,0.1-1.4c0.1-0.3,0.2-0.6,0.3-1
		c0.1,0.5,0.2,0.9,0.4,1.4c0.1,0.5,0.3,1,0.4,1.6c0.1,0.6,0.3,1.1,0.4,1.7c0.2,1,0.5,1.9,0.7,2.8c0.1,0.2,0.1,0.5,0.2,0.7
		c0.1,0.4,0.2,0.8,0.3,1.1c0.1,0.3,0.1,0.6,0.2,0.9l0.1,0.4c0.1,0.4,0.2,0.7,0.3,1.1c0.1,0.3,0.2,0.6,0.3,1l0.7,2.2l0.5,0.5
		c0.1,0,0.2,0.1,0.3,0.2c0.2,0.2,0.6,0.4,1.1,0.4l0,0c0.3,0.1,0.7,0.2,0.9,0.2l0.7-0.5c0-0.1,0-0.1,0.1-0.2c0-0.1,0-0.1,0.1-0.2
		c0.4-0.7,0.6-1.5,0.7-2.3c0-0.1,0-0.2,0-0.3c0.1-0.5,0.2-1,0.1-1.6c0-0.1,0-0.2,0-0.2l0.1-0.3c0.1-0.1,0.1-0.2,0.2-0.4
		c0.1-0.3,0.1-0.6,0.2-1c0-0.2,0.1-0.4,0.1-0.6v-0.4c0-0.2,0.1-0.4,0.1-0.6c0.1-0.3,0.1-0.6,0.1-0.9s0-0.5,0.1-0.7
		c0.1-0.3,0.1-0.5,0.1-0.7s0-0.3,0-0.5c0.1-0.4,0.1-0.7,0.2-1.1v-0.4l-0.1-0.5L87.3,16c0-0.1,0.1-0.3,0.1-0.4c0-0.3,0.1-0.5,0.2-0.6
		c0.3-0.4,0.3-0.8,0.1-1.2h-0.1v-0.1l0.4-0.5l0.4-2.4L88,10.5l0.2-0.9l-0.3-0.4h0.3c0.1-0.3,0.1-0.6,0.1-0.8l0.2-0.1
		c0.1-0.3,0.1-0.6-0.1-0.8c-0.1-0.1-0.1-0.1-0.2-0.2V7.1c0-0.4,0-0.7,0.1-1.1V5.9c0.4-0.3,0.5-0.7,0.6-0.9V4.9
		c0-0.1,0.1-0.2,0.1-0.4c0-0.2,0.1-0.5,0.1-0.7L88.7,3L88.4,2.9z M87.9,7.3L87.9,7.3L87.9,7.3L87.9,7.3z M88,7.1L88,7.1
		C88.1,7.1,88.1,7.2,88,7.1L88,7.1z"/>
	<path class="st0" d="M44.1,21.5c-0.5-1.4-1.1-1.7-1.9-2.2c-0.1-0.1-0.3-0.2-0.5-0.3c-0.1,0-0.1-0.1-0.2-0.2l-0.1-0.1
		c-0.6-0.5-1.2-0.7-1.9-0.8c-0.3-0.1-0.5-0.1-0.8-0.2c-0.8-0.3-2.4-1.6-2.2-2.3c0-0.1,0.1-0.1,0.1-0.2c0-0.1,0.1-0.1,0.1-0.2
		c0.2-0.4,0.2-0.9,0.2-1.2c0-0.1,0-0.2,0-0.3c0.1-0.4,0.4-0.7,0.7-1l0.1-0.1c0.2-0.2,0.3-0.4,0.4-0.6c0.1-0.1,0.1-0.2,0.2-0.3
		c0.4-0.6,1.5-1.4,2.2-1.4l0,0c1.1,0,2.3,0.2,3.3,0.7l0.6-0.3l0.1-0.3c0.1-0.5,0.3-0.9,0.3-1.5V8.5c0-0.4-0.1-0.5-0.4-0.8
		c-0.3-0.2-0.7-0.3-1-0.3c-0.1,0-0.2,0-0.3-0.1C42.3,7,41.7,7,41.1,7h-0.2c-1,0-2.2,0-3.2,0.5c-0.8,0.4-1.3,1.2-1.8,2
		c-0.2,0.3-0.4,0.5-0.6,0.8c-0.5,0.6-0.9,1.1-1.1,1.9c0,0.2-0.2,0.4-0.3,0.6c-0.1,0.2-0.3,0.4-0.4,0.7c-0.2,0.6-0.2,1.3,0.2,2.1
		c0.1,0.2,0.2,0.4,0.2,0.7c0.2,0.6,0.4,1.4,0.8,1.8l0.1,0.1c0.1,0.1,0.1,0.1,0.2,0.2c0,0.1,0.1,0.3,0.3,0.5c0.2,0.1,0.4,0.2,0.6,0.2
		c0,0,0.1,0.1,0.1,0.2c0.1,0.1,0.1,0.2,0.2,0.3c0.4,0.4,0.8,0.7,1.5,0.8h0.2c0.2,0,0.4,0,0.4,0.1c0,0,0,0.1,0.1,0.1
		c0.1,0.1,0.2,0.2,0.4,0.3C39,21,39.1,21,39.3,21c0.1,0,0.1,0,0.2,0c0,0.1,0.1,0.1,0.1,0.2c0.2,0.3,0.5,0.4,0.7,0.6
		c0.3,0.2,0.6,0.4,0.7,0.7c0.1,0.2,0.1,0.3,0.1,0.5l0.2,1.2c0.1,0.6-0.2,1-0.6,1.6c-0.1,0.2-0.2,0.3-0.3,0.5c-0.4,0.7-1,1.2-1.8,1.4
		c-0.8,0.3-1.7,0.3-2.5,0c-0.3-0.1-0.6-0.4-0.9-0.7c-0.3-0.3-0.7-0.7-1.2-0.9v0.4l0,0l0,0l0,0h-0.1l-0.3-0.2c0,0.1-0.3,0.5-0.7,0.9
		l-0.1,0.1c-0.2,0.3-0.7,0.9-0.1,1.5c0.8,0.8,1.6,1.1,2.5,1.4l0.4,0.1c0.8,0.3,1.8,0.6,2.7,0.6c0.2,0,0.5,0,0.7-0.1l0.3-0.1
		c0.5-0.1,1.2-0.2,1.5-0.5c0,0,0.1-0.1,0.2-0.2c0,0,0.1,0,0.2,0c0.2,0,0.3,0,0.5,0l0.3-0.3c0-0.1,0-0.3,0-0.4l0,0
		c0.5-0.2,0.9-0.6,1.2-1.1c0.1-0.2,0.2-0.5,0.2-0.7c0-0.1,0-0.3,0.1-0.4c0.1-0.2,0.2-0.4,0.3-0.6s0.3-0.5,0.4-0.8
		c0.2-0.6,0.4-1.2,0.5-1.7c0.1-0.6-0.1-1.2-0.3-1.6L44.1,21.5z"/>
	<path class="st0" d="M18.1,15.6v-0.3c0-0.2-0.1-0.5-0.2-0.7l-0.1-0.4c-0.2-0.5-0.4-1-0.6-1.5c-0.3-0.7-0.6-1.3-1-1.9
		c-0.6-1-1.6-1.6-2.6-2.2C13,8.3,12.5,8,12,7.8c-0.4-0.2-0.7-0.3-1.1-0.5c-2-1.1-3.9-0.4-5,0.3C5.7,7.7,5.6,7.8,5.5,7.9l-1,0.9
		C4,8.7,3.5,8.5,3.1,8.3c-0.6-0.2-1.2,0-1.6,0.5L1.4,9.3v0.1c0,0.1,0,0.3,0.1,0.4l0.2,1.4c0.1,0.9,0.3,1.7,0.4,2.6
		c0,0.3,0.1,0.6,0.1,0.9c0,0.5,0.1,1.1,0.2,1.6c0.1,0.5,0.2,1.1,0.2,1.6C2.7,18.6,2.7,19.3,3,20c0.2,0.7,0.3,1.4,0.4,2.2
		c0,0.3,0.1,0.5,0.1,0.8l0.1,0.6c0.2,1.5,0.5,3.1,0.4,4.6c0,0.2,0,0.4,0,0.6c-0.1,1.1,0,2,1.7,2.2c0.1,0,0.3,0,0.4,0
		c0.5,0,1.1-0.1,1.5-0.1c1.7-0.3,4.7-1.2,5.6-2.7c0-0.1,0.1-0.1,0.1-0.2l1.5-1.3l0.2-0.4l0,0c0.1-0.1,0.2-0.2,0.3-0.2
		c0.1-0.1,0.2-0.2,0.3-0.3l0.2-0.2c0.1-0.1,0.3-0.2,0.4-0.4c0.1-0.2,0.2-0.5,0.4-0.7c0.1-0.2,0.2-0.5,0.4-0.7
		c0.1-0.1,0.2-0.2,0.2-0.4c0.2-0.3,0.4-0.6,0.5-1c0.1-0.2,0.1-0.5,0.2-0.7c0.1-0.3,0.2-0.6,0.3-0.9c0.2-0.6,0.2-1.2,0.3-1.8v-0.2
		c0.1-0.6,0.1-1.2,0-1.7C18.2,16.7,18.2,16.1,18.1,15.6z M9.4,28c-0.1,0.1-0.2,0.1-0.2,0.2c-0.3-0.4-0.7-0.7-0.9-0.8
		C8.2,27.2,8,27.2,8,27.1l-0.2-2.8l-0.2-0.4c-0.2-0.3-0.3-0.7-0.3-1.2c0-0.4,0-0.6-0.2-0.8c0.2-0.4,0.2-1-0.3-1.6c0-0.1,0-0.3,0-0.4
		c0-0.2,0-0.3,0-0.5l-0.1-0.8l-0.3-0.1v-0.4L6.6,18l-0.7-6.4L6,11.5c0.5-0.6,0.9-1.3,1.7-1.6c0.1,0,0.3-0.1,0.4-0.2
		c0.1,0,0.2-0.1,0.3-0.1c0.7-0.2,1.2-0.2,1.7,0.2c0.2,0.2,0.5,0.2,0.7,0.3c0.1,0,0.2,0.1,0.3,0.1c1.3,0.6,2.1,1.7,2.6,3.4
		c0.1,0.3,0.2,0.6,0.3,0.9c0.1,0.2,0.2,0.5,0.3,0.7c0.3,1.2,0.3,2.4,0.3,3.3c-0.1,1.1-0.2,2.1-0.5,3c-0.2,0.7-0.4,1.3-0.7,1.7
		c-0.1,0.2-0.3,0.4-0.4,0.6c-0.1,0.1-0.2,0.3-0.3,0.4l-0.1,0.2c-0.4,0.6-0.9,1.2-1.3,1.7C10.8,26.7,10.2,27.4,9.4,28z"/>
	<path class="st0" d="M70.9,24.6c0-0.2,0-0.4,0-0.7c0.1-1.3-0.1-2.3-0.4-3.6l-0.8-0.5C69,19.9,68.5,20,68,20.1
		c-0.4,0.1-0.7,0.1-1.1,0.2l-0.5,1c0.1,0.2,0.2,0.3,0.2,0.5c0.2,0.5,0.5,1.1,0.6,1.6c0,0.2,0,0.5,0,0.7c0,0.4,0,0.9,0,1.3l0.1,1.1
		l-0.1,0.1c-0.4,0.6-0.9,1.2-1.6,1.4c-0.2,0.1-0.3,0.1-0.4,0.2c-0.1,0-0.2,0.1-0.2,0.1c-0.6,0.2-1.1,0.1-1.5-0.1
		c-0.2-0.1-0.4-0.2-0.6-0.3c-0.1,0-0.2-0.1-0.3-0.1c-1.2-0.6-1.9-1.6-2.3-3c-0.1-0.3-0.2-0.6-0.3-0.8c-0.1-0.2-0.2-0.4-0.3-0.7
		c-0.3-1.1-0.3-2.2-0.2-3c0.1-1,0.2-1.9,0.4-2.7c0.2-0.7,0.3-1.2,0.7-1.6c0.1-0.2,0.2-0.4,0.4-0.6c0.1-0.1,0.1-0.2,0.2-0.4
		c0.8-1.2,1.9-2,3-2.4c0.2,0,1-0.2,1.6-0.3c2.1-0.4,2.1-0.4,2.2-0.7V11c-0.3-0.7-0.4-1.5-0.5-2.3l-0.4-0.6c-0.6-0.3-2.3,0.7-2.4,0.8
		l0,0.1c-0.1,0-0.1,0.1-0.2,0.1c-0.2,0.1-0.5,0.2-0.8,0.2c-0.3,0.1-0.7,0.1-1.1,0.3c-0.9,0.4-1.6,1-2,1.7c0,0.1-0.1,0.1-0.1,0.2
		l-1.3,1.2L59,13.1c-0.1,0.1-0.2,0.1-0.3,0.2c-0.1,0.1-0.2,0.2-0.3,0.3l-0.2,0.2c-0.1,0.1-0.2,0.2-0.4,0.4c-0.1,0.2-0.2,0.4-0.3,0.6
		c-0.1,0.2-0.2,0.4-0.3,0.6c-0.1,0.1-0.1,0.2-0.2,0.3c-0.2,0.3-0.4,0.5-0.5,0.9c-0.1,0.2-0.1,0.4-0.2,0.6c-0.1,0.3-0.1,0.6-0.2,0.9
		c-0.2,0.5-0.2,1.1-0.3,1.6v0.2c-0.1,0.6-0.1,1.1,0,1.6c0,0.5,0.1,1,0.2,1.5v0.3c0,0.2,0.1,0.4,0.2,0.7l0.1,0.4
		c0.2,0.5,0.4,1,0.6,1.4c0.3,0.7,0.6,1.2,0.9,1.8c0.6,0.9,1.5,1.5,2.4,2c0.4,0.3,0.9,0.5,1.4,0.7c0.3,0.2,0.7,0.3,1,0.5
		c0.7,0.4,1.4,0.5,2,0.5c1.1,0,2-0.4,2.7-0.8c0.2-0.1,0.3-0.2,0.4-0.3c0.1-0.1,0.2-0.2,0.3-0.3c0.1-0.1,0.2-0.2,0.3-0.4
		c0,0.1,0.1,0.1,0.1,0.2c0.1,0.2,0.1,0.4,0.2,0.5l0.7,0.3l1.8-0.2c0.5-0.1,0.8-0.4,0.8-0.8c0-0.3-0.1-0.4-0.1-0.5
		C71.2,27.8,71,25.5,70.9,24.6z"/>
	<path class="st0" d="M29.8,11.3L29.2,11h-0.8c-0.6,0-1.2,0-1.8,0c-0.3,0-0.6,0-0.9,0s-0.6,0-1,0c0-0.2-0.1-0.3-0.1-0.4
		c0-0.1,0-0.1,0-0.2c0-0.1,0-0.2,0-0.4s0-0.5,0-0.7c0-0.3,0-0.5,0-0.8c0-0.4,0-0.7,0-1.1V7.2l0.2-0.3l0,0c0.2,0,0.4,0,0.6,0
		s0.3-0.1,0.5-0.1C26.1,7,26.2,7,26.3,7c0.3,0,0.6-0.1,0.8-0.1l0,0l0.4,0.3h0.1c0.1,0,0.1,0,0.2,0h0.1c0.7,0.4,1.1,0.1,1.5-0.3
		l0.1-0.7l-0.3-0.8l0,0l-0.1-0.5c0-0.1-0.1-0.2-0.1-0.2c0-0.7-0.5-0.9-0.7-1.1h-0.7c-0.3,0.2-0.4,0.2-0.8,0.2
		c-1.8,0-5.5-0.1-5.5-0.1l-0.7,0.8c0,0,0.2,1.6,0.2,1.9v0.3C21,7.1,21,7.5,21.1,7.9v0.5c0,0.2,0,0.3,0,0.5c0,0.1,0,0.2,0,0.4v0.4
		c0,0.2,0,0.3,0,0.5s0,0.3,0.1,0.5c0,0.2,0.1,0.5,0,0.6c-0.1,0.6,0,1.2,0,1.7c0,0.2,0,0.4,0,0.6c0,0.5,0,1,0,1.5v0.2L21.1,16
		c0,0.5-0.1,1-0.1,1.4s0,0.9,0,1.3c0,0.3,0,0.5,0,0.8c0,0.1,0,0.3,0,0.4c0,0.2,0,0.3,0,0.5c0,0.8,0,1.6,0,2.4v1.5
		c0,0.5,0.1,1,0.4,1.5l0.7,0.3c0.1,0,0.2,0,0.4,0.1c0.3,0.2,0.6,0.3,0.9,0.4s0.6,0.1,1,0.1c0.3,0,0.6,0,0.9-0.1
		c0.6-0.2,1.2-0.3,1.8-0.3c0.2,0,0.3,0,0.5,0c0.3,0.1,0.7,0.1,0.9,0.1c0.1,0.1,0.3,0.2,0.5,0.2c0.4,0,0.6-0.2,0.7-0.4l-0.1-1
		l-0.1-0.1c-0.3-0.2-0.6-0.5-1-0.7c-0.4-0.3-1-0.5-1.4-0.5c-0.3,0-0.6,0-0.9,0c-0.5,0-1,0-1.5,0c0-0.4,0-0.8,0-1.3
		c0-0.6,0-1.3,0-1.9c0-0.3,0-0.6,0-0.9c0-0.2,0-0.4,0-0.6s0-0.4,0-0.6c0-0.3,0-0.6,0-0.9c0-0.2,0-0.3,0-0.5c0-0.3,0-0.6,0-1
		c0-0.4,0-0.8,0.1-1.2c0-0.1,0-0.1,0-0.2l0,0c0.2,0,0.5,0.1,0.9-0.2c0.3,0,0.7,0,1,0c0.2,0,0.3,0,0.5,0l0,0c0.6,0.2,1.1,0.2,1.6,0.2
		c0.3,0,0.6,0,0.9,0h0.4l0.7-0.8c0-0.3-0.1-0.6-0.3-0.9C30.6,12.4,30.2,11.8,29.8,11.3z M24.1,20.9L24.1,20.9c0.1,0,0.1,0,0.2,0
		H24.1z"/>
	<path class="st0" d="M53.6,30.2l-0.1-0.4c-0.1-0.5-0.1-1-0.1-1.5c0-0.3,0-0.7-0.1-0.9c-0.1-0.2-0.1-0.5-0.1-0.7s0-0.4-0.1-0.6
		c0-0.2,0-0.5-0.1-0.8c0-0.2,0-0.4,0-0.6c0-0.5-0.1-1-0.2-1.5l-0.1-0.4c0-0.1,0-0.1,0-0.2v-0.1L52.4,18c0.1-0.5,0.1-0.9-0.1-1.4
		v-0.4c0-0.1,0.1-0.2,0.1-0.4c0-0.3,0-0.5,0-0.8v-0.2c0-0.5-0.1-1-0.1-1.5c0-0.1,0-0.2,0-0.3v-0.1h-0.1c0-0.1-0.1-0.3-0.2-0.5
		l0.1-0.1c0-0.1,0-0.3,0-0.4c0-0.4,0-0.8-0.3-1.2l-0.2-0.2c0-0.1,0-0.1,0-0.2c0-0.2,0-0.4,0.1-0.5L51.6,9c0,0.1,0.1,0.2,0.1,0.2
		c0.1-1-0.3-1.8-1.2-2.1L50,6.9c-0.5-0.2-0.9,0-1.1,0.2l-0.2,0.7v0.3c0,0.1,0,0.1,0,0.3c0,0.4,0,0.8,0,1.1c0,1,0,2.1,0.2,3.2
		c0,0.3,0.1,0.5,0.1,0.8l0.1,1.2c0,0.6,0.1,1.1,0.1,1.7c0,0.3,0,0.6,0,0.9s0,0.6,0,0.8c0,0.8,0.1,1.5,0.2,2.3c0.1,0.7,0.1,1.4,0.2,2
		l0.1,0.8c0,0.1,0,0.1,0,0.1l0.1,0.4c0,0.4,0.1,0.7,0.1,1.1s0.1,0.9,0.1,1.3c0,0.5,0.1,1,0.1,1.5c0,0.3,0.1,0.5,0.1,0.8
		c0.1,0.7,0.2,1.3,0.1,1.9c0,0.2,0.1,0.4,0.2,0.6l1,0.4c-0.1,0.1-0.3,0-0.4-0.1c0.4,0.5,0.9,0.5,1.2,0.5L53,32l0.9-0.3l0.1-0.2
		l0.1-0.4v-0.2C53.6,30.4,53.6,30.3,53.6,30.2z"/>
	<path class="st0" d="M172.1,3.6c-0.2-0.1-0.4-0.3-0.6-0.4c-0.1-0.1-0.3-0.1-0.4-0.2c-0.1,0-0.2-0.1-0.2-0.1
		c-0.4-0.2-0.8-0.2-1.2,0.1l-0.3,0.6v0.5c0,0.2,0,0.5-0.1,0.7c-0.1,0.3-0.1,0.7-0.2,1c-0.1,0.3-0.1,0.7-0.2,1v0.1
		c-0.1,0.8-0.3,1.5-0.5,2.3c-0.1,0.3-0.1,0.6-0.2,0.9c0,0.2-0.1,0.3-0.1,0.5l-0.5,2.1c-0.1,0.4-0.2,0.8-0.3,1.2
		c-0.1,0.3-0.1,0.7-0.2,1c0,0.3-0.1,0.6-0.1,0.9c-0.2,0.9-0.3,1.8-0.5,2.8c-0.1,0.3-0.1,0.6-0.2,0.9c-0.1-0.3-0.1-0.6-0.2-0.9
		c-0.1-0.3-0.1-0.5-0.2-0.8c-0.1-0.3-0.1-0.6-0.2-0.9c-0.1-0.5-0.2-1-0.3-1.5c-0.1-0.4-0.1-0.8-0.2-1.3c0-0.2-0.1-0.4-0.1-0.6
		c-0.1-0.2-0.1-0.4-0.1-0.7c-0.1-0.5-0.2-0.9-0.3-1.4c-0.1-0.3-0.2-0.6-0.2-0.8c-0.1-0.2-0.1-0.5-0.2-0.7c-0.1-0.3-0.1-0.6-0.2-0.9
		c0-0.1,0-0.3,0-0.4c0-0.3-0.1-0.7-0.2-1.1c0-0.3,0-0.5-0.1-0.7c0-0.1,0-0.2,0-0.3c0-0.4-0.3-0.7-0.7-1c-0.2-0.1-0.4-0.3-0.6-0.4
		c-0.4-0.3-0.8-0.4-1.4-0.3l-0.5,0.4c0,0.1-0.1,0.2-0.1,0.4V6c0,0.2,0,0.4-0.1,0.6l-0.1,0.2c0,0.2-0.1,0.4-0.1,0.5
		c-0.1,0.4-0.1,0.7-0.2,1.1c-0.2,0.6-0.3,1.3-0.3,1.9v0.3c-0.1,0.7-0.2,1.4-0.4,2.1c-0.1,0.4-0.1,0.7-0.2,1.1l-0.1,0.4
		c0,0.2,0,0.3-0.1,0.5c0,0.1,0,0.3-0.1,0.4c0,0.1,0,0.3-0.1,0.4c0,0.2-0.1,0.3-0.1,0.5l-0.1,0.8c0,0.3-0.1,0.7-0.1,1
		c0,0.1,0,0.2-0.1,0.3l-0.1,0.2c-0.1,0.4-0.1,0.8-0.2,1.1c0,0.3-0.1,0.5-0.1,0.8c-0.2,0.9-0.4,1.8-0.6,2.7c-0.1,0.4-0.3,1.2,0.3,1.9
		l0.5,0.4l0.8,0.2l0.9-0.4l0.2-0.5c0-0.1,0.1-0.3,0.1-0.4l0.1-1.3c0.1-0.3,0.2-0.7,0.3-1.2c0-0.1,0-0.2,0.1-0.3c0-0.1,0-0.2,0.1-0.4
		c0-0.2,0.1-0.4,0-0.7v-0.1V20c0-0.1,0-0.2,0.1-0.4c0-0.1,0.1-0.3,0.1-0.4s0-0.2,0-0.3c0-0.1,0-0.2,0-0.3c0.1-0.2,0.1-0.4,0.1-0.5
		s0-0.1,0-0.2l0.1-0.6c0-0.1,0-0.2,0-0.3l0.5-2.4l-0.3-0.7c0.2,0.1,0.2,0.3,0.2,0.4v-0.1c0-0.1,0-0.1,0.1-0.2
		c0.2-0.4,0.3-0.8,0.2-1.3c0.1-0.2,0.1-0.4,0.2-0.5c0.1,0.3,0.1,0.6,0.2,0.9c0.1,0.5,0.2,0.9,0.3,1.4s0.2,1,0.3,1.5
		c0.2,0.9,0.3,1.7,0.5,2.6c0,0.2,0.1,0.4,0.1,0.6c0.1,0.3,0.2,0.7,0.2,1s0.1,0.5,0.1,0.8l0.1,0.4c0.1,0.3,0.1,0.7,0.2,1
		c0.1,0.3,0.2,0.6,0.2,0.9l0.5,2l0.5,0.5c0,0,0.1,0.1,0.2,0.1c0.2,0.2,0.5,0.4,1,0.5l0,0c0.3,0.1,0.6,0.2,0.8,0.3l0.7-0.5
		c0-0.1,0-0.1,0.1-0.2v-0.1c0.4-0.6,0.6-1.3,0.8-2c0-0.1,0-0.2,0-0.3c0.1-0.4,0.2-0.9,0.1-1.4c0-0.1,0-0.2-0.1-0.2l0.1-0.3
		c0.1-0.1,0.2-0.2,0.2-0.4c0.1-0.3,0.2-0.6,0.2-0.8c0-0.2,0.1-0.3,0.1-0.5l0.1-0.3c0-0.2,0.1-0.3,0.1-0.5c0.1-0.3,0.1-0.6,0.2-0.8
		c0-0.2,0-0.4,0.1-0.6s0.1-0.4,0.1-0.7c0-0.1,0-0.3,0.1-0.4c0.1-0.3,0.1-0.7,0.2-1l0.1-0.3c0-0.2-0.1-0.4-0.1-0.4h-0.1
		c0-0.1,0.1-0.2,0.1-0.3c0.1-0.2,0.1-0.4,0.2-0.5c0.4-0.5,0.2-0.9,0.2-1.1h-0.1c0,0,0,0,0-0.1l0.3-0.4l0.4-2.1l-0.1-0.2l0.2-0.8
		l-0.2-0.4h0.3c0.1-0.3,0.1-0.5,0.1-0.7h0.2c0.1-0.3,0.1-0.6-0.1-0.8c-0.1-0.1-0.2-0.2-0.3-0.3V7.1c0.1,0.1,0.1,0.2,0.2,0.3
		c0-0.3,0-0.6,0.1-0.9c0,0,0,0,0-0.1c0.4-0.2,0.5-0.6,0.5-0.8V5.5c0-0.1,0.1-0.2,0.1-0.3c0.1-0.2,0.2-0.5,0.2-0.7l-0.3-0.7
		L172.1,3.6z M166.5,23L166.5,23L166.5,23L166.5,23L166.5,23L166.5,23L166.5,23z M170.7,13.1L170.7,13.1L170.7,13.1L170.7,13.1z
		 M171.6,7.5L171.6,7.5L171.6,7.5h-0.1V7.4C171.6,7.4,171.6,7.5,171.6,7.5z"/>
	<path class="st0" d="M214.1,7.1c0-0.3-0.1-0.5-0.2-0.8c-0.1-0.4-0.2-0.7-0.3-1c-0.2-0.6-0.7-1-1.1-1.4c-0.2-0.2-0.4-0.3-0.7-0.5
		c-0.1-0.1-0.3-0.2-0.4-0.3c-0.7-0.6-1.6-0.7-2.7-0.4c-0.2,0-0.3,0.1-0.3,0.2l-0.3,0.2l-0.4-0.2c-0.4-0.2-0.8-0.2-1.2,0.1l-0.3,0.5
		v0.8c0,0.4,0,0.9,0,1.3c0,0.1,0,0.3,0,0.4c0,0.3,0,0.5,0,0.8c0,0.2,0,0.5,0,0.7c0,0.3-0.1,0.7,0,1.1c0,0.3,0,0.6,0,1V10
		c0,0.5,0,1-0.1,1.5c0,0.5-0.1,0.9-0.1,1.4l-0.1,1.1c0,0.3-0.1,0.6-0.1,1c0,0.2-0.1,0.5-0.1,0.7s-0.1,0.5-0.1,0.7
		c0,0.4-0.1,0.7-0.1,1.1l-0.1,0.9c0,0.2,0,0.3-0.1,0.5c0,0.7-0.1,1.3-0.1,2l-0.2,2.6c0,0.6-0.1,1.1-0.1,1.7c0,0.3-0.1,0.7-0.1,1
		l-0.1,0.6l0.4,0.7l0.2,0.1c0.3,0.2,0.7,0.5,1.2,0.5c0.3,0.1,0.6,0.1,0.9,0.1c0.8,0,1.6-0.2,2.3-0.4c0.3-0.1,0.5-0.1,0.7-0.2
		c0.5-0.1,0.7-0.4,0.8-0.6c0.9-0.2,1.7-1.2,2-1.6s0.4-0.9,0.5-1.3c0.2-0.5,0.3-1.1,0.2-1.7c0.4-0.5,0.2-1.1,0.1-1.4
		c0-0.1,0-0.2-0.1-0.2c0-0.2,0-0.4,0-0.6c0-0.3,0-0.6-0.1-1c0-0.1-0.1-0.3-0.2-0.5l-0.1-0.1l0,0c0-0.1,0-0.2,0-0.2
		c0-0.5-0.2-0.9-0.3-1.1s-0.2-0.5-0.3-0.7c-0.5-1.1-1-2.3-2.1-3.1l0.6-0.4l0.2-0.2c0.1,0,0.1,0,0.1-0.1c0.1,0,0.1-0.1,0.2-0.2
		c0.1,0,0.2-0.1,0.3-0.2c0.1-0.1,0.2-0.2,0.2-0.3c0.1-0.1,0.1-0.2,0.2-0.3l0.1-0.1c0.1-0.1,0.3-0.3,0.4-0.5l0.2-0.3
		c0.1-0.1,0.1-0.3,0.2-0.4c0.2-0.3,0.2-0.6,0.3-0.9V9.5c0.1-0.3,0.1-0.6,0.2-0.8c0-0.3,0-0.5,0.1-0.8V7.8c0-0.1,0-0.3,0-0.4
		L214.1,7.1z M208.7,25c-0.2,0-0.4,0-0.5,0.1c-0.1,0-0.3,0-0.4,0c0-0.1,0-0.2,0-0.2c0-0.3,0-0.6,0-0.9c0,0,0-0.1,0-0.2
		c0-0.2,0.1-0.4,0-0.6c0,0,0-0.1,0-0.2s0-0.2,0-0.2l-0.1-0.1c0.2-0.3,0.2-0.5,0.2-0.7v-0.2c0-0.2,0-0.3,0-0.5c0-0.3,0-0.5,0-0.8
		c0.1-0.1,0.1-0.4,0.1-0.6v-0.1c0.1-0.2,0.1-0.3,0.1-0.5l-0.1-0.5v-0.3v-0.1l0.2-0.4v-0.7l-0.1-0.1l0,0c0-0.1,0-0.1,0-0.2
		s0-0.1,0.1-0.2l0.1-0.1v-0.3l0,0c-0.1,0.2-0.2,0.3-0.3,0.4l0.3-0.7V16c0,0,0,0,0,0.1V16v0.1c0-0.1,0-0.1,0-0.2l0,0l0,0
		c0-0.1,0-0.1,0.1-0.2c0-0.1,0.1-0.1,0.1-0.2c0.2,0.2,0.4,0.2,0.5,0.3c0,0.1,0.1,0.2,0.1,0.2c0.1,0.2,0.3,0.3,0.4,0.4h0.1l0,0
		c0,0.1,0,0.2,0.1,0.4c0.1,0.3,0.3,0.5,0.4,0.6c0,0.1,0,0.3,0.1,0.5c0,0.1,0.1,0.2,0.2,0.2c-0.1,0.5,0.1,0.9,0.3,1.1
		c0,0.1,0.1,0.2,0.1,0.2c0.1,0.4,0.2,0.8,0.3,1.2c0.1,0.8,0.3,1.7,0,2.4c-0.3,0.6-0.7,1.4-1.2,1.5c-0.2,0.1-0.5,0.1-0.8,0.2
		L208.7,25z M210.6,10.3c0,0-0.1,0.1-0.2,0.2c-0.2,0.2-0.4,0.4-0.7,0.6c-0.2,0.2-0.4,0.3-0.6,0.5c-0.1-0.1-0.1-0.1-0.2-0.2l0.1-1
		l0-0.4c0,0,0-0.1,0-0.2c0-0.2,0-0.3,0-0.4c0.1-0.2,0.1-0.5,0-0.8l0,0c0-0.1,0-0.2,0-0.3V8V7.8l0,0V7.7h0.1l0.2-2.6
		c0.2-0.2,0.4-0.3,0.5-0.3s0.2,0,0.3-0.1c0.2,0,0.3,0,0.4,0.1c0.1,0.1,0.2,0.2,0.3,0.2h0.2c0.4,0.3,0.6,0.7,0.7,1.3
		c0,0.2,0,0.3,0.1,0.4c0,0.1,0,0.2,0.1,0.3c0,0.3,0,0.7-0.1,1.3c-0.1,0.4-0.2,0.8-0.4,1.1c-0.1,0.2-0.2,0.4-0.3,0.5
		C210.8,10.1,210.7,10.2,210.6,10.3z"/>
	<path class="st0" d="M200.9,22.7c0-0.4-0.1-0.7-0.1-1.1c0-0.1,0-0.2,0-0.4c0-0.3,0-0.5-0.1-0.8c0-0.2-0.1-0.4-0.1-0.6
		c0-0.3,0-0.7-0.1-1s-0.1-0.6-0.1-0.9v-0.4c0-0.4-0.1-0.9-0.1-1.3c0-0.4,0-0.8,0-1.2v-1.2c0-0.3,0-0.6,0-0.8s0-0.4,0-0.7
		c0-0.2,0-0.4,0-0.7s0-0.6,0-0.9V9.8c0-0.2,0-0.3,0-0.5c0-0.6-0.1-1.2-0.1-1.9l-0.3-3.9c0-0.3,0-0.6,0-0.9V2L199,1.5l-0.3-0.1
		c-0.5-0.2-1.1-0.4-1.8-0.3L196.3,2l0.1,0.7l0,0V3l-0.1,0.4l0.1,0.2l-0.1,0.1v0.1c0,0.1,0,0.2,0,0.3c0,0.1,0,0.2,0,0.2
		c0,0.2,0,0.6,0.2,0.8v0.1c0,0.2,0,0.4,0,0.6v0.1c0,0.1,0,0.1,0,0.2l0.1,0.1c-0.1,0.3-0.1,0.5-0.1,0.7v0.2c0,0.1,0.1,0.3,0,0.4
		c0,0.3,0,0.5,0.1,0.7c0,0.1-0.1,0.4,0,0.6l0,0c0,0.2,0,0.3,0,0.5l0.1,0.3c-0.6-0.1-1.3,0-1.9,0.1c-0.6,0.1-1.2,0.2-1.7,0
		c-0.2-0.1-0.3-0.1-0.4-0.1c0-0.3-0.1-0.7-0.5-1.1c0,0,0-0.1,0-0.2c0-0.2,0-0.3,0-0.4c0-0.2,0-0.4-0.1-0.7c0-0.1,0-0.2,0-0.3V6.6
		L192,6.7l0.1-0.1V6.5h0.2l-0.2-2.6L192,3.6V3.5c0-0.2,0-0.3-0.1-0.5V2.9l-1.1-0.5l-0.1,0.1c-0.2-0.1-0.3-0.1-0.5-0.2
		c-0.4-0.2-0.8-0.1-1.1,0.2l-0.2,0.6l0.1,0.7c0,0.4,0.1,0.8,0.1,1.2c0,0.1,0,0.3,0,0.4c0,0.3,0,0.5,0.1,0.8c0,0.2,0.1,0.4,0.1,0.6
		c0,0.3,0,0.6,0.1,1c0.1,0.3,0.1,0.6,0.1,0.9v0.4c0,0.4,0.1,0.9,0.1,1.3c0,0.4,0,0.8,0.1,1.3v1.1c0,0.3,0,0.6,0,0.9
		c0,0.2,0,0.5,0,0.7s0,0.4,0,0.6c0,0.3,0,0.6,0,0.9v0.9c0,0.2,0,0.3,0,0.5c0,0.6,0.1,1.1,0.1,1.7l0.3,4.1c0,0.3,0,0.5,0,0.8v0.7
		l0.5,0.6l0.3,0.1c0.4,0.2,0.9,0.4,1.4,0.4c0.1,0,0.2,0,0.4,0l0.6-0.8l-0.1-0.4l-0.1-0.7l0,0v-0.2l-0.1-0.2l0.1-0.1v-0.1
		c0-0.1,0-0.2,0-0.3c0-0.1,0-0.2,0-0.2c0-0.2,0-0.6-0.2-0.8v-0.1c0-0.2,0-0.4,0-0.6v-0.1c0-0.1,0-0.2,0-0.2l-0.1-0.1
		c0.1-0.3,0.1-0.5,0.1-0.7v-0.2c0-0.1-0.1-0.3-0.1-0.4c0-0.3,0-0.5-0.1-0.7c0-0.2,0.1-0.4,0-0.6l0,0c0-0.2,0-0.3,0-0.5l-0.2-0.5
		v-0.3l0,0l0.2-0.4l-0.1-0.7l-0.1-0.1l0,0v-0.1v-0.1v-0.1l-0.1-0.3l0,0c0,0.2-0.2,0.4-0.3,0.4l0.2-0.7v-0.1c0,0,0,0,0.1,0.1v-0.2
		c-0.1-0.1,0-0.5,0-0.9c0.9,0.2,1.9,0.1,2.7-0.1c0.6-0.1,1.2-0.2,1.7-0.2c0,0.3-0.1,0.8-0.1,1.1c0,0.2,0,0.4-0.1,0.5h0.2l-0.2,0.2
		c0.1,0.5,0.1,1.1,0.1,1.7V17c0,0.1,0,0.1,0,0.1l-0.1,0.5c0.1,0.3,0.2,0.6,0.4,0.9c0,0,0,0.1,0,0.2c0,0.2,0,0.3,0,0.4
		c0,0.2,0,0.4,0.1,0.7c0,0.1,0,0.2,0,0.2v0.3l0.3,0.1v0.1h-0.3l0.2,2.6l0.1,0.3c0,0,0,0,0,0.1c0,0.2,0,0.3,0.1,0.5v0.1l1.1,0.5
		l0.1-0.1l0.5,0.2c0.4,0.2,0.8,0.1,1.1-0.2l0.2-0.6c0-0.1,0-0.1,0-0.2L200.9,22.7z M196.7,3.4L196.7,3.4L196.7,3.4L196.7,3.4z
		 M193.1,23.2C193.1,23.2,193.1,23.3,193.1,23.2L193.1,23.2L193.1,23.2z M192.1,16.4L192.1,16.4c0-0.1,0-0.1-0.1-0.2l0,0L192.1,16.4
		L192.1,16.4l-0.1,0.1l0,0L192.1,16.4L192.1,16.4z M192,16.5L192,16.5L192,16.5L192,16.5z M192,6.5L192,6.5L192,6.5L192,6.5z"/>
	<path class="st0" d="M139.5,24.2c0,0-0.1,0-0.2-0.1c-0.2-0.1-0.3-0.2-0.6-0.2s-0.6,0-0.8,0.1c-0.4,0.1-0.6,0-1-0.1
		c-0.3-0.1-0.7-0.2-1.2-0.2l0,0c-0.9,0-1.7,0-2.6-0.1H133c-0.1-0.1,0-0.7,0-1c0-0.1,0-0.2,0.1-0.3c0-0.3,0.1-0.6,0.1-0.9l0.1-0.6
		c0-0.3,0.1-0.7,0.1-1c0-0.1,0-0.3,0-0.3c0.1-0.4,0.2-0.8,0.2-1.1v-0.3c0-0.1,0-0.1,0.1-0.3c0-0.2,0.1-0.4,0-0.7c0-0.1,0-0.2,0-0.3
		c0-0.2,0.1-0.3,0-0.5c0.1-0.3,0.1-0.5,0.1-0.7v-0.1c0.1-0.3,0.2-0.6,0.1-0.9c0-0.1,0-0.3,0.1-0.6c0.2-0.4,0.3-0.8,0.1-1.2v-0.2
		c0-0.4,0.1-0.8,0.1-1.2v-0.1l0.1-0.2c0-0.1,0.1-0.2,0.1-0.4s0.1-0.4,0.1-0.7V9.7V9.6l0.1-0.4c0-0.1,0-0.3,0-0.4c0-0.3,0.1-0.6,0-1
		c0,0,0,0,0-0.1C135,7.3,135,7,135,6.9s0-0.2,0-0.3c0-0.2,0.1-0.4,0-0.7c0.2-0.5,0.2-0.9,0.2-1.4c0-0.1,0-0.3,0-0.5
		c0-0.1,0-0.1,0-0.2c0-0.2,0.1-0.4,0.1-0.6c0-0.4,0-0.8,0.1-1.2l-0.3-0.8c-0.1-0.1-0.2-0.2-0.4-0.3c-0.5-0.2-0.9-0.3-1.3-0.3h-0.1
		h-0.1l-0.7,0.2c-0.3,0.4-0.3,0.6-0.3,1V2c0,0.4,0,0.8,0,1.3c0,0.2,0,0.4,0,0.7c0,0.2,0,0.3,0,0.5c0,0.1,0,0.2,0,0.3
		C132,5.1,132,5.5,132,5.9c0,0.3,0,0.6-0.1,0.9c-0.1,0.6-0.2,1.3-0.2,1.9c0,0.1,0,0.2-0.1,0.4c-0.1,0.3-0.1,0.6-0.1,0.9
		c-0.1,0.4-0.2,0.8-0.2,1.1c0,0.2,0,0.4-0.1,0.5c-0.1,0.3-0.1,0.6-0.1,0.9l-0.1,0.7c0,0.3,0,0.5-0.1,0.8c-0.1,0.5-0.2,0.9-0.2,1.4
		c0,0.2-0.1,0.4-0.1,0.6c0,0.3-0.1,0.6-0.1,0.9c0,0.1,0,0.3,0,0.4s0,0.3,0,0.4l-0.2,2.1c0,0.4-0.1,0.8-0.1,1.1
		c0,0.2-0.1,0.4-0.1,0.6c0,0.3-0.1,0.5-0.1,0.8s-0.1,0.5-0.2,0.8c-0.1,0.6-0.3,1.4-0.2,2.1c0.2,1.2,1.2,1.3,1.9,1.3
		c0.1,0,0.2,0,0.3,0h0.2l0,0l0,0c0.9,0.1,1.8,0.2,2.7,0.2c1.6,0.1,3.2,0.2,4.7,0.5l0.8-0.5l0.3-1.5c0-0.1,0.1-0.5-0.1-0.8
		C140.3,24.2,140,24.1,139.5,24.2z"/>
	<path class="st0" d="M154.9,18.4c0-0.2-0.1-0.4-0.2-0.5c0-0.2,0-0.4,0-0.6l-0.7,0.1l0,0l0,0l0,0l0.7-0.1l0,0
		c-0.1-0.3-0.2-0.6-0.3-0.8c0-0.1,0.1-0.3,0.1-0.5c0-0.5-0.2-1.1-0.3-1.6l-0.1-0.2c-0.1-0.2-0.1-0.5-0.2-0.7
		c-0.1-0.5-0.2-0.9-0.4-1.4c0-0.4-0.1-0.8-0.2-1.1c-0.1-0.2-0.1-0.3-0.1-0.5c-0.1-0.7-0.3-1.5-0.5-2.3c-0.1-0.4-0.1-0.7-0.2-1.1
		c-0.1-0.5-0.1-1-0.3-1.4c0-0.1,0-0.2,0-0.4c0-0.4,0-0.8-0.2-1.2c-0.5-0.7-1.4-0.5-1.7-0.4h-0.1c-0.8,0.2-1.3,0.6-1.1,1.7l0.6,3.2
		c0.1,0.5,0.2,1.1,0.2,1.6c0,0.1,0,0.2,0,0.3c0,0.3,0,0.6,0,0.9c0.1,0.5,0.3,0.9,0.4,1.3c0.2,0.4,0.3,0.7,0.4,1.1
		c0,0.1,0,0.3,0.1,0.5s0.1,0.3,0.2,0.4l0.1,0.1c0,0.1,0.1,0.3,0.1,0.4c0,0.2,0,0.4,0,0.6c0,0.4,0,0.8,0.1,1.2c0,0.3,0.1,0.6,0.2,0.8
		c0.1,0.3,0.2,0.5,0.2,0.7c0,0.3,0,0.6,0.1,0.9c0,0.2,0,0.3,0.1,0.5c0,0.1-0.1,0.2-0.1,0.3c0,0.1,0,0.1,0,0.2s-0.1,0.2-0.1,0.3
		c0,0.1,0,0.1,0,0.2c-0.1,0.2-0.2,0.4-0.2,0.6c-0.1,0.2-0.1,0.3-0.2,0.3c-0.4,0.3-0.8,0.5-1.5,0.6c-0.5,0.1-1,0.2-1.5,0.1
		c-1.3-0.2-2.2-1.6-2.6-2.4V20c0.1-0.6,0.1-0.8-0.1-1.3l-0.1-0.2c-0.2-0.4-0.3-0.9-0.4-1.6c0-0.1,0-0.1,0-0.2s0-0.2,0.1-0.3
		c0-0.2,0-0.4-0.1-0.5l-0.4-1.9c-0.1-0.5-0.2-1-0.3-1.6c0-0.1,0-0.3-0.1-0.4l-0.2-1.8c0-0.3-0.1-0.7-0.1-1c-0.1-0.4-0.1-0.7-0.2-1.1
		l-0.4-2.4l-0.7-0.6c-0.4,0-0.7,0.1-1.1,0.2h-0.1c-0.6,0.1-1.2,0.4-1.3,1.4c0,0.6,0.2,1.3,0.3,1.8c0.1,0.2,0.1,0.4,0.2,0.6
		c0.1,0.3,0.2,0.7,0.3,1c0.1,0.8,0.3,1.6,0.5,2.3c0,0.2,0.1,0.3,0.1,0.5c0,0.3,0.1,0.7,0.3,1.1c0,0.5,0.1,1,0.2,1.5
		c0,0.2,0.1,0.5,0.1,0.7c0,0.4,0.1,0.7,0.2,1.1c0,0.2,0.1,0.3,0.1,0.5l0.1,0.4c0.1,0.4,0.1,0.7,0.2,1c0.1,0.8,0.1,1.9,0.8,2.9
		c0.1,0.1,0.2,0.2,0.2,0.3c0.1,0.2,0.2,0.3,0.3,0.4c0,0.1,0.1,0.1,0.1,0.2c0.1,0.3,0.3,0.9,0.9,1.1c0.3,0.4,0.7,0.6,0.9,0.7
		c0.3,0.1,0.5,0.2,0.8,0.3c0.3,0.2,0.7,0.3,1,0.4c0.2,0,0.3,0.1,0.4,0.1c0.3,0,0.5-0.1,0.7-0.2c0.1,0,0.1,0,0.1,0
		c0.1,0,0.2,0.1,0.3,0.1c0.4,0.1,0.8-0.1,1-0.3c0,0,0.1,0,0.1-0.1h0.2c0.1,0,0.1,0,0.2,0c0.3,0,0.7,0.1,1.1-0.2
		c0.1-0.1,0.2-0.1,0.2-0.2c0,0,0.1,0,0.2,0c0.3,0,0.7,0,1.1-0.3c0.4-0.2,0.7-0.6,0.9-0.9c0.1-0.1,0.2-0.2,0.3-0.3
		c0.2-0.3,0.6-0.6,0.7-1.1c0.1-0.2,0.1-0.5,0.1-0.6v-0.1c0-0.3,0-0.6,0-0.9s0-0.6,0-0.9s0-0.5,0-0.7v-0.2c0,0,0-0.1,0-0.2
		C154.9,18.9,154.9,18.7,154.9,18.4z M153.9,17.5L153.9,17.5L153.9,17.5L153.9,17.5L153.9,17.5z"/>
	<path class="st0" d="M227.5,13.3c0-0.7-0.1-1.3-0.2-2c0-0.3,0-0.5-0.1-0.8c0-0.4,0-0.7-0.1-1.1c-0.2-0.9-0.4-1.7-0.6-2.4
		c-0.3-1.2-0.7-2.2-1.2-3.1c-0.2-0.5-0.5-0.9-0.8-1.3c-0.2-0.2-0.4-0.4-0.5-0.5c-0.1-0.1-0.2-0.1-0.2-0.2V1.8c0-0.1-0.1-0.3-0.2-0.4
		c-0.2-0.3-0.5-0.4-0.7-0.5l-0.1-0.1c-0.1-0.1-0.4-0.3-0.8-0.2c0,0,0,0-0.1,0l-0.7-0.4c-0.1-0.1-0.4-0.2-0.7-0.1s-0.5,0.3-0.6,0.4
		c-0.2,0.2-0.2,0.2-0.3,0.3c-4,1.8-3.4,9.5-3.1,14.2c0,0.4,0.1,0.8,0.1,1.2c0.1,0.4,0.1,0.8,0.1,1.3c0,0.3,0.1,0.6,0.1,0.8
		c0,0.1,0.1,0.2,0.1,0.4c0.1,0.8,0.2,1.2,0.6,1.9c0.1,0.1,0.1,0.2,0.1,0.4c0,0.2,0,0.5,0.1,0.8s0.3,0.7,0.8,0.9
		c0.1,0.4,0.4,0.6,0.5,0.8c0.1,0.1,0.2,0.2,0.2,0.3c0,0.1,0,0.1,0,0.2s0,0.2,0.1,0.2c0.1,0.4,0.4,0.7,0.8,0.9
		c0.3,0.6,0.9,0.6,1.1,0.6h0.1l0.3,0.1c0.5,0.2,0.9,0.4,1.4,0.4c0.1,0,0.2,0,0.3,0c1.2-0.2,2.2-1.2,3-2.9c0-0.1,0.1-0.1,0.2-0.2
		c0.2-0.3,0.6-0.7,0.6-1.4c0-0.1,0-0.2,0-0.3v-0.1c0-0.4,0.1-0.9,0.2-1.4c0.1-0.3,0.1-0.7,0.2-0.9c0.1-0.9,0.1-1.8,0.1-2.8
		c0-0.5-0.1-1.1-0.1-1.6C227.6,14.1,227.5,13.7,227.5,13.3z M219.2,15l-0.1-0.4l0.5-0.6c-0.1-0.2-0.1-0.3-0.1-0.4
		c0-0.1,0.1-0.2,0.1-0.3s0-0.2,0-0.4v-0.6c0-0.4,0-0.7,0-1.1c0-0.3-0.1-0.6-0.1-0.9c0-0.2-0.1-0.4-0.1-0.6c0-0.1,0-0.2,0.1-0.4
		c0-0.2,0.1-0.5,0.1-0.8c0-0.2,0-0.3-0.1-0.5c0-0.1-0.1-0.2,0-0.3c0-0.1,0-0.2,0-0.3c0-0.1,0-0.2,0-0.3V7c0.1-0.1,0.2-0.3,0.3-0.6
		c0-0.1,0-0.3,0-0.4V5.9l0.1-0.2c0-0.1,0.1-0.2,0.1-0.3c0.1-0.1,0.1-0.3,0.1-0.4c0-0.2,0.1-0.3,0.2-0.4c0.2-0.5,0.4-0.6,0.4-0.6
		s0.2,0,0.3,0.2c0.1,0.1,0.2,0.2,0.3,0.3c0.1,0.1,0.2,0.1,0.3,0.2c0,0.1,0.1,0.1,0.1,0.2c0.1,0.1,0.4,0.4,0.8,0.3c0,0,0,0.1,0,0.2
		s0,0.3,0.1,0.5c0.1,0.1,0.2,0.3,0.4,0.4c0.1,0.5,0.2,1,0.5,1.4c0.2,0.4,0.5,1.3,0.6,2l0.1,0.4c0.3,1.3,0.4,2.6,0.5,3.6
		c0.1,1.2,0,2.2,0,3.3c-0.2,2.3-0.3,2.8-0.3,2.8c0-0.1,0.1-0.2,0.4-0.3l0.1,0.4l-0.5,0.3l0.1-0.1l-0.1,0.1l-0.1,0.1l0,0l0,0
		c-0.2,0.2-0.3,0.5-0.3,0.8c-0.1,0.4-0.7,0.9-0.9,1c-0.1,0-0.4-0.1-0.6-0.2l-0.3,0.7l0,0l0.3-0.7c-0.2-0.1-0.4-0.2-0.5-0.2
		c-0.2-0.1-0.2-0.1-0.3-0.1c-0.1-0.1-0.2-0.2-0.4-0.3c-0.1,0-0.2,0-0.3,0c0-0.1,0-0.2,0-0.3c0-0.2,0-0.3,0-0.5
		c-0.1-0.6-0.3-1.1-0.4-1.7c-0.1-0.3-0.2-0.5-0.2-0.8c-0.1-0.2-0.1-0.5-0.1-0.7s0-0.5-0.1-0.7c0-0.2-0.1-0.4-0.2-0.6
		c-0.1-0.1-0.1-0.2-0.2-0.4c-0.1-0.1-0.2-0.3-0.2-0.6c0-0.1,0-0.2,0-0.2C219.5,14.8,219.4,14.9,219.2,15z"/>
	<path class="st0" d="M241.6,28.2c0-0.8-0.2-1.6-0.4-2.4c0-0.1-0.1-0.2-0.1-0.2c-0.1-0.5-0.3-1-0.7-1.5c-0.2-0.2-0.2-0.3-0.2-0.5
		l-0.1-0.3c0-0.1,0-0.2,0-0.3c-0.1-0.3-0.2-0.6-0.3-1c-0.1-0.2-0.1-0.4-0.2-0.5c0-0.1-0.1-0.3-0.1-0.4c-0.1-0.2-0.1-0.4-0.2-0.6
		c-0.1-0.3-0.2-0.6-0.3-0.9c-0.1-0.2-0.2-0.5-0.3-0.7s-0.2-0.4-0.3-0.7c-0.1-0.2-0.2-0.3-0.2-0.5c-0.1-0.4-0.2-0.7-0.4-1l-0.2-0.4
		l-0.2-0.2l0,0c0.1-0.1,0.1-0.3,0.2-0.4c0.4-1,0.9-2,1.3-3c0.2-0.5,0.5-1,0.7-1.5l0.5-1c0.1-0.1,0.1-0.3,0.2-0.4
		c0-0.1,0.1-0.2,0.1-0.3c0.1-0.3,0.2-0.5,0.4-0.8l0.3,0.1c0.1-0.3,0.3-0.7,0.4-1V7.7l0,0c0.4-0.8,0.7-1.4,1-2l-0.1-0.5
		c-0.1-0.1-0.1-0.2-0.2-0.2c-0.2-0.2-0.4-0.5-0.8-0.6h-0.1c-0.2-0.2-0.6-0.5-0.8-0.5L240,4.1c0,0.1-0.1,0.1-0.1,0.2
		c-0.1,0.1-0.1,0.2-0.2,0.2c-0.6,0.6-1,1.3-1.4,2c-0.1,0.1-0.1,0.2-0.1,0.2c-0.3,0.4-0.5,0.9-0.6,1.6c0,0.3-0.1,0.4-0.2,0.5
		l-0.2,0.3c-0.1,0-0.1,0.1-0.2,0.2c-0.2,0.3-0.3,0.6-0.5,0.9c-0.1,0.2-0.2,0.3-0.2,0.5c-0.1,0.1-0.1,0.3-0.2,0.4
		c-0.1,0.2-0.2,0.4-0.3,0.6c-0.1,0.1-0.1,0.3-0.2,0.4l-0.4-1l-0.2-0.2l-0.3-0.9l-0.5-0.2l0.3-0.2c-0.1-0.4-0.1-0.5-0.4-0.7l0.2-0.2
		c0-0.1-0.1-0.4-0.3-0.5c-0.1,0-0.2-0.1-0.3,0l0.3-0.6c0,0,0,0-0.1,0l0,0c-0.2-0.3-0.3-0.7-0.5-1l0,0l0.1-0.1V6.1
		c0.1-0.3,0.1-0.6,0-0.8c0-0.1,0-0.1,0-0.2s0-0.2-0.1-0.3c0-0.1,0-0.1,0-0.1c0-0.2-0.1-0.4-0.2-0.6V4l-0.4-0.3h-0.4
		c-0.3,0-0.5,0-0.8,0c-0.2,0-0.3,0-0.5,0.1c-0.1,0-0.2,0-0.3,0c-0.4,0-0.6,0.2-0.8,0.6l0.1,0.4l0.3,0.6c0.1,0.3,0.3,0.5,0.4,0.8
		c0.2,0.4,0.3,0.8,0.4,1.1c0.1,0.4,0.3,0.7,0.4,1.1l0.1,0.1c0.3,0.8,0.7,1.7,0.9,2.6c0.1,0.3,0.2,0.6,0.3,1c0.1,0.2,0.1,0.3,0.2,0.5
		l0.8,2.4c0.1,0.4,0.3,0.8,0.4,1.2c0,0.1-0.1,0.2-0.1,0.2c-0.1,0.3-0.3,0.5-0.5,0.6c-0.4,0.3-0.4,0.6-0.4,0.8h0.1c0,0.1,0,0.1,0,0.2
		s0,0.1-0.2,0.2l-0.3,0.2l-1.1,2.3v0.2l-0.5,0.9l0.2,0.6l-0.4-0.1c-0.2,0.3-0.3,0.5-0.2,0.7h-0.3c-0.1,0.1-0.2,0.3-0.1,0.6
		c0,0.1,0.1,0.2,0.2,0.2l-0.1,0.2l0,0l0,0c-0.1,0.4-0.2,0.7-0.4,1.1l0,0h-0.1l-0.2,0.3c-0.3,0.1-0.5,0.4-0.6,0.6
		c0,0.1-0.1,0.1-0.1,0.2c-0.1,0.1-0.1,0.2-0.1,0.2c0,0.1-0.1,0.1-0.1,0.1c-0.2,0.2-0.2,0.4-0.3,0.5v0.1l0.1,0.5l0.2,0.3
		c0.2,0.2,0.4,0.4,0.6,0.6c0.1,0.1,0.2,0.2,0.4,0.3c0.1,0.1,0.2,0.1,0.3,0.2c0.2,0.2,0.4,0.2,0.6,0.2c0.1,0,0.3,0,0.4-0.1l0.3-0.4
		l0.2-0.6c0.1-0.3,0.2-0.6,0.3-0.9c0.2-0.4,0.3-0.7,0.5-1.1s0.3-0.7,0.5-1.1l0.1-0.1c0.4-0.8,0.7-1.7,1.2-2.5
		c0.2-0.3,0.3-0.6,0.4-0.9c0.1-0.2,0.2-0.3,0.2-0.5c0.2-0.4,0.3-0.7,0.5-1.1l0.2-0.5c0.2,0.6,0.4,1.2,0.7,1.8l0.1,0.3l0.2,0.4
		c0.1,0.1,0.2,0.2,0.2,0.4c0.3,0.7,0.5,1.5,0.7,2.3c0.1,0.3,0.2,0.6,0.3,0.9l0.1,0.3h-0.1l0.2,0.7v0.1l0,0c0.2,0.7,0.4,1.5,0.5,2.2
		l0.5,0.3c0.1,0,0.2,0,0.4,0c0.1,0,0.3,0,0.4,0c0.2,0,0.4,0,0.6-0.1v-0.1l0,0c0.3,0,0.7-0.1,0.9-0.2L241.6,28.2c0-0.1,0-0.1,0-0.2
		C241.6,28.4,241.6,28.3,241.6,28.2z"/>
	<path class="st0" d="M186.3,21.5c-0.2-0.2-0.5-0.3-0.6-0.3c-0.3,0-0.5,0.2-0.7,0.3c-0.5,0.4-1.1,0.6-1.7,0.7h-0.1
		c-0.1,0-0.1-0.1-0.2-0.1c-0.2-0.1-0.4,0-0.6,0c-0.7,0.2-1.4,0.2-2,0l-0.2-0.1c-0.3-0.1-0.8-0.2-1-0.4c-0.1-0.1-0.2-0.3-0.5-0.4
		c-0.1,0-0.1,0-0.1,0l0,0c0-0.2-0.1-0.6-0.5-0.7c-0.2-0.1-0.3-0.1-0.5,0v-0.1c0-0.1-0.1-0.2-0.1-0.2c-0.1-0.2-0.3-0.4-0.4-0.6
		c-0.1-0.1-0.2-0.2-0.2-0.3c-0.1-0.1,0-0.2,0-0.5c0-0.1,0-0.3,0-0.5s-0.1-0.4-0.1-0.6c0-0.1-0.1-0.3-0.1-0.4c-0.1-0.9,0-1.8,0.1-2.4
		c0.2-1.4,0.5-3.3,1.7-4.5c0.4-0.4,0.9-0.7,1.4-0.9c0.2-0.1,0.5-0.1,0.8-0.2c0.3-0.1,0.7-0.1,1.1-0.3c0.1,0,0.2-0.1,0.3-0.1l0.2,0.3
		c0.3,0.1,0.5-0.1,0.6-0.1c0,0,0.1,0,0.1,0.1c0.1,0.1,0.1,0.1,0.2,0.2c0.1,0.1,0.1,0.2,0.2,0.3l0.3,0.2c0.2,0,0.5,0,0.6-0.3
		c0.3-0.7,0.9-2.3,0.6-2.8l-0.2-0.2l0,0C183.8,6.1,183,6,182.4,6c-2.4-0.1-4.3,0.5-6,2c-0.2,0.2-0.4,0.4-0.5,0.6
		c-0.1,0.2,0,0.4,0,0.5s0,0.2,0,0.2c-0.1,0.3-0.3,0.4-0.5,0.5c-0.5,0.2-1,0.5-1.1,1.6c0,0.3,0,0.6-0.1,1c0,0.7-0.1,1.5-0.2,2.2
		c-0.1,0.6-0.1,1.1-0.1,1.5c0,2.7,0.2,6.4,2.4,7.4c0.1,0,0.1,0.1,0.1,0.1s0.1,0.1,0.1,0.2s0.1,0.3,0.2,0.4c0.2,0.3,0.5,0.3,0.7,0.4
		c0.1,0,0.2,0,0.2,0.1c0.1,0.1,0.2,0.2,0.4,0.3c0.1,0.1,0.2,0.2,0.3,0.3c0.5,0.4,1,0.6,1.5,0.6c0.1,0,0.3,0,0.4,0
		c0.8-0.1,1.4-0.1,2.2-0.1h0.6c0.1,0,0.4,0,0.6-0.2c0.2-0.2,0.3-0.2,0.6-0.2c0.2,0,0.5,0,0.9-0.2l0.2-0.1c1-0.5,1.2-0.6,1.3-0.6
		c-0.1,0-0.2-0.1-0.3-0.2l0.8-0.1C187.2,23.6,186.9,22.1,186.3,21.5z"/>
</g>
<g>
	<path class="st0" d="M70.1,88.7c-0.3-0.1-0.7-0.1-1.2-0.1h-1.1L67.7,95h0.9v-2.6H69c0.7,0,1.2-0.2,1.6-0.5s0.6-0.8,0.6-1.4
		c0-0.5-0.2-1-0.5-1.4C70.6,88.9,70.3,88.8,70.1,88.7z M69.1,91.5h-0.4v-2H69c0.9,0,1.3,0.3,1.3,1C70.4,91.1,70,91.5,69.1,91.5z"/>
	<polygon class="st0" points="74.5,88.6 73.5,88.6 73.5,95 76.3,95 76.3,94.1 74.4,94.1 	"/>
	<path class="st0" d="M81.9,92.5c0,0.6-0.1,1-0.3,1.2c-0.3,0.4-0.6,0.5-1.1,0.5s-0.8-0.2-1.1-0.6c-0.2-0.3-0.3-0.7-0.3-1.2v-3.8
		h-0.9v4.1c0,0.7,0.2,1.2,0.6,1.7c0.5,0.5,1,0.7,1.7,0.7s1.2-0.2,1.7-0.7c0.4-0.4,0.6-1,0.6-1.7v-4.1h-0.9L81.9,92.5z"/>
	<path class="st0" d="M87.9,91.3L87.3,91c-0.5-0.2-0.7-0.4-0.7-0.8c0-0.2,0.1-0.4,0.3-0.6c0.2-0.2,0.4-0.2,0.7-0.2
		c0.2,0,0.4,0,0.5,0.1s0.3,0.2,0.4,0.5l0.8-0.5c-0.4-0.7-1-1.1-1.7-1.1c-0.5,0-1,0.2-1.3,0.5c-0.4,0.3-0.5,0.7-0.5,1.2
		c0,0.7,0.4,1.3,1.3,1.6l0.6,0.3c0.2,0.1,0.3,0.1,0.4,0.2s0.2,0.2,0.3,0.2c0.1,0.1,0.1,0.2,0.2,0.3c0,0.1,0,0.2,0,0.3
		c0,0.3-0.1,0.6-0.3,0.8c-0.2,0.2-0.4,0.3-0.7,0.3c-0.4,0-0.7-0.1-0.8-0.4c-0.1-0.1-0.2-0.4-0.2-0.8l-1,0.2c0.1,0.6,0.3,1.1,0.6,1.4
		c0.4,0.3,0.8,0.5,1.3,0.5c0.6,0,1.1-0.2,1.4-0.6c0.4-0.4,0.6-0.9,0.6-1.5c0-0.4-0.1-0.8-0.3-1.1S88.4,91.5,87.9,91.3z"/>
	<path class="st0" d="M98.8,94.1c-0.1,0.1-0.1,0.1-0.2,0.2s-0.2,0.1-0.3,0.1c-0.2,0-0.4-0.1-0.7-0.2c-0.1,0-0.1,0-0.2-0.1
		c-0.1,0-0.2-0.1-0.2-0.1h-0.1c0.1-0.3,0.1-0.5,0.1-0.7c0-0.1,0-0.3-0.1-0.6H98V92h-1.2l0,0l0,0c-0.3-0.5-0.4-0.9-0.4-1.2
		c0-0.3,0.1-0.6,0.3-0.8c0.2-0.2,0.5-0.3,0.8-0.3c0.4,0,0.8,0.2,0.9,0.6c0.1,0.2,0.1,0.5,0.1,1l0.9-0.3c0-0.6-0.2-1.1-0.6-1.5
		s-0.8-0.6-1.4-0.6s-1.1,0.2-1.5,0.6s-0.6,0.8-0.6,1.4c0,0.4,0.1,0.8,0.4,1.4H95V93h1.1c0.1,0.2,0.1,0.4,0.1,0.6s0,0.4-0.1,0.6
		c-0.3,0-0.5,0.1-0.7,0.3c-0.1,0.1-0.4,0.4-0.6,0.8l0.8,0.4c0.1-0.2,0.2-0.4,0.3-0.5c0.1-0.1,0.2-0.1,0.4-0.1c0.2,0,0.5,0.1,0.9,0.3
		c0.5,0.2,0.8,0.3,1,0.3c0.3,0,0.6-0.1,0.8-0.2c0.2-0.2,0.4-0.4,0.6-0.8L99,93.8C98.9,93.9,98.8,94,98.8,94.1z"/>
	<path class="st0" d="M104,92.3c0.2-0.2,0.3-0.4,0.4-0.6c0.2-0.3,0.3-0.7,0.3-1c0-0.5-0.2-1-0.6-1.4s-0.9-0.6-1.4-0.6
		c-1.2,0-1.9,0.7-2,2h0.9c0.1-0.8,0.5-1.1,1.1-1.1c0.3,0,0.6,0.1,0.8,0.3c0.2,0.2,0.3,0.5,0.3,0.8c0,0.2-0.1,0.4-0.2,0.7
		c-0.1,0.1-0.2,0.3-0.3,0.5c-0.1,0.2-0.3,0.4-0.5,0.7l-2.2,2.7h4.2v-0.9h-2.3l1-1.2C103.6,92.9,103.9,92.6,104,92.3z"/>
	<path class="st0" d="M108.4,88.8c-0.6,0-1.1,0.3-1.5,0.8c-0.5,0.6-0.7,1.4-0.7,2.4c0,1.1,0.2,1.9,0.7,2.5c0.4,0.6,0.9,0.8,1.5,0.8
		s1.1-0.3,1.5-0.8c0.5-0.6,0.7-1.4,0.7-2.5c0-1-0.2-1.9-0.7-2.5C109.5,89.1,109,88.8,108.4,88.8z M109.3,93.8
		c-0.2,0.5-0.6,0.7-0.9,0.7c-0.4,0-0.7-0.2-0.9-0.7c-0.2-0.5-0.4-1.1-0.3-1.8c0-0.7,0.1-1.2,0.4-1.7c0.2-0.5,0.6-0.7,0.9-0.7
		c0.4,0,0.7,0.2,0.9,0.7c0.2,0.5,0.4,1,0.4,1.7C109.7,92.8,109.6,93.4,109.3,93.8z"/>
	<path class="st0" d="M114,88.9c-0.6,0-1.1,0.3-1.5,0.8c-0.5,0.6-0.7,1.4-0.7,2.4c0,1.1,0.2,1.9,0.7,2.5c0.4,0.6,0.9,0.8,1.5,0.8
		s1.1-0.3,1.5-0.8c0.5-0.6,0.7-1.4,0.7-2.5c0-1-0.2-1.9-0.7-2.5C115.1,89.1,114.6,88.9,114,88.9z M114.9,93.9
		c-0.2,0.5-0.6,0.7-0.9,0.7c-0.4,0-0.7-0.2-0.9-0.7c-0.2-0.5-0.4-1.1-0.3-1.8c0-0.7,0.1-1.2,0.4-1.7c0.2-0.5,0.6-0.7,0.9-0.7
		c0.4,0,0.7,0.2,0.9,0.7c0.2,0.5,0.4,1,0.4,1.7C115.2,92.9,115.1,93.4,114.9,93.9z"/>
	<path class="st0" d="M119.5,88.9c-0.6,0-1.1,0.3-1.5,0.8c-0.5,0.6-0.7,1.4-0.7,2.4c0,1.1,0.2,1.9,0.7,2.5c0.4,0.6,0.9,0.8,1.5,0.8
		s1.1-0.3,1.5-0.8c0.5-0.6,0.7-1.4,0.7-2.5c0-1-0.2-1.9-0.7-2.5C120.6,89.2,120.1,88.9,119.5,88.9z M120.4,93.9
		c-0.2,0.5-0.6,0.7-0.9,0.7c-0.4,0-0.7-0.2-0.9-0.7c-0.2-0.5-0.4-1.1-0.3-1.8c0-0.7,0.1-1.2,0.4-1.7c0.2-0.5,0.6-0.7,0.9-0.7
		c0.4,0,0.7,0.2,0.9,0.7c0.2,0.5,0.4,1,0.4,1.7C120.8,92.9,120.6,93.5,120.4,93.9z"/>
	<path class="st0" d="M130.2,93.1h1.6c0,0.4-0.3,0.8-0.6,1.2c-0.4,0.3-0.8,0.5-1.3,0.5s-1.1-0.2-1.5-0.7c-0.5-0.5-0.7-1.1-0.7-1.8
		c0-0.7,0.2-1.3,0.7-1.7c0.5-0.5,1-0.7,1.7-0.7s1.4,0.4,1.9,1.1l0.7-0.7c-0.4-0.5-0.8-0.8-1.2-1s-0.9-0.3-1.4-0.3
		c-0.9,0-1.7,0.3-2.3,1c-0.6,0.6-1,1.4-1,2.3s0.3,1.7,0.9,2.3c0.6,0.7,1.4,1,2.2,1c0.9,0,1.6-0.3,2.2-1c0.3-0.3,0.4-0.6,0.6-1
		c0.1-0.4,0.2-0.8,0.2-1.3v-0.2h-2.6L130.2,93.1z"/>
	
		<rect x="132.5" y="91.9" transform="matrix(9.296718e-03 -1 1 9.296718e-03 42.088 227.2513)" class="st0" width="6.4" height="0.9"/>
	<polygon class="st0" points="138.9,95.6 139.9,95.6 139.9,92.5 142,92.6 142,91.7 139.9,91.6 139.9,90.1 142.1,90.1 142.1,89.2 
		139,89.2 	"/>
	<polygon class="st0" points="143.8,90.1 145.2,90.2 145.2,95.6 146.1,95.6 146.2,90.2 147.6,90.2 147.6,89.3 143.8,89.2 	"/>
	<path class="st0" d="M154,90.4c-0.5,0.6-0.8,1.4-0.8,2.2c0,0.9,0.3,1.7,0.9,2.3c0.6,0.6,1.4,1,2.3,1c0.6,0,1.2-0.1,1.7-0.5v-1.2
		c-0.2,0.1-0.3,0.2-0.4,0.3c-0.1,0.1-0.3,0.2-0.4,0.2c-0.2,0.1-0.5,0.2-0.8,0.2c-0.6,0-1.2-0.2-1.6-0.7c-0.4-0.5-0.7-1-0.7-1.7
		s0.2-1.2,0.7-1.7c0.4-0.5,1-0.7,1.6-0.7s1.1,0.2,1.7,0.7v-1.1c-0.5-0.3-1.1-0.5-1.6-0.5C155.5,89.2,154.6,89.6,154,90.4z"/>
	<path class="st0" d="M159.9,95.8h1l0.7-1.5h2.7l0.6,1.6h1l-2.9-6.8L159.9,95.8z M162.1,93.3l1-2.2l0.9,2.2H162.1z"/>
	<path class="st0" d="M171.2,92.5c0.3-0.3,0.4-0.7,0.4-1.2c0-0.6-0.2-1-0.6-1.4c-0.4-0.3-1-0.5-1.8-0.5h-1.1l-0.1,6.4h0.9v-2.6h0.2
		l1.8,2.6h1.2l-1.9-2.7C170.6,93,171,92.8,171.2,92.5z M169,92.4v-2h0.3c0.9,0,1.3,0.3,1.3,1s-0.5,1-1.4,1H169z"/>
	<path class="st0" d="M178.2,90.4c-0.3-0.3-0.7-0.5-1.1-0.6c-0.4-0.1-0.9-0.2-1.5-0.2h-1.3l-0.1,6.4h1.3c0.6,0,1.1,0,1.5-0.2
		c0.4-0.1,0.7-0.3,1.1-0.6c0.7-0.6,1-1.4,1-2.4C179.2,91.8,178.9,91,178.2,90.4z M177.5,94.4c-0.2,0.2-0.5,0.4-0.8,0.5
		s-0.6,0.1-1.1,0.1h-0.4v-4.6h0.4c0.8,0,1.4,0.2,1.8,0.6c0.5,0.4,0.7,1,0.7,1.7C178.2,93.4,178,94,177.5,94.4z"/>
</g>
<g>
	<path class="st0" d="M139.7,45.3C139.7,45.2,139.7,45.2,139.7,45.3C139.6,45.2,139.6,45.3,139.7,45.3
		C139.6,45.3,139.7,45.3,139.7,45.3L139.7,45.3z"/>
	<polygon class="st0" points="139.7,46.1 139.2,45.5 139,45.2 139.5,44.7 139.9,44.8 140.5,45.1 	"/>
</g>
<g>
	<rect x="128.6" y="34.1" class="st1" width="3" height="12.2"/>
</g>
<g>
	<path class="st1" d="M127.8,46.3h-3.4c-3,0-5.5-2.5-5.5-5.5v-1.2c0-3,2.5-5.5,5.5-5.5h3.4V46.3z"/>
</g>
<g>
	<path class="st1" d="M242,40.2c0-0.4,0.4-0.7,0.4-0.7l-13.7-5.2l-2.3,3.2l0.2,5.7l2.1,2.9l13.7-5.2C242.4,41,242,40.7,242,40.2z"/>
</g>
<g>
	<g>
		<polygon class="st1" points="228.1,34.2 132.5,34.1 132.5,37.2 226,37.2 		"/>
	</g>
	<g>
		<polygon class="st1" points="225.9,37.8 132.5,37.8 132.5,43 226.1,43 		"/>
	</g>
	<g>
		<polygon class="st1" points="228.2,46.3 226.2,43.6 132.5,43.6 132.5,46.3 		"/>
	</g>
</g>
<g>
	<path class="st0" d="M243.2,40.9c0,0-0.4-0.2-0.4-0.7s0.4-0.6,0.4-0.6l1.7,0.7L243.2,40.9z"/>
</g>
</svg>
